SplineFontDB: 3.2
FontName: CMUOSerif-Roman
FullName: CMUO Serif Roman
FamilyName: CMUO Serif
Weight: Medium
Copyright: Modified by Jihu S. Kim from CMU fonts.\n\nConverted by Andrey V. Panov from TeX fonts. Some glyphs are copied from Blue Sky fonts released by AMS.
Version: 1.0
ItalicAngle: 0
UnderlinePosition: -150
UnderlineWidth: 50
Ascent: 800
Descent: 200
InvalidEm: 0
LayerCount: 2
Layer: 0 0 "+tLe6dAAA" 1
Layer: 1 0 "+xV66dAAA" 0
XUID: [1021 774 1001095470 8500923]
StyleMap: 0x0040
FSType: 0
OS2Version: 3
OS2_WeightWidthSlopeOnly: 0
OS2_UseTypoMetrics: 0
CreationTime: 1245311475
ModificationTime: 1590426968
PfmFamily: 17
TTFWeight: 500
TTFWidth: 5
LineGap: 200
VLineGap: 0
Panose: 2 0 6 3 0 0 0 0 0 0
OS2TypoAscent: 800
OS2TypoAOffset: 0
OS2TypoDescent: -200
OS2TypoDOffset: 0
OS2TypoLinegap: 200
OS2WinAscent: 935
OS2WinAOffset: 0
OS2WinDescent: 250
OS2WinDOffset: 0
HheadAscent: 935
HheadAOffset: 0
HheadDescent: -250
HheadDOffset: 0
OS2SubXSize: 650
OS2SubYSize: 700
OS2SubXOff: 0
OS2SubYOff: 140
OS2SupXSize: 650
OS2SupYSize: 700
OS2SupXOff: 0
OS2SupYOff: 480
OS2StrikeYSize: 49
OS2StrikeYPos: 258
OS2CapHeight: 678
OS2XHeight: 430
OS2Vendor: 'PfEd'
OS2CodePages: 0000019f.00000000
OS2UnicodeRanges: e10002ff.5201e9eb.02020004.00000000
Lookup: 1 0 0 "'case' +swDBjK1svYQA +x5DWFQAA lookup 0" { "'case' +swDBjK1svYQA +x5DWFQAA lookup 0 subtable"  } ['case' ('cyrl' <'dflt' > 'grek' <'dflt' > 'latn' <'dflt' > ) ]
Lookup: 1 0 0 "'smcp' +wYy7OMeQxdDBHAAA +wYzWFQAA +swC7OMeQuFwA in +rfi5rQAA +x5AA lookup 1" { "'smcp' +wYy7OMeQxdDBHAAA +wYzWFQAA +swC7OMeQuFwA in +rfi5rQAA +x5AA lookup 1 subtable"  } ['smcp' ('grek' <'dflt' > ) ]
Lookup: 1 0 0 "'c2sc' +swC7OMeQxdDBHAAA +wYzWFbMAuzjHkLhc in +rfi5rQAA +x5AA lookup 2" { "'c2sc' +swC7OMeQxdDBHAAA +wYzWFbMAuzjHkLhc in +rfi5rQAA +x5AA lookup 2 subtable"  } ['c2sc' ('grek' <'dflt' > ) ]

StartChar: .notdef
Encoding: 0 0 0
Width: 760
Flags: MW
TeX: 765 -10
HStem: 10 60<105 655 105 750> 705 60<105 105 105 655>
VStem: 10 60<112 112 112 663> 690 60<112 663 663 663>
LayerCount: 2
Fore
SplineSet
10 10 m 1
 10 765 l 1
 750 765 l 1
 750 10 l 1
 10 10 l 1
70 112 m 1
 346 388 l 1
 70 663 l 1
 70 112 l 1
105 70 m 1
 655 70 l 1
 380 346 l 1
 105 70 l 1
105 705 m 1
 380 429 l 1
 655 705 l 1
 105 705 l 1
414 388 m 1
 690 112 l 1
 690 663 l 1
 414 388 l 1
EndSplineSet
EndChar

StartChar: exclam
Encoding: 33 33 2
Width: 278
GlyphClass: 2
Flags: MW
TeX: 688 0
HStem: 1 105<124.5 151> 696 20G<125.5 151>
VStem: 85 105<39.5 68.5> 85 106<662 680.5 662 681> 124 28<211 215>
LayerCount: 2
Fore
SplineSet
85 664 m 0xd0
 85 698 113 716 138 716 c 0
 164 716 191 697 191 664 c 0xd0
 191 660 190 657 190 653 c 2xe0
 152 211 l 2
 151 197 148 188 137 188 c 0
 125 188 125 203 124 215 c 2xc8
 86 650 l 2
 86 655 85 659 85 664 c 0xd0
85 53 m 0xa0
 85 84 111 106 138 106 c 0
 166 106 190 84 190 53 c 0
 190 22 164 1 138 1 c 0
 107 1 85 26 85 53 c 0xa0
EndSplineSet
EndChar

StartChar: quotedbl
Encoding: 34 34 3
Width: 500
GlyphClass: 2
Flags: MW
TeX: 688 0
HStem: 690 20G<157 173 321 341>
VStem: 119 93<658.5 682.5> 287 92<658.5 679>
LayerCount: 2
Fore
SplineSet
119 664 m 0
 119 701 149 710 165 710 c 0
 181 710 212 701 212 664 c 0
 212 652 178 358 177 347 c 1
 154 347 l 1
 147 421 119 653 119 664 c 0
287 663 m 0
 287 695 309 710 333 710 c 0
 349 710 379 701 379 664 c 0
 379 653 351 422 344 347 c 1
 322 347 l 1
 320 361 287 649 287 663 c 0
EndSplineSet
EndChar

StartChar: numbersign
Encoding: 35 35 4
Width: 833
GlyphClass: 2
Flags: MW
TeX: 688 194
HStem: 141 23<76.5 261 83 255 285 493 83 278 524 751> 336 23<74.5 315 87 308 87 332 339 547 577 749> 672 20G<410 419.5 648 657.5>
LayerCount: 2
Fore
SplineSet
57 153 m 0
 57 164 73 164 83 164 c 2
 261 164 l 1
 308 336 l 1
 80 336 l 2
 69 336 57 337 57 347 c 0
 57 358 73 359 87 359 c 2
 315 359 l 1
 396 655 l 2
 400 669 404 692 416 692 c 0
 423 692 425 687 425 680 c 0
 425 671 421 658 419 650 c 2
 339 359 l 1
 554 359 l 1
 635 655 l 2
 639 669 642 692 654 692 c 0
 661 692 664 687 664 680 c 0
 664 671 659 658 657 650 c 2
 577 359 l 1
 750 359 l 2
 761 359 775 358 775 347 c 0
 774 336 760 336 749 336 c 2
 570 336 l 1
 524 164 l 1
 751 164 l 2
 762 164 775 163 775 153 c 0
 775 142 762 141 751 141 c 2
 517 141 l 1
 435 -155 l 2
 431 -169 427 -192 416 -192 c 0
 409 -192 407 -187 407 -180 c 0
 407 -171 411 -158 413 -150 c 2
 493 141 l 1
 278 141 l 1
 197 -155 l 2
 193 -169 189 -192 178 -192 c 0
 171 -192 168 -187 168 -180 c 0
 168 -171 173 -158 175 -150 c 2
 255 141 l 1
 82 141 l 2
 71 141 57 142 57 153 c 0
285 164 m 1
 500 164 l 1
 547 336 l 1
 332 336 l 1
 285 164 l 1
EndSplineSet
EndChar

StartChar: dollar
Encoding: 36 36 5
Width: 500
GlyphClass: 2
Flags: MW
TeX: 749 55
HStem: -10 30<234 234> 137 91<99.5 112.5 92.5 115.5> 480 91<386 399.5 383.5 406> 673 32<234 234>
VStem: 55 52<511.5 561> 55 92<170.5 197 170.5 197.5> 234 31<-55 -10 -55 -10 21 311 411 673 673 673 705 750> 352 91<511 537> 392 52<143.5 196>
LayerCount: 2
Fore
SplineSet
55 177 m 0xf680
 55 218 84 228 101 228 c 0
 124 228 147 211 147 183 c 0xf680
 147 158 129 137 102 137 c 0
 97 137 91 138 85 139 c 1
 109 46 178 25 234 20 c 1
 234 319 l 1
 209 325 132 335 84 412 c 0
 65 442 55 478 55 513 c 0
 55 609 125 693 234 705 c 1
 234 750 l 1
 265 750 l 1
 265 705 l 1
 416 695 443 584 443 530 c 0
 443 488 414 480 398 480 c 0
 374 480 352 497 352 525 c 0xfb
 352 549 370 571 397 571 c 0
 402 571 408 570 413 569 c 1
 387 651 320 669 265 674 c 1
 265 403 l 1
 293 396 374 384 420 295 c 0
 436 264 444 229 444 195 c 0
 444 92 370 0 265 -10 c 1
 265 -55 l 1
 234 -55 l 1
 234 -10 l 1
 81 1 55 121 55 177 c 0xf680
107 543 m 0xfa
 107 480 153 439 191 423 c 0
 205 417 220 415 234 411 c 1
 234 673 l 1
 160 665 107 610 107 543 c 0xfa
265 21 m 1
 348 32 392 100 392 165 c 0xf280
 392 227 355 277 307 298 c 0
 294 304 279 307 265 311 c 1
 265 21 l 1
EndSplineSet
EndChar

StartChar: percent
Encoding: 37 37 6
Width: 833
GlyphClass: 2
Flags: MW
TeX: 749 55
HStem: -56 22<637 673 637 682.5> 325 22<636.5 673.5> 347 22<194 230 194 239.5> 619 22<445 498.5 427 501> 728 22<193.5 219 165 230.5>
VStem: 56 62<488.5 607.5> 308 25<495 555 492 601.5> 499 62<85.5 204.5> 751 25<92 198.5>
LayerCount: 2
Fore
SplineSet
56 549 m 0xbf80
 56 666 127 750 203 750 c 0
 235 750 256 735 275 718 c 0
 330 666 392 641 462 641 c 0
 535 641 602 668 652 736 c 0
 658 743 663 750 673 750 c 0
 684 750 693 741 693 730 c 0
 693 724 691 721 685 712 c 2
 179 -41 l 2
 171 -52 169 -56 159 -56 c 0
 149 -56 139 -47 139 -36 c 0
 139 -34 139 -29 148 -16 c 2
 597 653 l 1
 596 654 l 1
 590 650 539 619 463 619 c 0
 427 619 377 624 312 661 c 1
 333 609 333 562 333 548 c 0
 333 436 276 347 203 347 c 0
 128 347 56 428 56 549 c 0xbf80
118 548 m 0
 118 382 184 369 204 369 c 0
 256 369 308 441 308 549 c 0
 308 654 257 728 204 728 c 0
 183 728 118 715 118 548 c 0
499 146 m 0
 499 263 570 347 646 347 c 0xdf80
 717 347 776 260 776 145 c 0
 776 33 719 -56 646 -56 c 0
 571 -56 499 25 499 146 c 0
561 145 m 0
 561 -21 627 -34 647 -34 c 0
 699 -34 751 38 751 146 c 0
 751 251 700 325 647 325 c 0
 626 325 561 312 561 145 c 0
EndSplineSet
EndChar

StartChar: ampersand
Encoding: 38 38 7
Width: 777
GlyphClass: 2
Flags: MW
TeX: 688 0
HStem: -22 31<189.5 245 189.5 265.5 557 606.5> 400 31<508 531> 694 22<283.5 331>
VStem: 42 83<133 155> 163 63<562.5 608> 361 25<555 589> 696 25<121 121>
LayerCount: 2
Fore
SplineSet
42 128 m 0
 42 182 68 209 113 255 c 2
 204 352 l 1
 169 441 163 513 163 555 c 0
 163 661 237 716 299 716 c 0
 370 716 386 633 386 587 c 0
 386 521 318 445 264 385 c 1
 308 270 417 133 430 118 c 1
 473 171 518 239 573 336 c 0
 574 339 579 346 579 356 c 0
 579 381 554 400 508 400 c 1
 508 431 l 1
 535 429 619 428 630 428 c 0
 636 428 690 429 727 431 c 1
 727 400 l 1
 638 399 617 364 578 298 c 0
 532 219 492 151 446 98 c 1
 478 60 530 9 584 9 c 0
 629 9 693 42 696 121 c 1
 721 121 l 1
 719 35 656 -22 580 -22 c 0
 532 -22 473 -6 404 54 c 1
 367 21 308 -22 223 -22 c 0
 124 -22 42 41 42 128 c 0
125 160 m 0
 125 106 148 9 231 9 c 0
 259 9 321 16 385 73 c 1
 348 110 312 162 293 190 c 0
 250 252 235 282 213 329 c 1
 159 277 125 241 125 160 c 0
226 578 m 0
 226 547 229 489 256 409 c 1
 280 435 361 522 361 588 c 0
 361 590 361 694 301 694 c 0
 266 694 226 662 226 578 c 0
EndSplineSet
EndChar

StartChar: quotesingle
Encoding: 39 39 8
Width: 278
GlyphClass: 2
Flags: MW
TeX: 688 0
HStem: 690 20G<130 151>
VStem: 92 92<661.5 679 661.5 682.5>
LayerCount: 2
Fore
SplineSet
92 664 m 0
 92 701 122 710 138 710 c 0
 164 710 184 694 184 664 c 0
 184 659 184 654 183 649 c 2
 150 347 l 1
 127 347 l 1
 93 649 l 2
 92 654 92 659 92 664 c 0
EndSplineSet
EndChar

StartChar: parenleft
Encoding: 40 40 9
Width: 388
GlyphClass: 2
Flags: MW
TeX: 749 249
VStem: 99 58<211 292>
LayerCount: 2
Fore
SplineSet
99 250 m 0
 99 334 111 445 162 555 c 0
 221 682 311 750 321 750 c 0
 327 750 331 747 331 740 c 0
 331 737 331 735 318 723 c 0
 195 598 157 424 157 250 c 0
 157 97 189 -92 314 -218 c 0
 331 -235 331 -237 331 -240 c 0
 331 -247 327 -250 321 -250 c 0
 311 -250 225 -185 165 -62 c 0
 110 51 99 172 99 250 c 0
EndSplineSet
EndChar

StartChar: parenright
Encoding: 41 41 10
Width: 388
GlyphClass: 2
Flags: MW
TeX: 749 249
VStem: 231 58<208 289 208 354.5>
LayerCount: 2
Fore
SplineSet
57 -240 m 0
 57 -237 57 -235 70 -223 c 0
 194 -97 231 79 231 250 c 0
 231 459 174 618 76 717 c 0
 57 735 57 737 57 740 c 0
 57 746 61 750 67 750 c 0
 77 750 163 685 223 562 c 0
 278 449 289 328 289 250 c 0
 289 166 277 55 226 -55 c 0
 167 -182 77 -250 67 -250 c 0
 61 -250 57 -246 57 -240 c 0
EndSplineSet
EndChar

StartChar: asterisk
Encoding: 42 42 11
Width: 500
GlyphClass: 2
Flags: MW
TeX: 749 0
HStem: 413 55<413 413 413 415> 601 55<86 86>
VStem: 223 53<337.5 344 725 731.5>
LayerCount: 2
Fore
SplineSet
65 441 m 0
 65 453 69 460 88 469 c 2
 227 535 l 1
 86 601 l 2
 69 609 65 617 65 628 c 0
 65 641 76 656 92 656 c 0
 98 656 100 656 114 645 c 2
 238 555 l 1
 236 577 223 715 223 725 c 0
 223 738 234 750 250 750 c 0
 263 750 276 740 276 725 c 2
 261 555 l 1
 372 637 l 2
 398 656 400 656 407 656 c 0
 423 656 434 641 434 628 c 0
 434 616 430 609 411 600 c 2
 272 534 l 1
 413 468 l 2
 430 460 434 452 434 441 c 0
 434 428 423 413 407 413 c 0
 399 413 396 416 391 419 c 0
 386 422 311 478 261 514 c 1
 263 492 276 354 276 344 c 0
 276 331 265 319 249 319 c 0
 236 319 223 329 223 344 c 2
 238 514 l 1
 98 413 l 1
 65 413 65 439 65 441 c 0
EndSplineSet
EndChar

StartChar: plus
Encoding: 43 43 12
Width: 778
GlyphClass: 2
Flags: MW
TeX: 583 83
HStem: 239 22<93.5 377 95 377 400 682>
VStem: 377 23<-44 239 261 544 544 545.5>
LayerCount: 2
Fore
SplineSet
57 250 m 0
 57 260 70 262 81 262 c 0
 86 262 92 261 95 261 c 2
 377 261 l 1
 377 544 l 2
 377 547 376 552 376 557 c 0
 376 568 378 581 388 581 c 0
 398 581 400 568 400 557 c 2
 400 261 l 1
 682 261 l 2
 685 261 691 262 696 262 c 0
 707 262 719 260 719 250 c 0
 719 240 706 238 695 238 c 0
 690 238 685 239 682 239 c 2
 400 239 l 1
 400 -58 l 2
 400 -69 398 -81 388 -81 c 0
 378 -81 376 -68 376 -57 c 0
 376 -52 377 -47 377 -44 c 2
 377 239 l 1
 95 239 l 2
 92 239 85 238 80 238 c 0
 69 238 57 240 57 250 c 0
EndSplineSet
EndChar

StartChar: comma
Encoding: 44 44 13
Width: 277
GlyphClass: 2
Flags: MW
TeX: 105 194
VStem: 181 22<-31 8>
LayerCount: 2
Fore
SplineSet
86 53 m 0
 86 79 104 106 139 106 c 0
 179 106 203 65 203 1 c 0
 203 -114 124 -193 112 -193 c 0
 107 -193 102 -189 102 -182 c 0
 102 -178 103 -177 109 -171 c 0
 153 -124 181 -63 181 1 c 0
 181 15 180 16 179 16 c 2
 177 14 l 2
 167 6 155 0 139 0 c 0
 103 0 86 27 86 53 c 0
EndSplineSet
EndChar

StartChar: hyphen
Encoding: 45 45 14
Width: 333
GlyphClass: 2
Flags: MW
TeX: 430 0
HStem: 186 59<10 276 10 276>
VStem: 10 266<186 245 186 245>
LayerCount: 2
Fore
SplineSet
10 186 m 1
 10 245 l 1
 276 245 l 1
 276 186 l 1
 10 186 l 1
EndSplineSet
EndChar

StartChar: period
Encoding: 46 46 15
Width: 278
GlyphClass: 2
Flags: MW
TeX: 105 0
HStem: 0 105<122.5 151>
VStem: 85 105<39.5 66.5>
LayerCount: 2
Fore
SplineSet
85 53 m 0
 85 80 107 105 138 105 c 0
 166 105 190 84 190 53 c 0
 190 22 164 0 138 0 c 0
 107 0 85 26 85 53 c 0
EndSplineSet
EndChar

StartChar: slash
Encoding: 47 47 16
Width: 500
GlyphClass: 2
Flags: W
TeX: 749 249
LayerCount: 2
Fore
SplineSet
57 -236 m 0
 57 -233 57 -231 61 -220 c 2
 414 723 l 2
 417 730 421 748 432 748 c 0
 436 748 442 744 442 736 c 0
 442 732 440 727 439 723 c 2
 85 -221 l 2
 77 -243 74 -248 66 -248 c 0
 60 -248 57 -242 57 -236 c 0
EndSplineSet
EndChar

StartChar: zero
Encoding: 48 48 17
Width: 500
GlyphClass: 2
Flags: MW
TeX: 641 0
HStem: -22 22<229.5 271.5 229.5 276> 644 22<236.5 265.5>
VStem: 39 83<302.5 360> 377 83<294.5 360 280.5 363.5>
LayerCount: 2
Fore
SplineSet
39 320 m 0
 39 400 44 478 76 547 c 0
 117 640 190 666 250 666 c 0
 292 666 374 650 420 554 c 0
 455 480 460 400 460 320 c 0
 460 241 455 163 423 94 c 0
 379 -1 303 -22 249 -22 c 0
 200 -22 127 -2 84 79 c 0
 43 155 39 245 39 320 c 0
122 332 m 0
 122 273 122 181 133 121 c 0
 151 25 210 0 249 0 c 0
 294 0 351 30 366 125 c 0
 377 189 377 257 377 332 c 0
 377 395 377 471 367 527 c 0
 348 626 282 644 249 644 c 0
 224 644 149 635 130 516 c 0
 122 462 122 396 122 332 c 0
EndSplineSet
Substitution2: "'onum' +xiy03MKk0MDHfMIrx5AA lookup 18 subtable" zerooldstyle
EndChar

StartChar: one
Encoding: 49 49 18
Width: 500
GlyphClass: 2
Flags: MW
TeX: 641 0
HStem: 0 31<95 127> 571 31<89 99> 646 20G<271 282.5>
VStem: 220 74<79 597 597 597>
LayerCount: 2
Fore
SplineSet
89 571 m 1
 89 602 l 1
 121 602 209 602 271 666 c 1
 294 666 294 664 294 640 c 2
 294 79 l 2
 294 42 297 31 387 31 c 2
 419 31 l 1
 419 0 l 1
 384 3 297 3 257 3 c 0
 217 3 130 3 95 0 c 1
 95 31 l 1
 127 31 l 2
 217 31 220 43 220 79 c 2
 220 597 l 1
 168 571 109 571 89 571 c 1
EndSplineSet
Substitution2: "'onum' +xiy03MKk0MDHfMIrx5AA lookup 18 subtable" oneoldstyle
EndChar

StartChar: two
Encoding: 50 50 19
Width: 500
GlyphClass: 2
Flags: MW
TeX: 641 0
HStem: 0 77<127 307 307 318 127 421> 429 105<101.5 111.5> 635 31<195 269.5>
VStem: 50 105<461.5 495 461.5 529.5> 358 91<432 513> 424 25<174 174>
LayerCount: 2
Fore
SplineSet
50 0 m 1xf4
 50 24 50 26 61 37 c 2
 253 251 l 2
 308 313 358 392 358 472 c 0
 358 554 315 635 224 635 c 0
 166 635 112 598 89 533 c 1
 92 534 94 534 102 534 c 0
 137 534 155 508 155 482 c 0
 155 441 120 429 103 429 c 0
 100 429 50 429 50 485 c 0
 50 574 124 666 237 666 c 0
 359 666 449 586 449 472 c 0xf8
 449 372 389 318 233 180 c 1
 127 77 l 1
 307 77 l 2
 329 77 395 77 402 85 c 0
 412 100 419 144 424 174 c 1
 449 174 l 1
 421 0 l 1
 50 0 l 1xf4
EndSplineSet
Substitution2: "'onum' +xiy03MKk0MDHfMIrx5AA lookup 18 subtable" twooldstyle
EndChar

StartChar: three
Encoding: 51 51 20
Width: 500
GlyphClass: 2
Flags: MW
TeX: 641 0
HStem: -22 28<219.5 263 219.5 305> 82 111 337 26 478 101<109 116.5 109 135.5> 641 25<224 262.5>
VStem: 42 112<118 155 118 157> 69 102<514.5 554 514.5 568> 338 92<523 569 488.5 574> 354 103<120 212 120 220>
LayerCount: 2
Fore
SplineSet
42 135 m 0xfc80
 42 179 74 193 98 193 c 0
 127 193 154 173 154 137 c 0
 154 99 123 77 88 82 c 1
 123 23 198 6 241 6 c 0
 285 6 354 35 354 171 c 0xfc80
 354 269 317 337 235 337 c 2
 191 337 l 2
 174 337 167 337 167 348 c 0
 167 358 174 359 182 360 c 0
 189 360 213 362 221 363 c 0
 246 364 280 367 310 415 c 0
 336 459 338 517 338 529 c 0
 338 619 283 641 242 641 c 0
 206 641 140 628 109 579 c 1
 124 579 171 579 171 529 c 0
 171 500 151 478 120 478 c 0
 91 478 69 497 69 530 c 0
 69 606 145 666 246 666 c 0
 342 666 430 610 430 528 c 0xfb
 430 449 372 379 290 352 c 1
 394 331 457 253 457 171 c 0
 457 69 366 -22 244 -22 c 0
 135 -22 42 44 42 135 c 0xfc80
EndSplineSet
Substitution2: "'onum' +xiy03MKk0MDHfMIrx5AA lookup 18 subtable" threeoldstyle
EndChar

StartChar: four
Encoding: 52 52 21
Width: 500
GlyphClass: 2
Flags: MW
TeX: 641 0
HStem: 0 31<197 218> 165 31<28 28 56 294 371 471> 657 20G<350.5 363>
VStem: 300 71<196 569 569 569>
LayerCount: 2
Fore
SplineSet
28 165 m 1
 28 196 l 1
 335 665 l 2
 343 677 346 677 355 677 c 0
 371 677 371 671 371 651 c 2
 371 196 l 1
 471 196 l 1
 471 165 l 1
 371 165 l 1
 371 78 l 2
 371 42 373 31 447 31 c 2
 468 31 l 1
 468 0 l 1
 427 3 374 3 332 3 c 0
 290 3 238 3 197 0 c 1
 197 31 l 1
 218 31 l 2
 292 31 294 42 294 78 c 2
 294 165 l 1
 28 165 l 1
56 196 m 1
 300 196 l 1
 300 569 l 1
 56 196 l 1
EndSplineSet
Substitution2: "'onum' +xiy03MKk0MDHfMIrx5AA lookup 18 subtable" fouroldstyle
EndChar

StartChar: five
Encoding: 53 53 22
Width: 500
GlyphClass: 2
Flags: MW
TeX: 641 0
HStem: -22 28<192.5 252 192.5 289> 116 98<93.5 115.5> 398 22<235 283> 551 83<236 278.5> 645 20G<106 112>
VStem: 50 99<153 177 153 184> 101 31<369 564 369 641> 360 89<190.5 233>
LayerCount: 2
Fore
SplineSet
50 161 m 0xfd
 50 207 85 214 99 214 c 0
 132 214 149 189 149 165 c 0xfd
 149 141 132 116 99 116 c 0
 88 116 85 117 82 118 c 1
 99 59 156 6 229 6 c 0
 275 6 312 32 336 71 c 0
 360 113 360 173 360 208 c 0
 360 258 358 297 342 334 c 0
 334 352 309 398 257 398 c 0
 176 398 139 344 128 328 c 0
 124 322 122 319 115 319 c 0
 101 319 101 327 101 345 c 2
 101 641 l 2
 101 657 101 665 111 665 c 0
 113 665 115 665 123 662 c 0
 170 641 216 634 256 634 c 0
 323 634 372 654 392 663 c 0
 397 666 399 666 400 666 c 0
 407 666 410 661 410 655 c 0
 410 642 340 551 217 551 c 0
 185 551 152 558 132 564 c 1
 132 369 l 1xfb
 168 404 211 420 259 420 c 0
 367 420 449 320 449 201 c 0
 449 74 347 -22 231 -22 c 0
 119 -22 50 75 50 161 c 0xfd
EndSplineSet
Substitution2: "'onum' +xiy03MKk0MDHfMIrx5AA lookup 18 subtable" fiveoldstyle
EndChar

StartChar: six
Encoding: 54 54 23
Width: 500
GlyphClass: 2
Flags: MW
TeX: 641 0
HStem: -22 28<219.5 262.5 219.5 306.5> 404 23<223 264> 510 91<387.5 394> 641 25<281.5 319>
VStem: 42 92<217 265 217 426.5> 340 92<540.5 578.5> 367 90<181 229.5>
LayerCount: 2
Fore
SplineSet
42 316 m 0xfa
 42 537 177 666 305 666 c 0
 388 666 432 618 432 558 c 0
 432 519 402 510 386 510 c 0
 364 510 340 525 340 556 c 0xfc
 340 601 380 601 395 601 c 1
 373 635 331 641 307 641 c 0
 256 641 132 605 132 352 c 2
 132 328 l 1
 152 376 189 427 257 427 c 0
 368 427 457 331 457 204 c 0
 457 72 362 -22 251 -22 c 0
 158 -22 42 49 42 316 c 0xfa
134 226 m 0
 134 208 134 128 152 81 c 0
 158 66 188 6 251 6 c 0
 274 6 320 11 350 71 c 0
 367 107 367 157 367 205 c 0xfa
 367 254 367 305 349 342 c 0
 318 404 272 404 256 404 c 0
 166 404 134 304 134 226 c 0
EndSplineSet
Substitution2: "'onum' +xiy03MKk0MDHfMIrx5AA lookup 18 subtable" sixoldstyle
EndChar

StartChar: seven
Encoding: 55 55 24
Width: 500
GlyphClass: 2
Flags: MW
TeX: 641 0
HStem: -22 21G<199 245> 567 77<197.5 485 242 411>
VStem: 56 25<470 470> 89 25<676 676> 176 92<28 33 33 84>
LayerCount: 2
Fore
SplineSet
56 470 m 1
 89 676 l 1
 114 676 l 1
 118 657 120 644 242 644 c 2
 485 644 l 1
 485 623 485 621 476 609 c 2
 341 419 l 2
 297 357 283 271 279 248 c 0
 271 194 268 139 268 84 c 2
 268 33 l 2
 268 23 268 -22 222 -22 c 0
 176 -22 176 23 176 33 c 0
 176 135 209 274 299 409 c 0
 321 442 400 551 411 567 c 1
 204 567 l 2
 191 567 113 567 106 561 c 0
 93 549 84 486 81 470 c 1
 56 470 l 1
EndSplineSet
Substitution2: "'onum' +xiy03MKk0MDHfMIrx5AA lookup 18 subtable" sevenoldstyle
EndChar

StartChar: eight
Encoding: 56 56 25
Width: 500
GlyphClass: 2
Flags: MW
TeX: 641 0
HStem: -22 28<207 291 207 305.5> 641 25<213.5 285.5>
VStem: 42 50<109.5 180 109.5 200.5> 69 44<529.5 545.5> 386 44<488.5 553> 407 50<114.5 162.5>
LayerCount: 2
Fore
SplineSet
42 151 m 0xe4
 42 250 128 306 186 335 c 1
 161 352 124 377 113 389 c 0
 71 436 69 481 69 499 c 0
 69 592 150 666 250 666 c 0
 341 666 430 609 430 517 c 0xd8
 430 451 381 399 309 362 c 1
 373 322 389 312 408 291 c 0
 446 249 457 204 457 168 c 0
 457 61 362 -22 249 -22 c 0
 144 -22 42 45 42 151 c 0xe4
92 151 m 0xe4
 92 68 164 6 250 6 c 0
 332 6 407 58 407 132 c 0
 407 193 360 223 332 242 c 2
 209 320 l 1
 124 273 92 209 92 151 c 0xe4
113 538 m 0xd8
 113 521 117 487 163 457 c 2
 287 377 l 1
 347 412 386 460 386 517 c 0
 386 589 322 641 249 641 c 0
 178 641 113 599 113 538 c 0xd8
EndSplineSet
Substitution2: "'onum' +xiy03MKk0MDHfMIrx5AA lookup 18 subtable" eightoldstyle
EndChar

StartChar: nine
Encoding: 57 57 26
Width: 500
GlyphClass: 2
Flags: MW
TeX: 641 0
HStem: -22 28<196.5 234 196.5 270.5> 42 92<107 124 105 129> 218 23<235 272.5> 641 25<235.5 276>
VStem: 42 90<415.5 467 415.5 478.5> 67 92<79.5 103.5 79.5 105.5> 367 90<286 318 318 318>
LayerCount: 2
Fore
SplineSet
42 441 m 0xfa
 42 516 65 558 106 603 c 0
 149 648 198 666 253 666 c 0
 342 666 457 598 457 329 c 0
 457 114 335 -22 206 -22 c 0
 121 -22 67 19 67 86 c 0
 67 125 97 134 113 134 c 0
 135 134 159 119 159 88 c 0xf6
 159 71 151 42 107 42 c 1
 134 8 188 6 205 6 c 0
 263 6 367 52 367 286 c 2
 367 318 l 1
 344 260 303 218 242 218 c 0
 130 218 42 316 42 441 c 0xfa
132 440 m 0xfa
 132 391 132 341 150 304 c 0
 181 241 227 241 243 241 c 0
 331 241 365 338 365 421 c 0
 365 467 361 530 349 562 c 0
 332 607 299 641 253 641 c 0
 218 641 180 628 153 578 c 0
 132 541 132 494 132 440 c 0xfa
EndSplineSet
Substitution2: "'onum' +xiy03MKk0MDHfMIrx5AA lookup 18 subtable" nineoldstyle
EndChar

StartChar: colon
Encoding: 58 58 27
Width: 277
GlyphClass: 2
Flags: MW
TeX: 430 0
HStem: 0 106<124.5 153.5> 325 106<124.5 153.5>
VStem: 86 106<38.5 67.5 363.5 392.5>
LayerCount: 2
Fore
SplineSet
86 378 m 0
 86 407 110 431 139 431 c 0
 168 431 192 407 192 378 c 0
 192 349 168 325 139 325 c 0
 110 325 86 349 86 378 c 0
86 53 m 0
 86 82 110 106 139 106 c 0
 168 106 192 82 192 53 c 0
 192 24 168 0 139 0 c 0
 110 0 86 24 86 53 c 0
EndSplineSet
EndChar

StartChar: semicolon
Encoding: 59 59 28
Width: 278
GlyphClass: 2
Flags: MW
TeX: 430 194
HStem: 325 105<122.5 151>
VStem: 85 105<364.5 391.5> 181 22<-31 8>
LayerCount: 2
Fore
SplineSet
85 378 m 0xc0
 85 405 107 430 138 430 c 0
 166 430 190 409 190 378 c 0
 190 347 164 325 138 325 c 0
 107 325 85 351 85 378 c 0xc0
86 53 m 0x20
 86 79 104 106 139 106 c 0
 179 106 203 65 203 1 c 0
 203 -114 124 -193 112 -193 c 0
 107 -193 102 -189 102 -182 c 0
 102 -178 103 -177 109 -171 c 0
 153 -124 181 -63 181 1 c 0
 181 15 180 16 179 16 c 2
 177 14 l 2
 167 6 155 0 139 0 c 0
 103 0 86 27 86 53 c 0x20
EndSplineSet
EndChar

StartChar: less
Encoding: 60 60 29
Width: 778
GlyphClass: 2
Flags: W
TeX: 533 39
LayerCount: 2
Fore
SplineSet
85 250 m 0
 85 259 95 263 101 266 c 2
 656 519 l 2
 664 523 673 529 681 529 c 0
 686 529 691 525 691 519 c 0
 691 510 681 506 668 500 c 2
 180 276 l 2
 161 267 141 258 122 250 c 1
 141 242 161 233 180 224 c 2
 668 0 l 2
 686 -8 691 -11 691 -19 c 0
 691 -25 686 -29 681 -29 c 0
 673 -29 664 -23 656 -19 c 2
 101 234 l 2
 94 237 86 241 85 250 c 0
EndSplineSet
EndChar

StartChar: equal
Encoding: 61 61 30
Width: 778
GlyphClass: 2
Flags: MW
TeX: 366 -133
HStem: 141 23<78 84 84 690 690 692> 336 23<73 689 78 689 689 694>
LayerCount: 2
Fore
SplineSet
57 152 m 0
 58 164 67 164 77 164 c 2
 690 164 l 2
 703 164 719 165 719 153 c 0
 719 142 703 141 692 141 c 2
 84 141 l 2
 72 141 57 142 57 152 c 0
57 347 m 0
 57 352 60 359 78 359 c 2
 689 359 l 2
 702 359 719 360 719 347 c 0
 719 336 705 336 694 336 c 2
 77 336 l 2
 69 336 57 337 57 347 c 0
EndSplineSet
EndChar

StartChar: greater
Encoding: 62 62 31
Width: 778
GlyphClass: 2
Flags: W
TeX: 533 39
LayerCount: 2
Fore
SplineSet
85 -19 m 0
 85 -11 91 -8 109 0 c 2
 597 224 l 2
 616 233 635 242 655 250 c 1
 635 258 616 267 597 276 c 2
 109 500 l 2
 98 506 85 510 85 519 c 0
 85 525 91 529 96 529 c 0
 104 529 113 523 121 519 c 2
 676 266 l 2
 681 263 692 259 692 250 c 0
 691 241 682 237 663 228 c 2
 121 -19 l 2
 113 -23 104 -29 96 -29 c 0
 91 -29 85 -25 85 -19 c 0
EndSplineSet
EndChar

StartChar: question
Encoding: 63 63 32
Width: 472
GlyphClass: 2
Flags: MW
TeX: 688 0
HStem: 0 106<207.5 236.5> 524 91<92 99 92 116> 683 22<202 277.5>
VStem: 56 92<557 592.5 557 604.5> 169 106<38.5 67.5> 210 25<211 214 214 249> 332 83<549 595.5>
LayerCount: 2
Fore
SplineSet
56 572 m 0xf6
 56 637 118 705 226 705 c 0
 375 705 415 628 415 570 c 0
 415 528 394 492 367 472 c 0
 332 446 235 375 235 249 c 2
 235 214 l 2
 235 196 235 187 222 187 c 0
 210 187 210 193 210 211 c 2
 210 256 l 2
 210 317 232 409 298 481 c 0
 316 499 332 517 332 576 c 0
 332 615 332 683 223 683 c 0
 181 683 123 668 92 615 c 1
 106 615 148 615 148 570 c 0
 148 544 130 524 102 524 c 0
 79 524 56 538 56 572 c 0xf6
169 53 m 0x88
 169 82 193 106 222 106 c 0
 251 106 275 82 275 53 c 0
 275 24 251 0 222 0 c 0
 193 0 169 24 169 53 c 0x88
EndSplineSet
EndChar

StartChar: at
Encoding: 64 64 33
Width: 777
GlyphClass: 2
Flags: MW
TeX: 688 0
HStem: -11 22<302 420> 128 22<354 400 354 414 605.5 656> 544 22<353.5 406> 683 22<306 456.5>
VStem: 56 25<257.5 442.5 257.5 446.5> 189 69<291.5 402.5 291.5 410> 519 69<262 432 432 441> 696 25<286 452.5>
LayerCount: 2
Fore
SplineSet
56 347 m 0
 56 546 206 705 389 705 c 0
 550 705 721 572 721 338 c 0
 721 231 707 128 619 128 c 0
 581 128 529 147 519 199 c 1
 489 157 441 128 387 128 c 0
 284 128 189 221 189 347 c 0
 189 473 284 566 387 566 c 0
 426 566 478 552 524 489 c 0
 530 482 531 481 547 481 c 2
 564 481 l 2
 587 481 588 480 588 457 c 2
 588 216 l 2
 588 201 588 150 623 150 c 0
 689 150 696 240 696 332 c 0
 696 573 525 683 388 683 c 0
 224 683 81 538 81 347 c 0
 81 168 211 11 393 11 c 0
 487 11 580 35 665 75 c 0
 670 78 672 78 688 78 c 2
 697 78 l 2
 713 78 720 78 720 68 c 0
 720 52 600 17 574 11 c 0
 510 -4 446 -11 394 -11 c 0
 194 -11 56 159 56 347 c 0
258 347 m 0
 258 236 318 150 390 150 c 0
 410 150 461 156 505 219 c 0
 519 240 519 244 519 262 c 2
 519 432 l 2
 519 450 519 453 506 472 c 0
 470 528 422 544 390 544 c 0
 317 544 258 458 258 347 c 0
EndSplineSet
EndChar

StartChar: A
Encoding: 65 65 34
Width: 750
GlyphClass: 2
Flags: MW
TeX: 688 0
HStem: 0 31<32 32> 228 31<233 458 233 469 222 458> 696 20G<351 383 367 398>
AnchorPoint: "Anchor-5" 375 705 basechar 0
AnchorPoint: "Anchor-4" 374 0 basechar 0
AnchorPoint: "Anchor-1" 569 0 basechar 0
LayerCount: 2
Fore
SplineSet
32 0 m 1
 32 31 l 1
 86 32 126 47 144 98 c 2
 351 696 l 2
 356 710 359 716 375 716 c 0
 391 716 393 709 398 696 c 2
 614 71 l 2
 625 38 639 31 699 31 c 2
 717 31 l 1
 717 0 l 1
 675 2 629 3 586 3 c 0
 548 3 478 3 442 0 c 1
 442 31 l 1
 469 31 525 31 525 61 c 0
 525 65 523 71 522 75 c 2
 469 228 l 1
 222 228 l 1
 176 97 l 2
 175 95 174 85 174 82 c 0
 174 56 199 31 249 31 c 1
 249 0 l 1
 217 1 165 3 134 3 c 0
 98 3 55 1 32 0 c 1
233 259 m 1
 458 259 l 1
 345 584 l 1
 233 259 l 1
EndSplineSet
Substitution2: "'c2sc' +swC7OMeQxdDBHAAA +wYzWFbMAuzjHkLhc lookup 4 subtable" A.sc
EndChar

StartChar: B
Encoding: 66 66 35
Width: 708
GlyphClass: 2
Flags: MW
TeX: 688 0
HStem: 0 31<36 60 36 60 60 98.5 271 396 396 428> 344 22<222 367 367 410 222 367> 652 31<36 60 36 402 247.5 271 271 395>
VStem: 139 83<78 344 366 605 605 612> 527 97<482 540.5> 551 100<148.5 217.5>
AnchorPoint: "Anchor-5" 322 705 basechar 0
AnchorPoint: "Anchor-4" 322 0 basechar 0
LayerCount: 2
Fore
SplineSet
36 0 m 1xf4
 36 31 l 1
 60 31 l 2
 137 31 139 42 139 78 c 2
 139 605 l 2
 139 641 137 652 60 652 c 2
 36 652 l 1
 36 683 l 1
 402 683 l 2
 532 683 624 601 624 514 c 0xf8
 624 440 555 376 458 357 c 1
 569 345 651 270 651 183 c 0
 651 89 561 0 428 0 c 2
 36 0 l 1xf4
222 71 m 2
 222 38 224 31 271 31 c 2
 396 31 l 2
 499 31 551 113 551 184 c 0xf4
 551 251 509 344 410 344 c 2
 222 344 l 1
 222 71 l 2
222 366 m 1
 367 366 l 2
 478 366 527 450 527 514 c 0xf8
 527 567 492 652 395 652 c 2
 271 652 l 2
 224 652 222 645 222 612 c 2
 222 366 l 1
EndSplineSet
Substitution2: "'c2sc' +swC7OMeQxdDBHAAA +wYzWFbMAuzjHkLhc lookup 4 subtable" B.sc
EndChar

StartChar: C
Encoding: 67 67 36
Width: 722
GlyphClass: 2
Flags: MW
TeX: 688 0
HStem: -22 31<385.5 470.5 385.5 485.5> 674 31<384.5 452 310.5 469.5>
VStem: 56 103<238.5 444> 633 32 640 25<234 234>
AnchorPoint: "Anchor-5" 404 705 basechar 0
AnchorPoint: "Anchor-4" 404 0 basechar 0
LayerCount: 2
Fore
SplineSet
56 342 m 0xe8
 56 546 217 705 404 705 c 0
 500 705 551 655 588 619 c 1
 638 693 l 2
 646 705 650 705 654 705 c 0
 665 705 665 698 665 681 c 2xe8
 665 444 l 2
 665 423 665 420 649 420 c 0
 635 420 635 423 633 437 c 0xf0
 613 583 524 674 415 674 c 0
 354 674 159 640 159 341 c 0
 159 43 355 9 416 9 c 0
 525 9 632 91 640 234 c 0
 641 244 641 250 652 250 c 0
 665 250 665 243 665 233 c 0
 665 117 567 -22 404 -22 c 0
 218 -22 56 135 56 342 c 0xe8
EndSplineSet
Substitution2: "'c2sc' +swC7OMeQxdDBHAAA +wYzWFbMAuzjHkLhc lookup 4 subtable" C.sc
EndChar

StartChar: D
Encoding: 68 68 37
Width: 763
GlyphClass: 2
Flags: MW
TeX: 688 0
HStem: 0 31<35 59 35 59 59 97.5 273 374 374 401> 652 31<35 59 35 401 249.5 273 273 373>
VStem: 138 86<78 605 605 612> 607 100<280.5 375>
AnchorPoint: "Anchor-5" 349 705 basechar 0
AnchorPoint: "Anchor-4" 349 0 basechar 0
LayerCount: 2
Fore
SplineSet
35 0 m 1
 35 31 l 1
 59 31 l 2
 136 31 138 42 138 78 c 2
 138 605 l 2
 138 641 136 652 59 652 c 2
 35 652 l 1
 35 683 l 1
 401 683 l 2
 572 683 707 526 707 336 c 0
 707 148 569 0 401 0 c 2
 35 0 l 1
224 71 m 2
 224 38 226 31 273 31 c 2
 374 31 l 2
 475 31 532 89 552 116 c 0
 588 165 607 225 607 336 c 0
 607 414 598 500 555 559 c 0
 504 630 435 652 373 652 c 2
 273 652 l 2
 226 652 224 645 224 612 c 2
 224 71 l 2
EndSplineSet
Substitution2: "'c2sc' +swC7OMeQxdDBHAAA +wYzWFbMAuzjHkLhc lookup 4 subtable" D.sc
EndChar

StartChar: E
Encoding: 69 69 38
Width: 680
GlyphClass: 2
Flags: MW
TeX: 688 0
HStem: 0 31<33 57 33 57 57 95.5 274 407 407 493> 338 31<225 315 225 315> 649 31<33 57 33 596 250.5 274 274 403>
VStem: 136 89<78 338 369 602 602 609> 423 25<221 263.5 443 486>
AnchorPoint: "Anchor-5" 342 705 basechar 0
AnchorPoint: "Anchor-4" 342 0 basechar 0
AnchorPoint: "Anchor-1" 342 0 basechar 0
LayerCount: 2
Fore
SplineSet
33 0 m 1
 33 31 l 1
 57 31 l 2
 134 31 136 42 136 78 c 2
 136 602 l 2
 136 638 134 649 57 649 c 2
 33 649 l 1
 33 680 l 1
 596 680 l 1
 624 455 l 1
 599 455 l 1
 583 594 556 649 403 649 c 2
 274 649 l 2
 227 649 225 642 225 609 c 2
 225 369 l 1
 315 369 l 2
 412 369 423 400 423 486 c 1
 448 486 l 1
 448 221 l 1
 423 221 l 1
 423 306 412 338 315 338 c 2
 225 338 l 1
 225 71 l 2
 225 38 227 31 274 31 c 2
 407 31 l 2
 579 31 602 104 627 258 c 1
 652 258 l 1
 610 0 l 1
 33 0 l 1
EndSplineSet
Substitution2: "'c2sc' +swC7OMeQxdDBHAAA +wYzWFbMAuzjHkLhc lookup 4 subtable" E.sc
EndChar

StartChar: F
Encoding: 70 70 39
Width: 652
GlyphClass: 2
Flags: MW
TeX: 688 0
HStem: 0 31<33 57> 325 31<225 311 225 311> 649 31<33 57 33 582 250.5 274 274 394>
VStem: 136 89<78 79 79 325 356 602 602 609> 417 25<208 250.5 431 473>
AnchorPoint: "Anchor-5" 322 705 basechar 0
AnchorPoint: "Anchor-4" 322 0 basechar 0
LayerCount: 2
Fore
SplineSet
33 0 m 1
 33 31 l 1
 57 31 l 2
 134 31 136 42 136 78 c 2
 136 602 l 2
 136 638 134 649 57 649 c 2
 33 649 l 1
 33 680 l 1
 582 680 l 1
 610 455 l 1
 585 455 l 1
 569 593 544 649 394 649 c 2
 274 649 l 2
 227 649 225 642 225 609 c 2
 225 356 l 1
 311 356 l 2
 407 356 417 389 417 473 c 1
 442 473 l 1
 442 208 l 1
 417 208 l 1
 417 293 407 325 311 325 c 2
 225 325 l 1
 225 79 l 2
 225 44 225 31 320 31 c 2
 353 31 l 1
 353 0 l 1
 317 3 226 3 185 3 c 0
 146 3 68 3 33 0 c 1
EndSplineSet
Substitution2: "'c2sc' +swC7OMeQxdDBHAAA +wYzWFbMAuzjHkLhc lookup 4 subtable" F.sc
EndChar

StartChar: G
Encoding: 71 71 40
Width: 784
GlyphClass: 2
Flags: MW
TeX: 688 0
HStem: -22 31<389.5 436 389.5 442.5> 1 21G<651.5 661.5> 242 31<452 484 452 452> 674 31<386 453.5 311 469.5>
VStem: 56 103<239.5 444.5> 577 89<130 194 194 198> 634 32
AnchorPoint: "Anchor-5" 403 705 basechar 0
AnchorPoint: "Anchor-4" 406 0 basechar 0
LayerCount: 2
Fore
SplineSet
56 342 m 0xba
 56 547 218 705 404 705 c 0
 503 705 557 651 589 619 c 1
 639 693 l 2
 647 705 651 705 655 705 c 0
 666 705 666 698 666 681 c 2
 666 444 l 2
 666 423 666 420 650 420 c 0
 636 420 636 423 634 437 c 0xba
 614 584 523 674 416 674 c 0
 356 674 159 641 159 342 c 0
 159 44 357 9 422 9 c 0
 450 9 577 18 577 130 c 2
 577 194 l 2
 577 231 574 242 484 242 c 2
 452 242 l 1
 452 273 l 1
 488 270 573 270 613 270 c 0
 643 270 698 272 735 273 c 1
 735 242 l 1
 670 242 666 237 666 198 c 2xbc
 666 24 l 2
 666 9 666 1 657 1 c 0x7a
 646 1 606 41 593 63 c 1
 559 4 479 -22 406 -22 c 0
 216 -22 56 137 56 342 c 0xba
EndSplineSet
Substitution2: "'c2sc' +swC7OMeQxdDBHAAA +wYzWFbMAuzjHkLhc lookup 4 subtable" G.sc
EndChar

StartChar: H
Encoding: 72 72 41
Width: 750
GlyphClass: 2
Flags: MW
TeX: 688 0
HStem: 0 31<33 57> 340 31<225 524 225 524> 652 31<33 57 33 33>
VStem: 136 89<78 340 371 605> 524 89<78 340 340 340 371 605>
AnchorPoint: "Anchor-5" 374 705 basechar 0
AnchorPoint: "Anchor-4" 374 0 basechar 0
LayerCount: 2
Fore
SplineSet
33 0 m 1
 33 31 l 1
 57 31 l 2
 134 31 136 42 136 78 c 2
 136 605 l 2
 136 641 134 652 57 652 c 2
 33 652 l 1
 33 683 l 1
 68 680 143 680 181 680 c 0
 219 680 293 680 328 683 c 1
 328 652 l 1
 304 652 l 2
 227 652 225 641 225 605 c 2
 225 371 l 1
 524 371 l 1
 524 605 l 2
 524 641 522 652 445 652 c 2
 421 652 l 1
 421 683 l 1
 456 680 531 680 569 680 c 0
 607 680 681 680 716 683 c 1
 716 652 l 1
 692 652 l 2
 615 652 613 641 613 605 c 2
 613 78 l 2
 613 42 615 31 692 31 c 2
 716 31 l 1
 716 0 l 1
 681 3 606 3 568 3 c 0
 530 3 456 3 421 0 c 1
 421 31 l 1
 445 31 l 2
 522 31 524 42 524 78 c 2
 524 340 l 1
 225 340 l 1
 225 78 l 2
 225 42 227 31 304 31 c 2
 328 31 l 1
 328 0 l 1
 293 3 218 3 180 3 c 0
 142 3 68 3 33 0 c 1
EndSplineSet
Substitution2: "'c2sc' +swC7OMeQxdDBHAAA +wYzWFbMAuzjHkLhc lookup 4 subtable" H.sc
EndChar

StartChar: I
Encoding: 73 73 42
Width: 361
GlyphClass: 2
Flags: MW
TeX: 688 0
HStem: 0 31<28 54> 652 31<28 54 28 28>
VStem: 136 89<78 605>
AnchorPoint: "Anchor-5" 180 705 basechar 0
AnchorPoint: "Anchor-4" 180 0 basechar 0
AnchorPoint: "Anchor-1" 180 0 basechar 0
LayerCount: 2
Fore
SplineSet
28 0 m 1
 28 31 l 1
 54 31 l 2
 133 31 136 42 136 78 c 2
 136 605 l 2
 136 641 133 652 54 652 c 2
 28 652 l 1
 28 683 l 1
 63 680 142 680 181 680 c 0
 219 680 298 680 333 683 c 1
 333 652 l 1
 307 652 l 2
 228 652 225 641 225 605 c 2
 225 78 l 2
 225 42 228 31 307 31 c 2
 333 31 l 1
 333 0 l 1
 298 3 219 3 180 3 c 0
 142 3 63 3 28 0 c 1
EndSplineSet
EndChar

StartChar: J
Encoding: 74 74 43
Width: 513
GlyphClass: 2
Flags: MW
TeX: 688 0
HStem: -22 22<196 225.5 196 252> 58 112<89 111 86 115> 652 31<168 204 168 168>
VStem: 41 112<101 132 101 134> 302 86<150 167 167 604 604 611>
AnchorPoint: "Anchor-5" 345 705 basechar 0
AnchorPoint: "Anchor-4" 253 0 basechar 0
LayerCount: 2
Fore
SplineSet
41 112 m 0
 41 156 75 170 97 170 c 0
 125 170 153 150 153 114 c 0
 153 88 141 58 89 58 c 1
 125 0 193 0 199 0 c 0
 252 0 302 56 302 148 c 2
 302 604 l 2
 302 639 302 652 204 652 c 2
 168 652 l 1
 168 683 l 1
 206 680 294 680 336 680 c 0
 383 680 421 681 465 683 c 1
 465 652 l 1
 402 652 388 652 388 611 c 2
 388 167 l 2
 388 133 388 131 387 123 c 0
 376 48 303 -22 201 -22 c 0
 112 -22 41 38 41 112 c 0
EndSplineSet
EndChar

StartChar: K
Encoding: 75 75 44
Width: 777
GlyphClass: 2
Flags: MW
TeX: 688 0
HStem: 0 31<33 57> 652 31<33 57 33 33>
VStem: 136 89<78 253 287 605>
AnchorPoint: "Anchor-5" 384 705 basechar 0
AnchorPoint: "Anchor-4" 384 0 basechar 0
LayerCount: 2
Fore
SplineSet
33 0 m 1
 33 31 l 1
 57 31 l 2
 134 31 136 42 136 78 c 2
 136 605 l 2
 136 641 134 652 57 652 c 2
 33 652 l 1
 33 683 l 1
 68 680 143 680 181 680 c 0
 219 680 293 680 328 683 c 1
 328 652 l 1
 304 652 l 2
 227 652 225 641 225 605 c 2
 225 287 l 1
 538 586 l 2
 546 593 556 603 556 619 c 0
 556 628 550 651 510 652 c 1
 510 683 l 1
 544 680 601 680 637 680 c 0
 664 680 696 680 722 683 c 1
 722 652 l 1
 641 651 588 600 580 592 c 2
 400 419 l 1
 631 79 l 2
 661 35 682 31 736 31 c 1
 736 0 l 1
 694 2 656 3 621 3 c 0
 583 3 513 3 478 0 c 1
 478 31 l 1
 498 31 537 31 537 61 c 0
 537 73 528 86 522 95 c 2
 341 363 l 1
 225 253 l 1
 225 78 l 2
 225 42 227 31 304 31 c 2
 328 31 l 1
 328 0 l 1
 293 3 218 3 180 3 c 0
 142 3 68 3 33 0 c 1
EndSplineSet
Substitution2: "'c2sc' +swC7OMeQxdDBHAAA +wYzWFbMAuzjHkLhc lookup 4 subtable" K.sc
EndChar

StartChar: L
Encoding: 76 76 45
Width: 625
GlyphClass: 2
Flags: MW
TeX: 688 0
HStem: 0 31<33 57 33 57 57 95.5 274 356 356 444> 652 31<33 57 33 33>
VStem: 136 89<78 604>
AnchorPoint: "Anchor-5" 308 705 basechar 0
AnchorPoint: "Anchor-4" 308 0 basechar 0
LayerCount: 2
Fore
SplineSet
33 0 m 1
 33 31 l 1
 57 31 l 2
 134 31 136 42 136 78 c 2
 136 605 l 2
 136 641 134 652 57 652 c 2
 33 652 l 1
 33 683 l 1
 68 680 146 680 185 680 c 0
 226 680 317 680 353 683 c 1
 353 652 l 1
 320 652 l 2
 225 652 225 638 225 604 c 2
 225 71 l 2
 225 38 227 31 274 31 c 2
 356 31 l 2
 532 31 546 156 557 258 c 1
 582 258 l 1
 554 0 l 1
 33 0 l 1
EndSplineSet
Substitution2: "'c2sc' +swC7OMeQxdDBHAAA +wYzWFbMAuzjHkLhc lookup 4 subtable" L.sc
EndChar

StartChar: M
Encoding: 77 77 46
Width: 916
GlyphClass: 2
Flags: MW
TeX: 688 0
HStem: 0 31<37 88.5> 652 31<37 61 37 206 816.5 855 855 879>
VStem: 140 28<105 605 605 623> 695 81<78 605>
AnchorPoint: "Anchor-5" 458 705 basechar 0
AnchorPoint: "Anchor-4" 458 0 basechar 0
LayerCount: 2
Fore
SplineSet
37 0 m 1
 37 31 l 1
 140 31 140 78 140 105 c 2
 140 605 l 2
 140 641 138 652 61 652 c 2
 37 652 l 1
 37 683 l 1
 206 683 l 2
 229 683 232 683 241 661 c 2
 458 101 l 1
 677 664 l 2
 684 682 684 683 710 683 c 2
 879 683 l 1
 879 652 l 1
 855 652 l 2
 778 652 776 641 776 605 c 2
 776 78 l 2
 776 42 778 31 855 31 c 2
 879 31 l 1
 879 0 l 1
 842 3 775 3 736 3 c 0
 697 3 629 3 592 0 c 1
 592 31 l 1
 616 31 l 2
 693 31 695 42 695 78 c 2
 695 652 l 1
 694 652 l 1
 448 19 l 2
 444 8 441 0 430 0 c 0
 420 0 415 9 410 22 c 2
 169 644 l 1
 168 644 l 1
 168 105 l 2
 168 78 168 31 271 31 c 1
 271 0 l 1
 236 1 187 3 154 3 c 0
 121 3 72 1 37 0 c 1
EndSplineSet
Substitution2: "'c2sc' +swC7OMeQxdDBHAAA +wYzWFbMAuzjHkLhc lookup 4 subtable" M.sc
EndChar

StartChar: N
Encoding: 78 78 47
Width: 750
GlyphClass: 2
Flags: MW
TeX: 688 0
HStem: 0 31<33 84.5> 652 31<33 62 33 203>
VStem: 136 28<105 625> 585 28<151 578>
AnchorPoint: "Anchor-5" 374 705 basechar 0
AnchorPoint: "Anchor-4" 374 0 basechar 0
LayerCount: 2
Fore
SplineSet
33 0 m 1
 33 31 l 1
 136 31 136 78 136 105 c 2
 136 627 l 2
 136 646 135 647 112 650 c 0
 97 651 77 652 62 652 c 2
 33 652 l 1
 33 683 l 1
 203 683 l 2
 222 683 223 682 232 670 c 2
 585 151 l 1
 585 578 l 2
 585 605 585 652 482 652 c 1
 482 683 l 1
 517 682 566 680 599 680 c 0
 632 680 681 682 716 683 c 1
 716 652 l 1
 613 652 613 605 613 578 c 2
 613 26 l 2
 613 7 613 0 599 0 c 0
 592 0 591 1 582 13 c 2
 174 613 l 2
 170 619 169 620 164 625 c 1
 164 105 l 2
 164 78 164 31 267 31 c 1
 267 0 l 1
 232 1 183 3 150 3 c 0
 117 3 68 1 33 0 c 1
EndSplineSet
Substitution2: "'c2sc' +swC7OMeQxdDBHAAA +wYzWFbMAuzjHkLhc lookup 4 subtable" N.sc
EndChar

StartChar: O
Encoding: 79 79 48
Width: 777
GlyphClass: 2
Flags: MW
TeX: 688 0
HStem: -22 26<341 435 341 479> 680 25<346.5 431.5>
VStem: 56 103<236.5 442> 618 103<238 441 238 481>
AnchorPoint: "Anchor-5" 388 705 basechar 0
AnchorPoint: "Anchor-4" 388 0 basechar 0
AnchorPoint: "Anchor-1" 388 0 basechar 0
LayerCount: 2
Fore
SplineSet
56 339 m 0
 56 545 209 705 388 705 c 0
 570 705 721 543 721 339 c 0
 721 137 570 -22 388 -22 c 0
 210 -22 56 134 56 339 c 0
159 353 m 0
 159 92 293 4 389 4 c 0
 481 4 618 88 618 353 c 0
 618 609 475 680 388 680 c 0
 305 680 159 612 159 353 c 0
EndSplineSet
Substitution2: "'c2sc' +swC7OMeQxdDBHAAA +wYzWFbMAuzjHkLhc lookup 4 subtable" O.sc
EndChar

StartChar: P
Encoding: 80 80 49
Width: 680
GlyphClass: 2
Flags: MW
TeX: 688 0
HStem: 0 31<35 59> 316 26<227 362 362 396 227 227> 652 31<35 59 35 388 249.5 273 273 362>
VStem: 138 86<342 342 342 605 605 612> 521 103<473.5 521.5>
AnchorPoint: "Anchor-5" 308 705 basechar 0
AnchorPoint: "Anchor-4" 308 0 basechar 0
LayerCount: 2
Fore
SplineSet
35 0 m 1
 35 31 l 1
 59 31 l 2
 136 31 138 42 138 78 c 2
 138 605 l 2
 138 641 136 652 59 652 c 2
 35 652 l 1
 35 683 l 1
 388 683 l 2
 525 683 624 595 624 497 c 0
 624 397 516 316 396 316 c 2
 227 316 l 1
 227 78 l 2
 227 42 229 31 306 31 c 2
 330 31 l 1
 330 0 l 1
 295 3 220 3 182 3 c 0
 144 3 70 3 35 0 c 1
224 342 m 1
 362 342 l 2
 521 342 521 450 521 497 c 0
 521 546 521 652 362 652 c 2
 273 652 l 2
 226 652 224 645 224 612 c 2
 224 342 l 1
EndSplineSet
Substitution2: "'c2sc' +swC7OMeQxdDBHAAA +wYzWFbMAuzjHkLhc lookup 4 subtable" P.sc
EndChar

StartChar: Q
Encoding: 81 81 50
Width: 777
GlyphClass: 2
Flags: MW
TeX: 688 194
HStem: -194 103<590.5 635.5 590.5 657> -22 25<363.5 400 363.5 404.5> 126 22<370.5 417> 680 25<342 436.5>
VStem: 56 100<238 442> 308 22<56.5 78.5 56.5 84.5> 621 100<300 441 263.5 466.5> 705 22
AnchorPoint: "Anchor-5" 388 705 basechar 0
AnchorPoint: "Anchor-4" 388 -194 basechar 0
LayerCount: 2
Fore
SplineSet
56 339 m 0xfd
 56 545 209 705 388 705 c 0
 570 705 721 543 721 339 c 0xfe
 721 188 636 60 518 7 c 1
 542 -57 567 -91 614 -91 c 0
 657 -91 699 -61 705 -7 c 0
 706 3 707 11 716 11 c 0
 727 11 727 0 727 -10 c 0
 727 -61 708 -194 606 -194 c 0
 513 -194 499 -102 484 -7 c 1
 455 -16 420 -22 389 -22 c 0
 207 -22 56 137 56 339 c 0xfd
156 339 m 0
 156 109 268 36 322 16 c 1
 321 18 308 37 308 64 c 0
 308 105 339 148 390 148 c 0
 449 148 481 98 503 42 c 1
 609 120 621 261 621 339 c 0
 621 594 485 680 388 680 c 0
 296 680 156 599 156 339 c 0
330 64 m 0
 330 49 338 3 389 3 c 0
 411 3 443 7 477 26 c 1
 466 84 444 126 390 126 c 0
 351 126 330 93 330 64 c 0
EndSplineSet
Substitution2: "'c2sc' +swC7OMeQxdDBHAAA +wYzWFbMAuzjHkLhc lookup 4 subtable" Q.sc
EndChar

StartChar: R
Encoding: 82 82 51
Width: 736
GlyphClass: 2
Flags: MW
TeX: 688 0
HStem: -22 22<622 653.5> 0 31<35 59> 331 22<224 335 335 339 224 335> 652 31<35 59 35 349 295 349 349 350>
VStem: 138 86<78 331 353 605 605 612> 507 103<468.5 551 464 575.5> 707 25<89 89>
AnchorPoint: "Anchor-5" 308 705 basechar 0
AnchorPoint: "Anchor-4" 308 0 basechar 0
LayerCount: 2
Fore
SplineSet
35 0 m 1x7e
 35 31 l 1
 59 31 l 2x7e
 136 31 138 42 138 78 c 2
 138 605 l 2
 138 641 136 652 59 652 c 2
 35 652 l 1
 35 683 l 1
 349 683 l 2
 496 683 610 599 610 503 c 0
 610 425 532 364 435 340 c 1
 490 321 539 288 557 224 c 1
 570 144 l 2
 584 51 592 0 641 0 c 0
 666 0 701 18 707 89 c 0
 708 96 708 105 719 105 c 0
 732 105 732 94 732 88 c 0
 732 60 715 -22 637 -22 c 0xbe
 607 -22 552 -16 511 20 c 0
 470 58 470 98 470 163 c 0
 470 230 470 261 432 297 c 0
 397 331 355 331 339 331 c 2
 224 331 l 1
 224 78 l 2
 224 42 226 31 303 31 c 2
 327 31 l 1
 327 0 l 1
 291 3 220 3 181 3 c 0
 142 3 71 3 35 0 c 1x7e
224 353 m 1
 335 353 l 2
 483 353 507 434 507 503 c 0
 507 648 395 652 305 652 c 0
 285 652 256 652 246 650 c 0
 224 647 224 635 224 612 c 2
 224 353 l 1
EndSplineSet
Substitution2: "'c2sc' +swC7OMeQxdDBHAAA +wYzWFbMAuzjHkLhc lookup 4 subtable" R.sc
EndChar

StartChar: S
Encoding: 83 83 52
Width: 555
GlyphClass: 2
Flags: MW
TeX: 688 0
HStem: -22 31<286.5 343 286.5 360.5> 677 28<213 295.5 195.5 335.5>
VStem: 56 26<-9 202> 56 64<517 564> 435 64<131 168.5> 447 25
AnchorPoint: "Anchor-5" 251 705 basechar 0
AnchorPoint: "Anchor-4" 302 0 basechar 0
LayerCount: 2
Fore
SplineSet
56 2 m 2xe8
 56 202 l 2
 56 220 56 227 69 227 c 0
 72 227 80 227 81 217 c 0
 82 181 85 117 143 63 c 0
 196 14 272 9 301 9 c 0
 385 9 435 81 435 152 c 0xe8
 435 185 425 218 404 244 c 0
 376 281 346 288 319 295 c 0
 249 312 198 324 187 328 c 0
 109 355 56 428 56 511 c 0
 56 617 140 705 251 705 c 0
 340 705 381 664 411 635 c 1
 446 692 l 2
 453 704 454 705 461 705 c 0
 472 705 472 698 472 681 c 2
 472 480 l 2
 472 461 472 456 459 456 c 0
 448 456 448 462 447 468 c 0
 441 513 419 677 252 677 c 0
 174 677 120 616 120 546 c 0xd4
 120 488 159 434 221 419 c 2
 349 388 l 2
 433 368 499 286 499 186 c 0
 499 76 419 -22 302 -22 c 0
 213 -22 149 14 118 48 c 1
 85 -5 82 -8 82 -9 c 0
 75 -20 74 -22 67 -22 c 0
 56 -22 56 -15 56 2 c 2xe8
EndSplineSet
Substitution2: "'c2sc' +swC7OMeQxdDBHAAA +wYzWFbMAuzjHkLhc lookup 4 subtable" S.sc
EndChar

StartChar: T
Encoding: 84 84 53
Width: 722
GlyphClass: 2
Flags: MW
TeX: 688 0
HStem: 0 31<171 211> 646 31<165.5 250 470.5 555.5>
VStem: 36 25<452 452> 316 89<79 606> 660 25<452 452>
CounterMasks: 1 38
AnchorPoint: "Anchor-5" 360 705 basechar 0
AnchorPoint: "Anchor-4" 360 0 basechar 0
LayerCount: 2
Fore
SplineSet
36 452 m 1
 55 677 l 1
 666 677 l 1
 685 452 l 1
 660 452 l 1
 646 613 631 646 480 646 c 0
 461 646 434 646 423 644 c 0
 405 640 405 626 405 606 c 2
 405 79 l 2
 405 45 405 31 510 31 c 2
 550 31 l 1
 550 0 l 1
 509 3 406 3 360 3 c 0
 314 3 212 3 171 0 c 1
 171 31 l 1
 211 31 l 2
 316 31 316 45 316 79 c 2
 316 606 l 2
 316 629 316 640 295 644 c 0
 285 646 259 646 241 646 c 0
 90 646 75 613 61 452 c 1
 36 452 l 1
EndSplineSet
Substitution2: "'c2sc' +swC7OMeQxdDBHAAA +wYzWFbMAuzjHkLhc lookup 4 subtable" T.sc
EndChar

StartChar: U
Encoding: 85 85 54
Width: 750
GlyphClass: 2
Flags: MW
TeX: 688 0
HStem: -22 31<366.5 437.5 366.5 445.5> 652 31<33 33 33 57>
VStem: 136 89<228 605> 582 31<234 254 254 574>
AnchorPoint: "Anchor-5" 374 705 basechar 0
AnchorPoint: "Anchor-4" 388 0 basechar 0
AnchorPoint: "Anchor-1" 388 0 basechar 0
LayerCount: 2
Fore
SplineSet
33 652 m 1
 33 683 l 1
 68 680 143 680 181 680 c 0
 219 680 293 680 328 683 c 1
 328 652 l 1
 304 652 l 2
 227 652 225 641 225 605 c 2
 225 224 l 2
 225 34 343 9 390 9 c 0
 485 9 582 89 582 231 c 2
 582 578 l 2
 582 605 582 652 479 652 c 1
 479 683 l 1
 515 682 563 680 598 680 c 0
 632 680 680 682 716 683 c 1
 716 652 l 1
 613 652 613 607 613 574 c 2
 613 254 l 2
 613 214 613 205 610 185 c 0
 593 71 503 -22 388 -22 c 0
 252 -22 136 87 136 228 c 2
 136 605 l 2
 136 641 134 652 57 652 c 2
 33 652 l 1
EndSplineSet
Substitution2: "'c2sc' +swC7OMeQxdDBHAAA +wYzWFbMAuzjHkLhc lookup 4 subtable" U.sc
EndChar

StartChar: V
Encoding: 86 86 55
Width: 750
GlyphClass: 2
Flags: MW
TeX: 688 0
ItalicCorrection: 13
HStem: -22 21G<367.5 382.5> 652 31<19 51.5>
AnchorPoint: "Anchor-5" 374 705 basechar 0
AnchorPoint: "Anchor-4" 374 0 basechar 0
LayerCount: 2
Fore
SplineSet
19 652 m 1
 19 683 l 1
 55 682 98 680 146 680 c 0
 184 680 253 680 289 683 c 1
 289 652 l 1
 264 652 207 652 207 623 c 0
 207 621 207 619 213 605 c 2
 404 100 l 1
 587 582 l 2
 589 588 592 594 592 602 c 0
 592 625 571 651 519 652 c 1
 519 683 l 1
 545 682 603 680 633 680 c 0
 659 680 699 681 730 683 c 1
 730 652 l 1
 662 651 635 622 621 585 c 2
 398 -3 l 2
 393 -17 391 -22 374 -22 c 0
 361 -22 356 -19 349 0 c 2
 117 614 l 2
 103 652 84 652 19 652 c 1
EndSplineSet
Substitution2: "'c2sc' +swC7OMeQxdDBHAAA +wYzWFbMAuzjHkLhc lookup 4 subtable" V.sc
EndChar

StartChar: W
Encoding: 87 87 56
Width: 1027
GlyphClass: 2
Flags: MW
TeX: 688 0
ItalicCorrection: 13
HStem: -22 21G<321.5 335 691.5 705> 652 31<18 55.5>
AnchorPoint: "Anchor-5" 512 705 basechar 0
AnchorPoint: "Anchor-4" 512 0 basechar 0
LayerCount: 2
Fore
SplineSet
18 652 m 1
 18 683 l 1
 59 682 102 680 140 680 c 0
 178 680 246 680 282 683 c 1
 282 652 l 1
 256 652 198 652 198 622 c 0
 198 619 199 612 200 609 c 2
 361 117 l 1
 500 546 l 1
 478 616 l 2
 466 652 445 652 388 652 c 1
 388 683 l 1
 429 682 472 680 510 680 c 0
 548 680 616 680 652 683 c 1
 652 652 l 1
 626 652 568 652 568 622 c 0
 568 617 570 611 571 607 c 2
 731 117 l 1
 881 579 l 2
 883 585 886 593 886 599 c 0
 886 618 866 651 799 652 c 1
 799 683 l 1
 825 682 889 680 918 680 c 0
 948 680 979 681 1009 683 c 1
 1009 652 l 1
 970 652 927 642 909 585 c 2
 718 -2 l 2
 714 -15 712 -22 698 -22 c 0
 685 -22 682 -12 679 -3 c 2
 513 506 l 1
 348 -2 l 2
 344 -15 342 -22 328 -22 c 0
 315 -22 312 -12 309 -3 c 2
 109 610 l 2
 97 647 93 652 18 652 c 1
EndSplineSet
Substitution2: "'c2sc' +swC7OMeQxdDBHAAA +wYzWFbMAuzjHkLhc lookup 4 subtable" W.sc
EndChar

StartChar: X
Encoding: 88 88 57
Width: 750
GlyphClass: 2
Flags: MW
TeX: 688 0
HStem: 0 31<24 74.5> 652 31<37 56 37 37>
AnchorPoint: "Anchor-5" 375 705 basechar 0
AnchorPoint: "Anchor-4" 375 0 basechar 0
LayerCount: 2
Fore
SplineSet
24 0 m 1
 24 31 l 1
 125 31 155 77 169 97 c 2
 333 339 l 1
 149 617 l 2
 130 645 111 652 56 652 c 2
 37 652 l 1
 37 683 l 1
 74 681 136 680 167 680 c 0
 205 680 278 680 313 683 c 1
 313 652 l 1
 270 651 248 634 248 622 c 0
 248 618 253 610 255 607 c 2
 384 414 l 1
 498 583 l 2
 505 594 507 596 507 606 c 0
 507 629 485 651 445 652 c 1
 445 683 l 1
 485 680 533 680 573 680 c 0
 598 680 645 682 684 683 c 1
 684 652 l 1
 595 651 561 619 539 587 c 2
 402 386 l 1
 613 67 l 2
 634 36 655 31 707 31 c 2
 726 31 l 1
 726 0 l 1
 684 2 638 3 596 3 c 0
 558 3 485 3 450 0 c 1
 450 31 l 1
 493 32 515 49 515 61 c 0
 515 64 512 68 510 72 c 2
 352 311 l 1
 210 101 l 2
 203 90 200 86 200 77 c 0
 200 59 217 32 263 31 c 1
 263 0 l 1
 227 3 172 3 135 3 c 0
 102 3 60 1 24 0 c 1
EndSplineSet
Substitution2: "'c2sc' +swC7OMeQxdDBHAAA +wYzWFbMAuzjHkLhc lookup 4 subtable" X.sc
EndChar

StartChar: Y
Encoding: 89 89 58
Width: 750
GlyphClass: 2
Flags: MW
TeX: 688 0
ItalicCorrection: 24
HStem: 0 31<228 252> 652 31<11 11 11 29>
VStem: 331 86<78 80 80 273>
AnchorPoint: "Anchor-5" 374 705 basechar 0
AnchorPoint: "Anchor-4" 374 0 basechar 0
LayerCount: 2
Fore
SplineSet
11 652 m 1
 11 683 l 1
 53 681 99 680 141 680 c 0
 180 680 253 680 289 683 c 1
 289 652 l 1
 244 652 219 648 219 627 c 0
 219 622 219 620 226 610 c 2
 407 315 l 1
 572 583 l 2
 576 589 582 602 582 613 c 0
 582 633 566 652 525 652 c 1
 525 683 l 1
 551 682 609 680 640 680 c 0
 667 680 707 681 738 683 c 1
 738 652 l 1
 706 652 647 648 610 587 c 2
 417 273 l 1
 417 80 l 2
 417 41 420 31 497 31 c 2
 520 31 l 1
 520 0 l 1
 484 3 413 3 374 3 c 0
 335 3 264 3 228 0 c 1
 228 31 l 1
 252 31 l 2
 329 31 331 42 331 78 c 2
 331 273 l 1
 121 615 l 2
 105 641 97 652 29 652 c 2
 11 652 l 1
EndSplineSet
Substitution2: "'c2sc' +swC7OMeQxdDBHAAA +wYzWFbMAuzjHkLhc lookup 4 subtable" Y.sc
EndChar

StartChar: Z
Encoding: 90 90 59
Width: 611
GlyphClass: 2
Flags: MW
TeX: 688 0
HStem: 0 34<159 323 323 415.5> 652 31<213 295 295 452>
VStem: 69 25<458 458> 535 25<267 267>
AnchorPoint: "Anchor-5" 308 705 basechar 0
AnchorPoint: "Anchor-4" 308 0 basechar 0
LayerCount: 2
Fore
SplineSet
56 17 m 0
 56 25 56 26 63 37 c 2
 452 652 l 1
 295 652 l 2
 131 652 101 571 94 458 c 1
 69 458 l 1
 80 683 l 1
 528 683 l 2
 548 683 554 683 554 667 c 0
 554 660 554 659 547 648 c 2
 159 34 l 1
 323 34 l 2
 508 34 527 128 535 267 c 1
 560 267 l 1
 543 0 l 1
 82 0 l 2
 61 0 56 0 56 17 c 0
EndSplineSet
Substitution2: "'c2sc' +swC7OMeQxdDBHAAA +wYzWFbMAuzjHkLhc lookup 4 subtable" Z.sc
EndChar

StartChar: bracketleft
Encoding: 91 91 60
Width: 278
GlyphClass: 2
Flags: MW
TeX: 749 249
HStem: -250 23<171 255 171 255> 727 23<171 255 171 171>
VStem: 104 67<-227 727 -227 750 -227 750>
LayerCount: 2
Fore
SplineSet
104 -250 m 1
 104 750 l 1
 255 750 l 1
 255 727 l 1
 171 727 l 1
 171 -227 l 1
 255 -227 l 1
 255 -250 l 1
 104 -250 l 1
EndSplineSet
EndChar

StartChar: backslash
Encoding: 92 92 61
Width: 500
GlyphClass: 2
Flags: W
TeX: 749 249
LayerCount: 2
Fore
SplineSet
57 736 m 0
 57 743 60 748 66 748 c 0
 76 748 81 732 83 727 c 2
 437 -218 l 2
 439 -224 442 -231 442 -236 c 0
 442 -243 438 -248 432 -248 c 0
 422 -248 417 -230 415 -225 c 2
 61 721 l 2
 57 731 57 733 57 736 c 0
EndSplineSet
EndChar

StartChar: bracketright
Encoding: 93 93 62
Width: 278
GlyphClass: 2
Flags: MW
TeX: 749 249
HStem: -250 23<21 105 21 172 21 105> 727 23<21 105 21 172>
VStem: 105 67<-227 727 727 727>
LayerCount: 2
Fore
SplineSet
21 -227 m 1
 105 -227 l 1
 105 727 l 1
 21 727 l 1
 21 750 l 1
 172 750 l 1
 172 -250 l 1
 21 -250 l 1
 21 -227 l 1
EndSplineSet
EndChar

StartChar: asciicircum
Encoding: 94 94 63
Width: 611
GlyphClass: 2
Flags: MW
TeX: 688 0
HStem: 463 165
LayerCount: 2
Fore
SplineSet
117 484 m 1
 304 628 l 1
 492 484 l 1
 477 463 l 1
 304 575 l 1
 132 463 l 1
 117 484 l 1
EndSplineSet
EndChar

StartChar: underscore
Encoding: 95 95 64
Width: 778
GlyphClass: 2
Flags: MW
TeX: 0 232
HStem: -233 40<101 662 114 662 662 664>
LayerCount: 2
Fore
SplineSet
84 -213 m 0
 84 -197 98 -193 114 -193 c 2
 662 -193 l 2
 676 -193 692 -196 692 -213 c 0
 692 -231 675 -233 664 -233 c 2
 113 -233 l 2
 89 -233 84 -221 84 -213 c 0
EndSplineSet
EndChar

StartChar: grave
Encoding: 96 96 65
Width: 500
GlyphClass: 2
Flags: MW
TeX: 641 0
HStem: 490 152<124.5 270>
VStem: 100 185<510 613>
LayerCount: 2
Fore
SplineSet
100 605 m 0
 100 621 114 642 135 642 c 0
 154 642 157 635 285 510 c 1
 270 490 l 1
 256 497 243 504 136 565 c 0
 127 570 100 581 100 605 c 0
EndSplineSet
EndChar

StartChar: a
Encoding: 97 97 66
Width: 500
GlyphClass: 2
Flags: MW
TeX: 430 0
HStem: -11 22<184.5 231.5 184.5 235> -6 31<415.5 421.5> 240 21<326 326> 288 92 426 22<204 244.5>
VStem: 42 77<71 117> 71 92<321 340 321 368> 326 69<140 240 240 240 261 275> 468 25<89 145>
AnchorPoint: "Anchor-5" 222 448 basechar 0
AnchorPoint: "Anchor-4" 222 0 basechar 0
AnchorPoint: "Anchor-3" 500 694 basechar 0
AnchorPoint: "Anchor-2" 500 -194 basechar 0
AnchorPoint: "Anchor-1" 362 0 basechar 0
LayerCount: 2
Fore
SplineSet
42 95 m 0xbd80
 42 139 67 191 142 225 c 0
 205 255 275 258 326 261 c 1
 326 298 l 2
 326 387 269 426 220 426 c 0
 188 426 139 415 112 380 c 1
 158 379 163 346 163 334 c 0
 163 308 145 288 117 288 c 0
 91 288 71 305 71 335 c 0
 71 401 140 448 222 448 c 0
 270 448 320 432 359 393 c 0
 395 356 395 317 395 275 c 2
 395 75 l 2
 395 70 399 25 432 25 c 0
 443 25 468 31 468 89 c 2
 468 145 l 1
 493 145 l 1
 493 89 l 2
 493 8 432 -6 411 -6 c 0x7b80
 364 -6 337 36 333 76 c 1
 314 29 268 -11 202 -11 c 0
 139 -11 42 14 42 95 c 0xbd80
119 96 m 0xbd80
 119 46 160 11 209 11 c 0
 254 11 326 45 326 140 c 2
 326 240 l 1
 161 234 119 151 119 96 c 0xbd80
EndSplineSet
Substitution2: "'smcp' +wYy7OMeQxdDBHAAA +wYzWFQAA +swC7OMeQuFwA lookup 3 subtable" A.sc
EndChar

StartChar: b
Encoding: 98 98 67
Width: 555
GlyphClass: 2
Flags: MW
TeX: 688 0
HStem: -11 22<271.5 321 271.5 357.5> 0 21G<106 131 106 106> 420 22<292 326.5> 652 31<28 63> 674 20G<172 172>
VStem: 106 66<377 596 596 620.5> 438 83<198.5 237.5>
AnchorPoint: "Anchor-5" 313 694 basechar 0
AnchorPoint: "Anchor-4" 313 0 basechar 0
AnchorPoint: "Anchor-3" 555 694 basechar 0
AnchorPoint: "Anchor-2" 555 -194 basechar 0
LayerCount: 2
Fore
SplineSet
28 652 m 1x76
 28 683 l 1x76
 172 694 l 1
 172 377 l 1
 188 395 231 442 309 442 c 0
 423 442 521 343 521 216 c 0
 521 87 417 -11 298 -11 c 0xae
 224 -11 182 39 167 62 c 1
 140 15 132 1 131 0 c 2
 106 0 l 1
 106 596 l 2
 106 645 98 652 28 652 c 1x76
175 114 m 2
 175 96 175 93 189 72 c 0
 213 35 249 11 294 11 c 0xa6
 348 11 386 44 407 75 c 0
 436 120 438 180 438 217 c 0
 438 258 435 315 409 356 c 0
 385 394 349 420 304 420 c 0
 280 420 225 412 186 356 c 0
 175 340 175 339 175 320 c 2
 175 114 l 2
EndSplineSet
Substitution2: "'smcp' +wYy7OMeQxdDBHAAA +wYzWFQAA +swC7OMeQuFwA lookup 3 subtable" B.sc
EndChar

StartChar: c
Encoding: 99 99 68
Width: 444
GlyphClass: 2
Flags: MW
TeX: 430 0
HStem: -11 25<231.5 276.5 231.5 316> 294 92<358 358> 423 25<225.5 256.5>
VStem: 34 83<152 278> 312 92<327 346.5> 389 26<119 119>
AnchorPoint: "Anchor-5" 251 448 basechar 0
AnchorPoint: "Anchor-4" 249 0 basechar 0
AnchorPoint: "Anchor-3" 444 694 basechar 0
AnchorPoint: "Anchor-2" 444 -194 basechar 0
LayerCount: 2
Fore
SplineSet
34 216 m 0xf4
 34 340 126 448 251 448 c 0
 328 448 404 409 404 341 c 0
 404 311 384 294 358 294 c 0
 330 294 312 314 312 340 c 0xf8
 312 353 318 383 359 386 c 1
 324 422 261 423 252 423 c 0
 199 423 117 381 117 218 c 0
 117 57 205 14 258 14 c 0
 295 14 360 26 389 119 c 0
 391 125 393 129 402 129 c 0
 405 129 415 129 415 119 c 0
 415 109 383 -11 249 -11 c 0
 133 -11 34 88 34 216 c 0xf4
EndSplineSet
Substitution2: "'smcp' +wYy7OMeQxdDBHAAA +wYzWFQAA +swC7OMeQuFwA lookup 3 subtable" C.sc
EndChar

StartChar: d
Encoding: 100 100 69
Width: 555
GlyphClass: 2
Flags: MW
TeX: 688 0
HStem: -11 22<228.5 272.5 228.5 278> 0 31<492 527> 420 22<234 278.5> 652 31<305 340> 674 20G<449 449>
VStem: 34 83<193.5 232.5 193.5 279.5> 380 69<-11 87 55 87 118 323 323 332>
AnchorPoint: "Anchor-5" 242 694 basechar 0
AnchorPoint: "Anchor-4" 280 0 basechar 0
AnchorPoint: "Anchor-3" 555 694 basechar 0
AnchorPoint: "Anchor-2" 555 -194 basechar 0
LayerCount: 2
Fore
SplineSet
34 215 m 0xa6
 34 344 139 442 257 442 c 0
 311 442 354 416 383 380 c 1
 383 596 l 2
 383 645 375 652 305 652 c 1
 305 683 l 1xb6
 449 694 l 1
 449 87 l 2
 449 38 457 31 527 31 c 1
 527 0 l 1x6e
 380 -11 l 1
 380 55 l 1
 355 23 310 -11 246 -11 c 0
 132 -11 34 88 34 215 c 0xa6
117 214 m 0
 117 173 120 116 146 75 c 0
 170 37 206 11 251 11 c 0
 294 11 339 33 369 81 c 0
 380 98 380 100 380 118 c 2
 380 323 l 2
 380 341 380 343 369 360 c 0
 338 405 296 420 261 420 c 0
 207 420 169 387 148 356 c 0
 119 311 117 251 117 214 c 0
EndSplineSet
Substitution2: "'smcp' +wYy7OMeQxdDBHAAA +wYzWFQAA +swC7OMeQuFwA lookup 3 subtable" D.sc
EndChar

StartChar: e
Encoding: 101 101 70
Width: 444
GlyphClass: 2
Flags: MW
TeX: 430 0
HStem: -11 25<229 259 229 309> 231 21<112 349 112 390 111 349> 426 22<219 287.5>
VStem: 28 83<213 231 213 282.5> 349 66<252 271.5> 389 26
AnchorPoint: "Anchor-5" 236 448 basechar 0
AnchorPoint: "Anchor-4" 248 0 basechar 0
AnchorPoint: "Anchor-3" 444 694 basechar 0
AnchorPoint: "Anchor-2" 444 -194 basechar 0
AnchorPoint: "Anchor-1" 248 0 basechar 0
LayerCount: 2
Fore
SplineSet
28 220 m 0xf4
 28 345 120 448 236 448 c 0
 361 448 415 351 415 252 c 0xf8
 415 231 412 231 390 231 c 2
 111 231 l 1
 111 195 111 129 141 81 c 0
 164 44 204 14 254 14 c 0
 264 14 354 14 389 117 c 0
 391 125 393 131 402 131 c 0
 407 131 415 129 415 119 c 0
 415 100 370 -11 248 -11 c 0
 133 -11 28 86 28 220 c 0xf4
112 252 m 1
 349 252 l 1
 349 291 339 426 236 426 c 0
 202 426 118 401 112 252 c 1
EndSplineSet
Substitution2: "'smcp' +wYy7OMeQxdDBHAAA +wYzWFQAA +swC7OMeQuFwA lookup 3 subtable" E.sc
EndChar

StartChar: f
Encoding: 102 102 71
Width: 305
GlyphClass: 2
Flags: MW
TeX: 688 0
ItalicCorrection: 77
HStem: 0 31<34 67.5> 400 31<33 112 33 112 178 178 178 292> 683 22<245 268.5>
VStem: 112 66<76 78 78 400> 270 87<623 646.5>
AnchorPoint: "Anchor-5" 267 694 basechar 0
AnchorPoint: "Anchor-4" 145 0 basechar 0
AnchorPoint: "Anchor-3" 305 694 basechar 0
AnchorPoint: "Anchor-2" 305 -194 basechar 0
LayerCount: 2
Fore
SplineSet
33 400 m 1
 33 431 l 1
 112 431 l 1
 112 546 l 2
 112 652 197 705 267 705 c 0
 320 705 357 672 357 635 c 0
 357 611 342 591 313 591 c 0
 286 591 270 611 270 634 c 0
 270 659 288 672 300 676 c 1
 285 683 270 683 267 683 c 0
 223 683 175 635 175 547 c 2
 175 431 l 1
 292 431 l 1
 292 400 l 1
 178 400 l 1
 178 78 l 2
 178 42 180 31 254 31 c 2
 275 31 l 1
 275 0 l 1
 235 3 188 3 148 3 c 0
 120 3 73 1 34 0 c 1
 34 31 l 1
 101 31 112 31 112 76 c 2
 112 400 l 1
 33 400 l 1
EndSplineSet
Substitution2: "'smcp' +wYy7OMeQxdDBHAAA +wYzWFQAA +swC7OMeQuFwA lookup 3 subtable" F.sc
EndChar

StartChar: g
Encoding: 103 103 72
Width: 500
GlyphClass: 2
Flags: MW
TeX: 430 194
ItalicCorrection: 13
HStem: -206 23<199.5 299 199.5 308> 7 59 149 23<212.5 242 178.5 268.5> 419 23<202 233 175.5 265.5> 431 22<424 434>
VStem: 28 52<-105.5 -59> 60 75<283.5 308.5 283.5 334.5> 76 30<117 127.5> 309 75<282.5 307.5> 419 52<-106 -59.5 -116 -36> 427 58<394.5 409>
AnchorPoint: "Anchor-5" 222 448 basechar 0
AnchorPoint: "Anchor-4" 249 -194 basechar 0
AnchorPoint: "Anchor-3" 500 694 basechar 0
AnchorPoint: "Anchor-2" 500 -194 basechar 0
LayerCount: 2
Fore
SplineSet
28 -79 m 0xecc0
 28 -39 60 4 120 21 c 1
 89 41 76 79 76 110 c 0xe980
 76 145 94 178 107 193 c 1
 82 214 60 252 60 296 c 0
 60 373 129 442 222 442 c 0xf280
 244 442 286 439 328 406 c 1
 370 447 414 453 434 453 c 0
 473 453 485 421 485 404 c 0
 485 381 466 374 456 374 c 0
 440 374 427 386 427 403 c 0
 427 415 432 426 443 430 c 1
 440 431 435 431 433 431 c 0
 415 431 379 426 343 392 c 1
 368 369 384 332 384 295 c 0
 384 218 315 149 222 149 c 0
 203 149 162 152 123 180 c 1
 106 160 106 137 106 133 c 0xe9a0
 106 101 127 70 159 66 c 0
 166 65 209 65 234 65 c 0
 295 65 353 65 406 37 c 0
 457 9 471 -42 471 -77 c 0
 471 -155 367 -206 249 -206 c 0
 127 -206 28 -151 28 -79 c 0xecc0
80 -79 m 0xe4c0
 80 -132 149 -183 250 -183 c 0
 348 -183 419 -133 419 -79 c 0
 419 7 307 7 221 7 c 2
 162 7 l 2
 118 4 80 -33 80 -79 c 0xe4c0
135 295 m 0xf280
 135 272 135 172 222 172 c 0
 262 172 285 200 293 212 c 0
 308 237 309 269 309 296 c 0
 309 319 309 419 222 419 c 0
 182 419 159 391 151 379 c 0
 136 354 135 322 135 295 c 0xf280
EndSplineSet
Substitution2: "'smcp' +wYy7OMeQxdDBHAAA +wYzWFQAA +swC7OMeQuFwA lookup 3 subtable" G.sc
EndChar

StartChar: h
Encoding: 104 104 73
Width: 555
GlyphClass: 2
Flags: MW
TeX: 688 0
HStem: 0 31<32 65.5> 420 22<282 345.5> 652 31<32 67> 674 20G<176 176>
VStem: 110 66<346 596 596 620.5> 388 69<76 252 61 309 61 337.5>
AnchorPoint: "Anchor-5" 284 694 basechar 0
AnchorPoint: "Anchor-4" 284 0 basechar 0
AnchorPoint: "Anchor-3" 555 694 basechar 0
AnchorPoint: "Anchor-2" 555 -194 basechar 0
LayerCount: 2
Fore
SplineSet
32 0 m 1xdc
 32 31 l 1
 99 31 110 31 110 76 c 2
 110 596 l 2
 110 645 102 652 32 652 c 1
 32 683 l 1xec
 176 694 l 1
 176 346 l 1
 177 346 l 1
 193 382 237 442 321 442 c 0
 379 442 412 422 426 405 c 0
 457 369 457 338 457 252 c 2
 457 61 l 2
 458 31 483 31 535 31 c 1
 535 0 l 1
 501 1 449 3 423 3 c 0
 396 3 345 1 310 0 c 1
 310 31 l 1
 377 31 388 31 388 76 c 2
 388 309 l 2
 388 366 377 420 314 420 c 0
 250 420 179 364 179 260 c 2
 179 76 l 2
 179 31 190 31 257 31 c 1
 257 0 l 1
 223 1 171 3 145 3 c 0
 118 3 67 1 32 0 c 1xdc
EndSplineSet
Substitution2: "'smcp' +wYy7OMeQxdDBHAAA +wYzWFQAA +swC7OMeQuFwA lookup 3 subtable" H.sc
EndChar

StartChar: i
Encoding: 105 105 74
Width: 277
GlyphClass: 2
Flags: MW
TeX: 663 0
HStem: 0 31<33 66.5> 400 31<37 69.5> 422 20<177 177> 563 106<112.5 142>
VStem: 75 106<602.5 629> 111 66<76 345 345 369.5>
AnchorPoint: "Anchor-5" 144 649 basechar 0
AnchorPoint: "Anchor-4" 144 0 basechar 0
AnchorPoint: "Anchor-3" 277 694 basechar 0
AnchorPoint: "Anchor-2" 277 -194 basechar 0
AnchorPoint: "Anchor-1" 140 0 basechar 0
LayerCount: 2
Fore
SplineSet
75 616 m 0x98
 75 642 97 669 128 669 c 0
 156 669 181 648 181 616 c 0
 181 584 156 563 128 563 c 0
 97 563 75 589 75 616 c 0x98
33 0 m 1xa4
 33 31 l 1
 100 31 111 31 111 76 c 2
 111 345 l 2
 111 394 102 400 37 400 c 1
 37 431 l 1xc4
 177 442 l 1
 177 75 l 2
 177 36 181 31 247 31 c 1
 247 0 l 1
 213 1 178 3 143 3 c 0
 119 3 65 1 33 0 c 1xa4
EndSplineSet
Substitution2: "'smcp' +wYy7OMeQxdDBHAAA +wYzWFQAA +swC7OMeQuFwA lookup 3 subtable" I.sc
EndChar

StartChar: j
Encoding: 106 106 75
Width: 305
GlyphClass: 2
Flags: MW
TeX: 663 194
HStem: -205 22<68.5 103 68.5 110.5> 400 31<58 96.5> 422 20<210 210> 563 106<142.5 171.5>
VStem: -40 92<-138.5 -112 -138.5 -112> 104 106<601.5 630.5> 144 66<-52 -50 -50 344 344 368.5>
AnchorPoint: "Anchor-4" 106 -194 basechar 0
AnchorPoint: "Anchor-3" 305 694 basechar 0
AnchorPoint: "Anchor-2" 305 -194 basechar 0
LayerCount: 2
Fore
SplineSet
104 616 m 0x14
 104 645 128 669 157 669 c 0
 186 669 210 645 210 616 c 0
 210 587 186 563 157 563 c 0
 128 563 104 587 104 616 c 0x14
-40 -125 m 0xaa
 -40 -99 -22 -79 6 -79 c 0
 34 -79 52 -99 52 -125 c 0
 52 -152 32 -166 17 -170 c 1
 43 -183 66 -183 71 -183 c 0
 135 -183 144 -97 144 -52 c 2
 144 344 l 2
 144 393 135 400 58 400 c 1
 58 431 l 1xca
 210 442 l 1
 210 -50 l 2
 210 -141 148 -205 73 -205 c 0
 16 -205 -40 -177 -40 -125 c 0xaa
EndSplineSet
Substitution2: "'smcp' +wYy7OMeQxdDBHAAA +wYzWFQAA +swC7OMeQuFwA lookup 3 subtable" J.sc
EndChar

StartChar: k
Encoding: 107 107 76
Width: 527
GlyphClass: 2
Flags: MW
TeX: 688 0
HStem: 0 31<28 61.5> 400 31<306 306> 652 31<28 63> 674 20G<172 172>
VStem: 106 66<214 596 596 620.5>
AnchorPoint: "Anchor-5" 270 694 basechar 0
AnchorPoint: "Anchor-4" 270 0 basechar 0
AnchorPoint: "Anchor-3" 527 694 basechar 0
AnchorPoint: "Anchor-2" 527 -194 basechar 0
LayerCount: 2
Fore
SplineSet
28 0 m 1xd8
 28 31 l 1
 95 31 106 31 106 76 c 2
 106 596 l 2
 106 645 98 652 28 652 c 1
 28 683 l 1xe8
 172 694 l 1
 172 214 l 1
 313 336 l 2
 321 343 335 355 335 375 c 0
 335 388 325 399 306 400 c 1
 306 431 l 1
 320 430 382 428 418 428 c 0
 446 428 459 428 488 431 c 1
 488 400 l 1
 467 399 425 397 362 346 c 0
 352 338 281 278 281 274 c 0
 281 271 286 265 287 263 c 2
 414 84 l 2
 452 31 474 31 511 31 c 1
 511 0 l 1
 482 2 453 3 424 3 c 0
 403 3 344 1 316 0 c 1
 316 31 l 1
 335 31 352 35 352 54 c 0
 352 72 310 128 233 234 c 1
 169 179 l 1
 169 76 l 2
 169 31 180 31 247 31 c 1
 247 0 l 1
 207 2 167 3 137 3 c 0
 108 3 61 1 28 0 c 1xd8
EndSplineSet
Substitution2: "'smcp' +wYy7OMeQxdDBHAAA +wYzWFQAA +swC7OMeQuFwA lookup 3 subtable" K.sc
EndChar

StartChar: l
Encoding: 108 108 77
Width: 277
GlyphClass: 2
Flags: MW
TeX: 688 0
HStem: 0 31<33 66.5> 652 31<33 68> 674 20G<177 177>
VStem: 111 66<76 596 596 620.5>
AnchorPoint: "Anchor-5" 144 694 basechar 0
AnchorPoint: "Anchor-4" 144 0 basechar 0
AnchorPoint: "Anchor-3" 277 694 basechar 0
AnchorPoint: "Anchor-2" 277 -194 basechar 0
LayerCount: 2
Fore
SplineSet
33 0 m 1xb0
 33 31 l 1
 100 31 111 31 111 76 c 2
 111 596 l 2
 111 645 103 652 33 652 c 1
 33 683 l 1xd0
 177 694 l 1
 177 76 l 2
 177 31 188 31 255 31 c 1
 255 0 l 1
 218 1 169 3 144 3 c 0
 119 3 66 1 33 0 c 1xb0
EndSplineSet
Substitution2: "'smcp' +wYy7OMeQxdDBHAAA +wYzWFQAA +swC7OMeQuFwA lookup 3 subtable" L.sc
EndChar

StartChar: m
Encoding: 109 109 78
Width: 833
GlyphClass: 2
Flags: MW
TeX: 430 0
HStem: 0 31<32 65.5> 400 31<32 67> 420 22<284.5 343.5 560 623.5>
VStem: 110 69<76 260> 388 69<76 260> 666 69<76 252 61 309 61 337.5>
CounterMasks: 1 1c
AnchorPoint: "Anchor-5" 422 448 basechar 0
AnchorPoint: "Anchor-4" 422 0 basechar 0
AnchorPoint: "Anchor-3" 833 694 basechar 0
AnchorPoint: "Anchor-2" 833 -194 basechar 0
LayerCount: 2
Fore
SplineSet
32 0 m 1xbc
 32 31 l 1
 99 31 110 31 110 76 c 2
 110 344 l 2
 110 393 102 400 32 400 c 1
 32 431 l 1xdc
 173 442 l 1
 173 337 l 1
 201 399 248 442 321 442 c 0
 366 442 440 431 454 344 c 1
 471 382 515 442 599 442 c 0
 657 442 690 422 704 405 c 0
 735 369 735 338 735 252 c 2
 735 61 l 2
 736 31 761 31 813 31 c 1
 813 0 l 1
 779 1 727 3 701 3 c 0
 674 3 623 1 588 0 c 1
 588 31 l 1
 655 31 666 31 666 76 c 2
 666 309 l 2
 666 366 655 420 592 420 c 0
 528 420 457 364 457 260 c 2
 457 76 l 2
 457 31 468 31 535 31 c 1
 535 0 l 1
 501 1 449 3 423 3 c 0
 396 3 345 1 310 0 c 1
 310 31 l 1
 377 31 388 31 388 76 c 2
 388 309 l 2
 388 366 377 420 314 420 c 0
 250 420 179 364 179 260 c 2
 179 76 l 2
 179 31 190 31 257 31 c 1
 257 0 l 1
 223 1 171 3 145 3 c 0
 118 3 67 1 32 0 c 1xbc
EndSplineSet
Substitution2: "'smcp' +wYy7OMeQxdDBHAAA +wYzWFQAA +swC7OMeQuFwA lookup 3 subtable" M.sc
EndChar

StartChar: n
Encoding: 110 110 79
Width: 555
GlyphClass: 2
Flags: MW
TeX: 430 0
HStem: 0 31<32 65.5> 400 31<32 67> 420 22<284.5 345.5>
VStem: 110 69<76 260> 388 69<76 252 61 309 61 337.5>
AnchorPoint: "Anchor-5" 284 448 basechar 0
AnchorPoint: "Anchor-4" 284 0 basechar 0
AnchorPoint: "Anchor-3" 555 694 basechar 0
AnchorPoint: "Anchor-2" 555 -194 basechar 0
LayerCount: 2
Fore
SplineSet
32 0 m 1xb8
 32 31 l 1
 99 31 110 31 110 76 c 2
 110 344 l 2
 110 393 102 400 32 400 c 1
 32 431 l 1xd8
 173 442 l 1
 173 337 l 1
 201 399 248 442 321 442 c 0
 379 442 412 422 426 405 c 0
 457 369 457 338 457 252 c 2
 457 61 l 2
 458 31 483 31 535 31 c 1
 535 0 l 1
 501 1 449 3 423 3 c 0
 396 3 345 1 310 0 c 1
 310 31 l 1
 377 31 388 31 388 76 c 2
 388 309 l 2
 388 366 377 420 314 420 c 0
 250 420 179 364 179 260 c 2
 179 76 l 2
 179 31 190 31 257 31 c 1
 257 0 l 1
 223 1 171 3 145 3 c 0
 118 3 67 1 32 0 c 1xb8
EndSplineSet
Substitution2: "'smcp' +wYy7OMeQxdDBHAAA +wYzWFQAA +swC7OMeQuFwA lookup 3 subtable" N.sc
EndChar

StartChar: o
Encoding: 111 111 80
Width: 500
GlyphClass: 2
Flags: MW
TeX: 430 0
HStem: -11 25<228.5 275 228.5 309.5> 426 22<229 271>
VStem: 28 83<204 241.5 204 276.5> 388 83<204 241>
AnchorPoint: "Anchor-5" 250 448 basechar 0
AnchorPoint: "Anchor-4" 249 0 basechar 0
AnchorPoint: "Anchor-3" 500 694 basechar 0
AnchorPoint: "Anchor-2" 500 -194 basechar 0
AnchorPoint: "Anchor-1" 249 0 basechar 0
LayerCount: 2
Fore
SplineSet
28 214 m 0
 28 339 125 448 250 448 c 0
 371 448 471 342 471 214 c 0
 471 87 370 -11 249 -11 c 0
 132 -11 28 85 28 214 c 0
111 222 m 0
 111 186 111 125 136 81 c 0
 163 35 207 14 250 14 c 0
 300 14 344 43 366 88 c 0
 388 132 388 186 388 222 c 0
 388 260 388 318 362 361 c 0
 336 404 293 426 249 426 c 0
 209 426 162 405 135 359 c 0
 111 315 111 261 111 222 c 0
EndSplineSet
Substitution2: "'smcp' +wYy7OMeQxdDBHAAA +wYzWFQAA +swC7OMeQuFwA lookup 3 subtable" O.sc
EndChar

StartChar: p
Encoding: 112 112 81
Width: 555
GlyphClass: 2
Flags: MW
TeX: 430 194
HStem: -194 31<28 61.5> -11 22<274 331 274 357.5> 400 31<28 63.5> 417 25<278.5 340.5>
VStem: 106 69<-118 50 50 59 104 114 114 337> 438 83<155.5 272.5>
AnchorPoint: "Anchor-5" 313 448 basechar 0
AnchorPoint: "Anchor-4" 313 -194 basechar 0
AnchorPoint: "Anchor-3" 555 694 basechar 0
AnchorPoint: "Anchor-2" 555 -194 basechar 0
LayerCount: 2
Fore
SplineSet
28 -163 m 1xdc
 95 -163 106 -163 106 -118 c 2
 106 350 l 2
 106 394 99 400 28 400 c 1
 28 431 l 1xec
 172 442 l 1
 172 376 l 1
 192 398 234 442 312 442 c 0
 424 442 521 343 521 216 c 0
 521 87 417 -11 298 -11 c 0
 222 -11 180 43 175 59 c 1
 175 50 l 1
 175 -118 l 2
 175 -163 186 -163 253 -163 c 1
 253 -194 l 1
 218 -193 167 -191 140 -191 c 0
 114 -191 62 -193 28 -194 c 1
 28 -163 l 1xdc
175 114 m 2
 175 94 175 93 189 72 c 0
 216 31 254 11 294 11 c 0
 368 11 438 95 438 216 c 0
 438 329 377 417 304 417 c 0xdc
 253 417 204 388 175 337 c 1
 175 114 l 2
EndSplineSet
Substitution2: "'smcp' +wYy7OMeQxdDBHAAA +wYzWFQAA +swC7OMeQuFwA lookup 3 subtable" P.sc
EndChar

StartChar: q
Encoding: 113 113 82
Width: 527
GlyphClass: 2
Flags: MW
TeX: 430 194
HStem: -194 31<302 335.5> -11 22<214.5 274.5 214.5 282> 417 25<224 295 197 301>
VStem: 34 83<157.5 274.5 157.5 280> 380 69<-118 61 61 61>
AnchorPoint: "Anchor-5" 242 448 basechar 0
AnchorPoint: "Anchor-4" 242 -194 basechar 0
AnchorPoint: "Anchor-3" 527 694 basechar 0
AnchorPoint: "Anchor-2" 527 -194 basechar 0
LayerCount: 2
Fore
SplineSet
34 215 m 0
 34 345 139 442 255 442 c 0
 335 442 376 379 389 351 c 1
 427 442 l 1
 449 442 l 1
 449 -118 l 2
 449 -163 460 -163 527 -163 c 1
 527 -194 l 1
 492 -193 441 -191 414 -191 c 0
 388 -191 336 -193 302 -194 c 1
 302 -163 l 1
 369 -163 380 -163 380 -118 c 2
 380 61 l 1
 358 32 317 -11 247 -11 c 0
 131 -11 34 90 34 215 c 0
117 215 m 0
 117 100 178 11 251 11 c 0
 298 11 330 38 343 52 c 0
 365 76 383 104 383 136 c 2
 383 277 l 2
 383 330 341 417 261 417 c 0
 187 417 117 334 117 215 c 0
EndSplineSet
Substitution2: "'smcp' +wYy7OMeQxdDBHAAA +wYzWFQAA +swC7OMeQuFwA lookup 3 subtable" Q.sc
EndChar

StartChar: r
Encoding: 114 114 83
Width: 391
GlyphClass: 2
Flags: MW
TeX: 430 0
HStem: 0 31<28 61.5> 400 31<28 63> 420 22<253.5 293.5>
VStem: 106 66<76 78 78 232> 278 86<366 393>
AnchorPoint: "Anchor-5" 182 448 basechar 0
AnchorPoint: "Anchor-4" 148 0 basechar 0
AnchorPoint: "Anchor-3" 391 694 basechar 0
AnchorPoint: "Anchor-2" 391 -194 basechar 0
LayerCount: 2
Fore
SplineSet
28 0 m 1xb8
 28 31 l 1
 95 31 106 31 106 76 c 2
 106 344 l 2
 106 393 98 400 28 400 c 1
 28 431 l 1xd8
 167 442 l 1
 167 332 l 1
 181 375 217 442 290 442 c 0
 333 442 364 413 364 381 c 0
 364 349 339 337 321 337 c 0
 299 337 278 352 278 380 c 0
 278 406 298 418 301 419 c 1
 299 420 297 420 290 420 c 0
 214 420 172 331 172 232 c 2
 172 78 l 2
 172 42 174 31 248 31 c 2
 269 31 l 1
 269 0 l 1
 229 3 182 3 142 3 c 0
 114 3 67 1 28 0 c 1xb8
EndSplineSet
Substitution2: "'smcp' +wYy7OMeQxdDBHAAA +wYzWFQAA +swC7OMeQuFwA lookup 3 subtable" R.sc
EndChar

StartChar: s
Encoding: 115 115 84
Width: 394
GlyphClass: 2
Flags: MW
TeX: 430 0
HStem: -11 22<188.5 238 157 256.5> 429 19<150 200.5 132 248>
VStem: 33 27 33 48<324 353> 310 25 312 48<92 138>
AnchorPoint: "Anchor-5" 193 448 basechar 0
AnchorPoint: "Anchor-4" 199 0 basechar 0
AnchorPoint: "Anchor-3" 394 694 basechar 0
AnchorPoint: "Anchor-2" 394 -194 basechar 0
LayerCount: 2
Fore
SplineSet
33 13 m 2xe4
 33 145 l 2
 33 163 33 170 46 170 c 0
 56 170 57 166 60 153 c 0
 79 68 115 11 199 11 c 0
 277 11 312 51 312 102 c 0xe4
 312 174 230 190 208 194 c 0
 136 208 108 214 76 240 c 0
 49 262 33 290 33 325 c 0
 33 381 71 448 193 448 c 0
 208 448 249 448 287 420 c 1
 291 423 301 432 304 436 c 0
 317 448 319 448 324 448 c 0
 335 448 335 441 335 424 c 2
 335 323 l 2
 335 304 335 299 322 299 c 0
 320 299 311 299 310 308 c 0
 308 339 303 429 193 429 c 0
 107 429 81 388 81 353 c 0xd8
 81 295 148 282 204 271 c 0
 246 263 285 255 318 223 c 0
 330 211 360 181 360 128 c 0
 360 56 314 -11 199 -11 c 0
 178 -11 133 -10 89 32 c 1
 71 13 71 11 69 9 c 0
 50 -10 49 -11 44 -11 c 0
 33 -11 33 -4 33 13 c 2xe4
EndSplineSet
Substitution2: "'smcp' +wYy7OMeQxdDBHAAA +wYzWFQAA +swC7OMeQuFwA lookup 3 subtable" S.sc
EndChar

StartChar: t
Encoding: 116 116 85
Width: 388
GlyphClass: 2
Flags: MW
TeX: 614 0
HStem: -11 25<215 258.5 206.5 268.5> 400 22<19 19 19 104> 400 31<173 316 173 316>
VStem: 104 69<124 400> 148 25<615 615> 307 25<126 181>
AnchorPoint: "Anchor-5" 138 615 basechar 0
AnchorPoint: "Anchor-4" 211 0 basechar 0
AnchorPoint: "Anchor-3" 388 694 basechar 0
AnchorPoint: "Anchor-2" 388 -194 basechar 0
LayerCount: 2
Fore
SplineSet
19 400 m 1xd4
 19 422 l 1xd4
 117 426 147 533 148 615 c 1
 173 615 l 1
 173 431 l 1xac
 316 431 l 1
 316 400 l 1
 173 400 l 1xb4
 173 122 l 2
 173 105 173 14 240 14 c 0
 277 14 307 52 307 126 c 2
 307 181 l 1
 332 181 l 1
 332 124 l 2
 332 60 304 -11 233 -11 c 0
 197 -11 104 1 104 124 c 2
 104 400 l 1
 19 400 l 1xd4
EndSplineSet
Substitution2: "'smcp' +wYy7OMeQxdDBHAAA +wYzWFQAA +swC7OMeQuFwA lookup 3 subtable" T.sc
EndChar

StartChar: u
Encoding: 117 117 86
Width: 555
GlyphClass: 2
Flags: MW
TeX: 430 0
HStem: -11 22<225 290> 0 31<500 535> 400 31<32 71> 422 20G<179 179 457 457>
VStem: 110 69<158 308 308 352.5> 388 69<166 344 344 368.5>
AnchorPoint: "Anchor-5" 284 448 basechar 0
AnchorPoint: "Anchor-4" 284 0 basechar 0
AnchorPoint: "Anchor-3" 555 694 basechar 0
AnchorPoint: "Anchor-2" 555 -194 basechar 0
AnchorPoint: "Anchor-1" 424 0 basechar 0
LayerCount: 2
Fore
SplineSet
32 400 m 1xac
 32 431 l 1xac
 179 442 l 1x1c
 179 110 l 2
 179 58 183 11 267 11 c 0
 340 11 388 79 388 166 c 2
 388 344 l 2
 388 393 380 400 310 400 c 1
 310 431 l 1xac
 457 442 l 1
 457 87 l 2
 457 38 465 31 535 31 c 1
 535 0 l 1x5c
 391 -11 l 1
 391 79 l 1
 362 17 318 -11 262 -11 c 0
 110 -11 110 80 110 158 c 2
 110 308 l 2
 110 397 110 400 32 400 c 1xac
EndSplineSet
Substitution2: "'smcp' +wYy7OMeQxdDBHAAA +wYzWFQAA +swC7OMeQuFwA lookup 3 subtable" U.sc
EndChar

StartChar: v
Encoding: 118 118 87
Width: 527
GlyphClass: 2
Flags: MW
TeX: 430 0
ItalicCorrection: 13
HStem: -11 21G<257.5 270.5> 400 31<19 50.5>
AnchorPoint: "Anchor-5" 264 448 basechar 0
AnchorPoint: "Anchor-4" 264 0 basechar 0
AnchorPoint: "Anchor-3" 527 694 basechar 0
AnchorPoint: "Anchor-2" 527 -194 basechar 0
LayerCount: 2
Fore
SplineSet
19 400 m 1
 19 431 l 1
 49 429 89 428 116 428 c 0
 139 428 195 430 225 431 c 1
 225 400 l 1
 207 400 168 400 168 374 c 0
 168 372 168 370 174 357 c 2
 286 78 l 1
 388 333 l 2
 392 344 394 348 394 357 c 0
 394 376 383 399 346 400 c 1
 346 431 l 1
 363 430 409 428 433 428 c 0
 456 428 485 429 508 431 c 1
 508 400 l 1
 442 399 425 356 416 333 c 2
 285 8 l 2
 281 -2 277 -11 264 -11 c 0
 251 -11 249 -6 243 8 c 2
 99 363 l 2
 86 394 82 400 19 400 c 1
EndSplineSet
Substitution2: "'smcp' +wYy7OMeQxdDBHAAA +wYzWFQAA +swC7OMeQuFwA lookup 3 subtable" V.sc
EndChar

StartChar: w
Encoding: 119 119 88
Width: 722
GlyphClass: 2
Flags: MW
TeX: 430 0
ItalicCorrection: 13
HStem: -11 21G<232.5 245.5 475.5 488.5> 400 31<18 43>
AnchorPoint: "Anchor-5" 360 448 basechar 0
AnchorPoint: "Anchor-4" 360 0 basechar 0
AnchorPoint: "Anchor-3" 722 694 basechar 0
AnchorPoint: "Anchor-2" 722 -194 basechar 0
LayerCount: 2
Fore
SplineSet
18 400 m 1
 18 431 l 1
 54 429 107 428 111 428 c 0
 134 428 190 430 220 431 c 1
 220 400 l 1
 200 400 161 400 161 373 c 0
 161 369 161 367 166 355 c 2
 261 88 l 1
 347 330 l 1
 340 349 329 379 324 385 c 0
 314 398 298 400 261 400 c 1
 261 431 l 1
 291 429 320 428 350 428 c 0
 374 428 425 430 454 431 c 1
 454 400 l 1
 434 400 395 400 395 373 c 0
 395 368 396 366 400 354 c 2
 499 75 l 1
 590 331 l 2
 595 344 595 346 595 352 c 0
 595 381 573 399 537 400 c 1
 537 431 l 1
 556 430 601 428 630 428 c 0
 652 428 681 429 703 431 c 1
 703 400 l 1
 668 399 637 386 619 336 c 2
 502 8 l 2
 498 -2 495 -11 482 -11 c 0
 469 -11 466 -3 462 8 c 2
 360 292 l 1
 259 9 l 2
 254 -5 252 -11 239 -11 c 0
 226 -11 223 -3 218 11 c 2
 92 365 l 2
 80 397 68 400 18 400 c 1
EndSplineSet
Substitution2: "'smcp' +wYy7OMeQxdDBHAAA +wYzWFQAA +swC7OMeQuFwA lookup 3 subtable" W.sc
EndChar

StartChar: x
Encoding: 120 120 89
Width: 527
GlyphClass: 2
Flags: MW
TeX: 430 0
HStem: 0 31<12 22.5> 400 31<17 52>
AnchorPoint: "Anchor-5" 264 448 basechar 0
AnchorPoint: "Anchor-4" 264 0 basechar 0
AnchorPoint: "Anchor-3" 527 694 basechar 0
AnchorPoint: "Anchor-2" 527 -194 basechar 0
LayerCount: 2
Fore
SplineSet
12 0 m 1
 12 31 l 1
 33 31 92 33 140 91 c 2
 234 210 l 1
 135 339 l 2
 88 399 87 400 17 400 c 1
 17 431 l 1
 44 429 91 428 112 428 c 0
 128 428 194 430 220 431 c 1
 220 400 l 1
 200 399 185 390 185 375 c 0
 185 369 185 367 194 357 c 2
 272 256 l 1
 334 334 l 2
 339 340 349 353 349 369 c 0
 349 385 341 398 320 400 c 1
 320 431 l 1
 333 430 386 428 416 428 c 0
 442 428 472 429 498 431 c 1
 498 400 l 1
 451 399 410 384 379 348 c 0
 355 322 317 273 287 235 c 1
 421 62 l 2
 444 33 462 31 516 31 c 1
 516 0 l 1
 486 2 447 3 420 3 c 0
 398 3 342 1 312 0 c 1
 312 31 l 1
 339 32 348 47 348 56 c 0
 348 62 335 78 327 89 c 2
 251 189 l 1
 190 117 161 84 161 62 c 0
 161 47 168 34 190 31 c 1
 190 0 l 1
 166 1 124 3 95 3 c 0
 69 3 38 2 12 0 c 1
EndSplineSet
Substitution2: "'smcp' +wYy7OMeQxdDBHAAA +wYzWFQAA +swC7OMeQuFwA lookup 3 subtable" X.sc
EndChar

StartChar: y
Encoding: 121 121 90
Width: 527
GlyphClass: 2
Flags: MW
TeX: 430 194
ItalicCorrection: 13
HStem: -205 22<108.5 142.5> 400 31<19 43>
VStem: 19 84<-131 -110 -131 -109>
AnchorPoint: "Anchor-5" 263 448 basechar 0
AnchorPoint: "Anchor-4" 264 -194 basechar 0
AnchorPoint: "Anchor-3" 527 694 basechar 0
AnchorPoint: "Anchor-2" 527 -194 basechar 0
LayerCount: 2
Fore
SplineSet
19 -124 m 0
 19 -94 41 -81 61 -81 c 0
 84 -81 103 -97 103 -123 c 0
 103 -139 95 -161 64 -165 c 1
 83 -183 106 -183 111 -183 c 0
 175 -183 203 -114 225 -59 c 0
 231 -46 245 -13 250 0 c 1
 100 365 l 2
 86 400 67 400 19 400 c 1
 19 431 l 1
 49 429 89 428 116 428 c 0
 133 428 199 430 225 431 c 1
 225 400 l 1
 206 400 169 400 169 374 c 0
 169 370 171 366 175 356 c 2
 286 87 l 1
 387 333 l 2
 392 345 393 347 393 357 c 0
 393 382 377 399 346 400 c 1
 346 431 l 1
 368 430 415 428 433 428 c 0
 456 428 485 429 508 431 c 1
 508 400 l 1
 492 400 441 399 415 336 c 2
 239 -91 l 2
 215 -148 174 -205 111 -205 c 0
 61 -205 19 -169 19 -124 c 0
EndSplineSet
Substitution2: "'smcp' +wYy7OMeQxdDBHAAA +wYzWFQAA +swC7OMeQuFwA lookup 3 subtable" Y.sc
EndChar

StartChar: z
Encoding: 122 122 91
Width: 444
GlyphClass: 2
Flags: MW
TeX: 430 0
HStem: 0 25<112 230 230 288> 409 22<147 202 202 316>
VStem: 42 25<270 270> 376 25<187 187>
AnchorPoint: "Anchor-5" 214 448 basechar 0
AnchorPoint: "Anchor-4" 214 0 basechar 0
AnchorPoint: "Anchor-3" 444 694 basechar 0
AnchorPoint: "Anchor-2" 444 -194 basechar 0
LayerCount: 2
Fore
SplineSet
28 14 m 0
 28 19 28 21 37 32 c 2
 316 409 l 1
 202 409 l 2
 92 409 73 372 67 270 c 1
 42 270 l 1
 53 431 l 1
 373 431 l 2
 391 431 399 431 399 418 c 0
 399 414 399 412 390 401 c 2
 112 25 l 1
 230 25 l 2
 346 25 367 69 376 187 c 1
 401 187 l 1
 384 0 l 1
 54 0 l 2
 35 0 28 0 28 14 c 0
EndSplineSet
Substitution2: "'smcp' +wYy7OMeQxdDBHAAA +wYzWFQAA +swC7OMeQuFwA lookup 3 subtable" Z.sc
EndChar

StartChar: braceleft
Encoding: 123 123 92
Width: 500
GlyphClass: 2
Flags: MW
TeX: 749 249
HStem: -250 24 720 30
VStem: 214 70<-102 -101 -101 117 117 121 386 604 604 610>
LayerCount: 2
Fore
SplineSet
73 250 m 0
 73 264 86 260 111 265 c 0
 155 274 203 305 212 357 c 0
 214 367 214 376 214 386 c 2
 214 604 l 2
 214 641 219 662 239 686 c 0
 279 734 358 750 407 750 c 0
 421 750 425 744 425 739 c 0
 425 723 398 729 369 720 c 0
 289 694 284 633 284 610 c 2
 284 385 l 2
 284 363 287 281 165 250 c 1
 277 222 284 147 284 121 c 2
 284 -101 l 2
 284 -113 284 -125 286 -137 c 0
 295 -180 338 -219 401 -226 c 0
 409 -227 425 -227 425 -239 c 0
 425 -247 417 -250 408 -250 c 0
 325 -250 225 -215 215 -131 c 0
 214 -121 214 -112 214 -102 c 2
 214 117 l 2
 214 212 127 234 105 237 c 0
 91 239 73 237 73 250 c 0
EndSplineSet
EndChar

StartChar: bar
Encoding: 124 124 93
Width: 278
GlyphClass: 2
Flags: MW
TeX: 749 249
VStem: 118 40<-219 -212 -212 712 712 719>
LayerCount: 2
Fore
SplineSet
118 -219 m 2
 118 712 l 2
 118 728 118 749 138 749 c 0
 146 749 158 745 158 719 c 2
 158 -212 l 2
 158 -228 158 -249 138 -249 c 0
 120 -249 118 -231 118 -219 c 2
EndSplineSet
EndChar

StartChar: braceright
Encoding: 125 125 94
Width: 500
GlyphClass: 2
Flags: MW
TeX: 749 249
HStem: -250 30 726 24
VStem: 214 70<-110 -104 -104 114 378 383 383 601 601 602>
LayerCount: 2
Fore
SplineSet
73 -239 m 0
 73 -224 97 -230 129 -220 c 0
 209 -194 214 -133 214 -110 c 2
 214 115 l 2
 214 138 210 219 333 250 c 1
 221 278 214 352 214 378 c 2
 214 601 l 2
 214 613 214 625 212 637 c 0
 203 680 160 719 97 726 c 0
 89 727 73 726 73 738 c 0
 73 746 81 750 90 750 c 0
 173 750 273 715 283 631 c 0
 284 621 284 612 284 602 c 2
 284 383 l 2
 284 287 370 267 393 263 c 0
 407 261 425 262 425 250 c 0
 425 236 410 240 386 235 c 0
 342 226 295 195 286 143 c 0
 284 133 284 124 284 114 c 2
 284 -104 l 2
 284 -130 285 -172 236 -208 c 0
 190 -242 127 -250 91 -250 c 0
 75 -250 73 -244 73 -239 c 0
EndSplineSet
EndChar

StartChar: asciitilde
Encoding: 126 126 95
Width: 611
GlyphClass: 2
Flags: MW
TeX: 663 0
HStem: 574 46<377 434> 621 47<176 233>
LayerCount: 2
Fore
SplineSet
83 588 m 1
 116 626 144 668 208 668 c 0
 278 668 342 620 412 620 c 0
 459 620 484 642 510 668 c 1
 527 653 l 1
 496 617 466 574 402 574 c 0
 332 574 268 621 198 621 c 0
 151 621 126 600 100 574 c 1
 83 588 l 1
EndSplineSet
EndChar

StartChar: exclamdown
Encoding: 161 161 97
Width: 278
GlyphClass: 2
Flags: MW
TeX: 499 194
HStem: 395 105<124.5 151>
VStem: 85 105<433.5 462.5> 85 106<-180.5 -160.5 -182.5 -157.5> 124 36
LayerCount: 2
Fore
SplineSet
85 -164 m 0xa0
 85 -151 87 -138 89 -120 c 2
 124 287 l 2
 125 296 125 312 138 312 c 0
 155 312 151 295 160 197 c 2x90
 189 -144 l 2
 190 -151 191 -157 191 -164 c 0
 191 -201 160 -216 138 -216 c 0
 111 -216 85 -197 85 -164 c 0xa0
85 447 m 0xc0
 85 478 111 500 138 500 c 0
 166 500 190 478 190 447 c 0
 190 416 164 395 138 395 c 0
 107 395 85 420 85 447 c 0xc0
EndSplineSet
EndChar

StartChar: cent
Encoding: 162 162 98
Width: 500
GlyphClass: 2
Flags: MW
TeX: 523 97
HStem: -10 26<262 262> 420 26<262 262>
VStem: 33 84<171.5 274.5> 262 31<-97 -10 -97 -10 16 420 420 420 446 533> 369 91<327.5 346.5>
LayerCount: 2
Fore
SplineSet
33 215 m 0
 33 334 127 436 262 446 c 1
 262 533 l 1
 293 533 l 1
 293 446 l 1
 394 443 460 405 460 342 c 0
 460 310 439 294 415 294 c 0
 388 294 369 315 369 340 c 0
 369 353 373 380 414 386 c 1
 395 400 366 418 293 421 c 1
 293 15 l 1
 443 26 432 129 458 129 c 0
 465 129 470 125 470 118 c 0
 470 105 436 0 293 -10 c 1
 293 -97 l 1
 262 -97 l 1
 262 -10 l 1
 129 -1 33 97 33 215 c 0
117 216 m 0
 117 127 156 36 262 16 c 1
 262 420 l 1
 175 408 117 338 117 216 c 0
EndSplineSet
EndChar

StartChar: sterling
Encoding: 163 163 99
Width: 639
GlyphClass: 2
Flags: MW
TeX: 688 0
HStem: -11 23<127.5 150> -11 44<445 506.5 445 512.5> 94 45<137.5 175> 332 31<180 182 182 242 312 397> 475 91<523.5 538.5 523.5 544> 683 23<397 445>
VStem: 55 38<36.5 57.5 36.5 73.5> 242 70<219 332 363 506> 490 92<506.5 533.5> 583 27
LayerCount: 2
Fore
SplineSet
55 48 m 0xbfc0
 55 99 107 139 174 139 c 2
 175 139 l 2
 183 139 205 138 240 127 c 1
 243 156 242 188 242 219 c 2
 242 332 l 1
 182 332 l 2
 174 332 164 331 159 339 c 0
 157 342 156 345 156 348 c 0
 156 356 164 363 180 363 c 2
 242 363 l 1
 242 510 l 2
 242 648 341 706 416 706 c 0
 518 706 582 610 582 525 c 0
 582 484 552 475 536 475 c 0
 511 475 490 493 490 520 c 0
 490 547 511 566 536 566 c 0
 541 566 547 565 552 564 c 1
 530 645 472 683 418 683 c 0
 376 683 348 656 333 630 c 0
 312 592 312 548 312 506 c 2
 312 363 l 1
 397 363 l 2
 411 362 425 362 425 348 c 0
 425 335 417 332 401 332 c 2
 312 332 l 1
 312 185 l 2
 312 152 309 133 298 102 c 1
 348 77 414 33 476 33 c 0
 537 33 575 77 583 122 c 0
 584 128 585 148 596 148 c 0
 598 148 600 148 603 146 c 0
 608 143 610 138 610 130 c 0
 610 78 562 -11 463 -11 c 0x7fc0
 397 -11 321 35 275 60 c 1
 224 -6 161 -11 139 -11 c 0
 89 -11 55 12 55 48 c 0xbfc0
93 47 m 0
 93 26 115 12 140 12 c 0xbfc0
 175 12 210 37 228 81 c 1
 196 93 174 94 161 94 c 0
 114 94 93 68 93 47 c 0
EndSplineSet
EndChar

StartChar: currency
Encoding: 164 164 100
Width: 736
GlyphClass: 2
Flags: MW
TeX: 553 0
HStem: -11 40<330 389> 524 40<347 407 347 438>
VStem: 80 40<255.5 315> 615 40<256 298 256 343>
LayerCount: 2
Fore
SplineSet
46 -24 m 0
 48 -13 49 -14 151 88 c 1
 89 159 80 234 80 277 c 0
 80 353 107 413 151 466 c 1
 47 570 46 567 46 580 c 0
 46 589 55 598 63 598 c 2
 65 598 l 2
 77 598 83 591 179 494 c 1
 180 494 l 1
 252 555 326 564 368 564 c 0
 446 564 506 536 557 494 c 1
 655 592 658 598 671 598 c 0
 678 598 689 593 689 579 c 0
 689 566 655 535 585 466 c 1
 585 465 l 1
 646 393 655 319 655 277 c 0
 655 235 646 160 585 89 c 1
 585 88 l 1
 689 -15 689 -15 689 -26 c 0
 689 -35 681 -45 670 -45 c 0
 659 -45 660 -44 556 60 c 1
 485 -2 410 -11 368 -11 c 0
 292 -11 229 18 180 60 c 1
 179 60 l 1
 76 -44 76 -45 65 -45 c 0
 54 -45 45 -35 46 -24 c 0
120 277 m 0
 120 137 234 29 368 29 c 0
 500 29 615 136 615 277 c 0
 615 409 508 524 368 524 c 0
 235 524 120 417 120 277 c 0
EndSplineSet
EndChar

StartChar: yen
Encoding: 165 165 101
Width: 750
GlyphClass: 2
Flags: MW
TeX: 688 0
ItalicCorrection: 24
HStem: 0 31<228 238> 219 23<87.5 331 95 331 95 331 418 654 654 656> 413 23<89 231 104 230 347 467 347 347 518 520 520 645 645 654> 652 31<11 11 11 20>
VStem: 331 87<78 219 242 257>
LayerCount: 2
Fore
SplineSet
11 652 m 1
 11 683 l 1
 49 681 88 680 139 680 c 0
 189 680 239 681 289 683 c 1
 289 652 l 1
 283 652 l 2
 267 652 220 652 220 627 c 0
 220 615 238 592 333 436 c 1
 481 436 l 1
 580 598 582 596 582 614 c 0
 582 630 571 650 526 652 c 1
 526 683 l 1
 565 681 604 680 643 680 c 0
 681 680 709 681 738 683 c 1
 738 652 l 1
 685 651 648 636 620 601 c 0
 608 586 599 569 518 436 c 1
 645 436 l 2
 664 436 667 436 672 434 c 0
 677 432 681 425 678 420 c 0
 674 413 664 413 654 413 c 2
 520 413 l 2
 506 413 504 412 493 395 c 0
 418 273 418 278 418 257 c 2
 418 242 l 1
 654 242 l 2
 666 242 678 241 678 230 c 0
 678 220 667 219 656 219 c 2
 418 219 l 1
 418 77 l 2
 418 35 431 31 511 31 c 2
 521 31 l 1
 521 0 l 1
 479 1 437 3 381 3 c 0
 330 3 279 2 228 0 c 1
 228 31 l 1
 238 31 l 2
 319 31 331 36 331 78 c 2
 331 219 l 1
 93 219 l 2
 82 219 70 220 70 230 c 0
 70 241 83 242 95 242 c 2
 331 242 l 1
 331 258 l 2
 331 278 332 271 256 395 c 0
 245 412 243 413 230 413 c 2
 95 413 l 2
 83 413 70 413 70 425 c 0
 70 432 80 436 104 436 c 2
 231 436 l 1
 125 609 l 2
 98 652 81 652 20 652 c 2
 11 652 l 1
347 413 m 1
 407 315 l 1
 467 413 l 1
 347 413 l 1
EndSplineSet
EndChar

StartChar: brokenbar
Encoding: 166 166 102
Width: 167
GlyphClass: 2
Flags: MW
TeX: 749 249
VStem: 63 40<-219 -218 -218 140 140 142 359 718>
LayerCount: 2
Fore
SplineSet
63 140 m 2
 63 155 66 172 83 172 c 0
 92 172 103 165 103 142 c 2
 103 -218 l 2
 103 -224 104 -249 83 -249 c 0
 76 -249 63 -245 63 -219 c 2
 63 140 l 2
63 359 m 2
 63 718 l 2
 63 744 75 749 83 749 c 0
 91 749 103 744 103 718 c 2
 103 359 l 2
 103 333 91 328 83 328 c 0
 75 328 63 333 63 359 c 2
EndSplineSet
EndChar

StartChar: section
Encoding: 167 167 103
Width: 444
GlyphClass: 2
Flags: MW
TeX: 688 194
HStem: -205 22<209.5 256 209.5 264.5> -118 69 548 70 682 23<187 233.5>
VStem: 69 45<225.5 287 220.5 289 520 581> 83 69<-88 -73 -88 -72> 291 69<573 588> 329 45<-82.5 -21 230.5 274.5>
LayerCount: 2
Fore
SplineSet
69 255 m 0xf9
 69 323 109 368 148 390 c 1
 121 416 69 466 69 550 c 0
 69 642 142 705 222 705 c 0
 303 705 360 644 360 586 c 0
 360 556 337 548 325 548 c 0
 307 548 291 563 291 583 c 0
 291 593 297 616 328 618 c 1
 302 674 244 682 223 682 c 0
 151 682 114 608 114 554 c 0xfa
 114 486 198 458 237 441 c 0
 341 394 374 304 374 245 c 0
 374 216 366 151 295 110 c 1
 338 70 374 21 374 -51 c 0
 374 -135 308 -205 221 -205 c 0
 140 -205 83 -145 83 -87 c 0
 83 -57 106 -49 118 -49 c 0
 136 -49 152 -63 152 -83 c 0xf5
 152 -93 146 -116 115 -118 c 1
 141 -174 199 -183 220 -183 c 0
 292 -183 329 -110 329 -55 c 0
 329 13 245 41 206 58 c 0
 102 105 69 196 69 255 c 0xf9
114 258 m 0
 114 183 205 162 254 136 c 0
 260 133 264 131 269 131 c 0
 286 131 329 179 329 240 c 0xf9
 329 316 235 339 189 363 c 0
 184 366 179 369 174 369 c 0
 153 369 114 316 114 258 c 0
EndSplineSet
EndChar

StartChar: dieresis
Encoding: 168 168 104
Width: 500
GlyphClass: 2
Flags: MW
TeX: 663 0
HStem: 554 105<138.5 165 138.5 165 333.5 360>
VStem: 100 105<592.5 621.5> 294 105<592.5 621.5>
LayerCount: 2
Fore
SplineSet
100 606 m 0
 100 637 125 659 152 659 c 0
 178 659 205 637 205 606 c 0
 205 575 178 554 152 554 c 0
 121 554 100 579 100 606 c 0
294 606 m 0
 294 637 320 659 347 659 c 0
 375 659 399 637 399 606 c 0
 399 575 373 554 347 554 c 0
 316 554 294 579 294 606 c 0
EndSplineSet
EndChar

StartChar: copyright
Encoding: 169 169 105
Width: 1111
GlyphClass: 2
Flags: MW
TeX: 749 249
HStem: -272 40<431 678 431 688> -22 31<546 620.5 546 636> 469 31<546.5 594 486.5 650> 732 40<432 678>
VStem: 55 40<112 386.5 112 401.5> 277 103<168.5 312> 750 27 1014 40<114.5 387.5>
LayerCount: 2
Fore
SplineSet
277 239 m 0
 277 385 410 500 563 500 c 0
 625 500 668 478 705 445 c 1
 706 445 l 1
 735 477 755 499 765 499 c 0
 774 499 777 490 777 478 c 2
 777 314 l 2
 777 297 773 296 770 293 c 0
 763 288 752 290 748 298 c 0
 748 299 724 469 576 469 c 0
 517 469 380 442 380 240 c 0
 380 38 515 9 577 9 c 0
 664 9 741 67 750 155 c 0
 751 163 751 178 765 178 c 0
 775 178 777 169 777 159 c 0
 777 91 708 -22 564 -22 c 0
 405 -22 277 98 277 239 c 0
55 250 m 0
 55 553 293 772 555 772 c 0
 823 772 1054 545 1054 250 c 0
 1054 -47 822 -272 554 -272 c 0
 286 -272 55 -45 55 250 c 0
95 249 m 0
 95 -25 309 -232 553 -232 c 0
 803 -232 1014 -21 1014 250 c 0
 1014 525 800 732 556 732 c 0
 308 732 95 524 95 249 c 0
EndSplineSet
EndChar

StartChar: ordfeminine
Encoding: 170 170 106
Width: 444
GlyphClass: 2
Flags: MW
TeX: 749 0
HStem: 312 23<65 66 66 375> 364 23<165 199 165 200.5> 370 32<319 377> 507 21<270 270> 555 91<113.5 129 113.5 130> 743 23<173.5 207.5>
VStem: 41 79<420 456 420 462> 70 92<589 613.5 589 637.5> 270 70<463 507 507 507 528 573 573 578> 413 25<430 432 432 455 411 455>
LayerCount: 2
Fore
SplineSet
41 434 m 0xdec0
 41 490 128 525 270 528 c 1
 270 573 l 2
 270 705 223 743 192 743 c 0
 155 743 116 715 100 645 c 1
 105 646 111 646 116 646 c 0
 142 646 162 626 162 601 c 0
 162 577 144 555 116 555 c 0
 104 555 70 561 70 607 c 0
 70 668 106 766 195 766 c 0
 251 766 340 718 340 578 c 2
 340 431 l 2
 340 415 343 402 377 402 c 0
 409 403 413 412 413 430 c 2
 413 455 l 1
 438 455 l 1
 438 432 l 2
 438 390 426 372 332 370 c 2
 319 370 l 2xbdc0
 294 371 285 380 278 410 c 1
 259 385 230 364 171 364 c 0
 107 364 41 378 41 434 c 0xdec0
46 323 m 0
 46 328 49 335 65 335 c 2
 375 335 l 2
 389 335 397 332 397 324 c 0
 397 313 386 312 375 312 c 2
 66 312 l 2
 53 312 46 317 46 323 c 0
120 434 m 0xdec0
 120 406 148 387 182 387 c 0
 216 387 252 401 265 428 c 0
 270 439 270 451 270 463 c 2
 270 507 l 1
 185 504 120 478 120 434 c 0xdec0
EndSplineSet
EndChar

StartChar: guillemotleft
Encoding: 171 171 107
Width: 555
GlyphClass: 2
Flags: MW
TeX: 483 0
VStem: 304 26 470 27
LayerCount: 2
Fore
SplineSet
113 242 m 0
 113 249 121 254 129 260 c 0
 280 369 300 481 321 481 c 0
 327 481 330 477 330 473 c 0
 330 456 289 347 185 241 c 1
 282 147 330 29 330 11 c 0
 330 7 327 2 321 2 c 0
 311 2 305 17 304 20 c 0
 262 102 203 169 130 222 c 0
 123 227 113 234 113 242 c 0
279 241 m 0
 279 262 377 291 470 464 c 0
 477 477 480 481 487 481 c 0
 493 481 497 477 497 473 c 0
 497 456 455 347 351 241 c 1
 448 147 497 29 497 11 c 0
 497 7 493 2 487 2 c 0
 477 2 471 17 470 20 c 0
 389 177 279 225 279 241 c 0
EndSplineSet
Substitution2: "'locl' +rW2sAAAA,+ycDF7QAA +rODHINYV in +t3zS9AAA +x5AA lookup 14 subtable" guillemotleft.lat
AlternateSubs2: "'salt' +wqTQwMd8ua0A +swDFSNYV in +t3zS9AAA +x5AA lookup 11 subtable" guillemotleft.lat
Substitution2: "'locl' +rW2sAAAA,+ycDF7QAA +rODHINYV in +rfi5rQAA +x5AA lookup 6 subtable" guillemotleft.gr
AlternateSubs2: "'salt' +wqTQwMd8ua0A +swDFSNYV in +rfi5rQAA +x5AA lookup 5 subtable" guillemotleft.gr
EndChar

StartChar: logicalnot
Encoding: 172 172 108
Width: 667
GlyphClass: 2
Flags: MW
TeX: 437 0
HStem: 316 40<85 88 88 570>
VStem: 570 40<119 122 122 316 316 316>
LayerCount: 2
Fore
SplineSet
56 336 m 0
 56 355 77 356 85 356 c 2
 579 356 l 2
 604 356 610 348 610 323 c 2
 610 122 l 2
 610 114 610 91 590 91 c 0
 571 91 570 111 570 119 c 2
 570 316 l 1
 88 316 l 2
 72 316 56 319 56 336 c 0
EndSplineSet
EndChar

StartChar: uni00AD
Encoding: 173 173 109
Width: 167
GlyphClass: 2
Flags: MW
TeX: 430 0
HStem: 186 59<10 276 10 276>
VStem: 10 266<186 245 186 245>
LayerCount: 2
Fore
SplineSet
10 186 m 1
 10 245 l 1
 276 245 l 1
 276 186 l 1
 10 186 l 1
EndSplineSet
EndChar

StartChar: registered
Encoding: 174 174 110
Width: 1111
GlyphClass: 2
Flags: MW
TeX: 749 249
HStem: -272 40<431 678 431 688> -22 23<769.5 816.5 769.5 822> 0 31<242 255> 228 22<431 506 506 516 431 506> 447 31<242 254 242 510 454.5 476 476 510 510 516> 732 40<432 678>
VStem: 55 40<112 386.5 112 401.5> 345 86<78 228 250 400 400 402> 659 103<327.5 374.5 327.5 388.5> 850 23 1014 40<114.5 387.5>
LayerCount: 2
Fore
SplineSet
242 0 m 1xbfe0
 242 31 l 1
 255 31 l 2xbfe0
 334 31 345 38 345 78 c 2
 345 400 l 2
 345 441 334 447 254 447 c 2
 242 447 l 1
 242 478 l 1
 510 478 l 2
 700 478 762 400 762 349 c 0
 762 306 721 262 622 237 c 1
 720 204 708 151 732 63 c 0
 738 40 752 1 787 1 c 0
 846 1 846 83 850 90 c 0
 852 94 857 97 861 97 c 0
 867 97 873 92 873 80 c 0
 873 59 861 -22 783 -22 c 0xdfe0
 697 -22 621 4 623 97 c 2
 623 138 l 2
 623 200 579 228 516 228 c 2
 431 228 l 1
 431 78 l 2
 431 36 444 31 525 31 c 2
 534 31 l 1
 534 0 l 1
 485 2 437 3 388 3 c 0
 339 3 291 2 242 0 c 1xbfe0
431 250 m 1
 506 250 l 2
 569 250 659 254 659 349 c 0
 659 428 605 447 516 447 c 2
 476 447 l 2
 433 447 431 434 431 402 c 2
 431 250 l 1
55 250 m 0x8620
 55 553 293 772 555 772 c 0
 823 772 1054 545 1054 250 c 0
 1054 -47 822 -272 554 -272 c 0
 286 -272 55 -45 55 250 c 0x8620
95 249 m 0
 95 -25 309 -232 553 -232 c 0
 803 -232 1014 -21 1014 250 c 0
 1014 525 800 732 556 732 c 0
 308 732 95 524 95 249 c 0
EndSplineSet
EndChar

StartChar: macron
Encoding: 175 175 111
Width: 500
GlyphClass: 2
Flags: MW
TeX: 663 0
HStem: 649 32<69 429 69 429>
LayerCount: 2
Fore
SplineSet
69 649 m 1
 69 681 l 1
 429 681 l 1
 429 649 l 1
 69 649 l 1
EndSplineSet
EndChar

StartChar: degree
Encoding: 176 176 112
Width: 333
GlyphClass: 2
Flags: MW
TeX: 688 0
HStem: 462 40<147.5 185 147.5 196> 643 40<147 184.5>
VStem: 55 40<551.5 592 551.5 602.5> 236 41<552 592.5>
LayerCount: 2
Fore
SplineSet
55 572 m 0
 55 633 105 683 166 683 c 0
 231 683 277 630 277 573 c 0
 277 512 226 462 166 462 c 0
 101 462 55 515 55 572 c 0
95 572 m 0
 95 531 129 502 166 502 c 0
 204 502 236 532 236 572 c 0
 236 613 203 643 166 643 c 0
 128 643 95 612 95 572 c 0
EndSplineSet
EndChar

StartChar: plusminus
Encoding: 177 177 113
Width: 778
GlyphClass: 2
Flags: MW
TeX: 583 83
HStem: 0 40<84 86 86 368 408 690 690 691> 313 40<79.5 368 86 368 408 690> 645 20G<378.5 397>
VStem: 368 40<40 313 40 313 353 635>
LayerCount: 2
Fore
SplineSet
56 20 m 0
 56 28 61 39 84 40 c 2
 368 40 l 1
 368 313 l 1
 86 313 l 2
 73 313 56 315 56 333 c 0
 56 351 74 353 86 353 c 2
 368 353 l 1
 368 635 l 2
 368 647 369 665 388 665 c 0
 406 665 408 647 408 635 c 2
 408 353 l 1
 690 353 l 2
 702 353 720 351 720 333 c 0
 720 315 703 313 690 313 c 2
 408 313 l 1
 408 40 l 1
 690 40 l 2
 700 40 720 39 720 20 c 0
 720 4 706 0 691 0 c 2
 86 0 l 2
 61 0 56 12 56 20 c 0
EndSplineSet
EndChar

StartChar: twosuperior
Encoding: 178 178 114
Width: 444
GlyphClass: 2
Flags: MW
TeX: 749 0
HStem: 347 78<50 262 118 262 262 305.5 118 366> 741 31<173.5 225.5>
VStem: 50 105<650 680.5 650 698> 302 92<599.5 665> 369 25<522 522>
LayerCount: 2
Fore
SplineSet
50 347 m 1xe8
 50 393 l 2
 50 413 58 416 74 426 c 0
 234 528 302 562 302 637 c 0
 302 693 260 741 191 741 c 0
 156 741 131 731 110 717 c 1
 134 713 155 696 155 665 c 0
 155 635 131 613 103 613 c 0
 74 613 50 634 50 666 c 0
 50 730 119 772 210 772 c 0
 316 772 394 718 394 637 c 0xf0
 394 543 282 516 213 478 c 2
 118 425 l 1
 262 425 l 2
 349 425 348 426 357 460 c 0
 362 480 366 501 369 522 c 1
 394 522 l 1
 366 347 l 1
 50 347 l 1xe8
EndSplineSet
EndChar

StartChar: threesuperior
Encoding: 179 179 115
Width: 444
GlyphClass: 2
Flags: MW
TeX: 749 0
HStem: 336 29<215 244.5 180.5 270.5> 573 102<116.5 133 116.5 134> 747 25<200 229.5>
VStem: 41 112<417 449.5 417 450> 69 101<609 639 609 661> 281 92<655 704 652.5 705.5> 298 103<432 481.5 425 492>
LayerCount: 2
Fore
SplineSet
41 432 m 0xf2
 41 468 67 489 97 489 c 0
 127 489 153 466 153 433 c 0
 153 401 131 388 114 380 c 1
 123 377 152 365 209 365 c 0
 280 365 298 410 298 454 c 0xf2
 298 530 251 548 209 548 c 2
 188 548 l 2
 177 548 167 551 167 560 c 0
 167 577 209 570 230 579 c 0
 261 592 281 632 281 678 c 0
 281 733 245 747 214 747 c 0
 186 747 135 734 105 673 c 1
 111 674 114 675 119 675 c 0
 147 675 170 654 170 624 c 0
 170 594 148 573 120 573 c 0
 102 573 69 584 69 627 c 0
 69 695 124 772 219 772 c 0
 299 772 373 733 373 675 c 0xec
 373 630 343 590 271 563 c 1
 344 551 401 507 401 456 c 0
 401 394 326 336 215 336 c 0
 67 337 41 394 41 432 c 0xf2
EndSplineSet
EndChar

StartChar: acute
Encoding: 180 180 116
Width: 500
GlyphClass: 2
Flags: MW
TeX: 641 0
HStem: 490 152<229 374.5>
VStem: 214 185<510 613>
LayerCount: 2
Fore
SplineSet
214 510 m 1
 339 631 345 642 364 642 c 0
 385 642 399 621 399 605 c 0
 399 582 376 573 364 566 c 0
 256 505 243 497 229 490 c 1
 214 510 l 1
EndSplineSet
EndChar

StartChar: uni00B5
Encoding: 181 181 117
Width: 555
GlyphClass: 2
Flags: MW
TeX: 437 194
HStem: -195 31<31 41> -11 23<239.5 281.5> 0 31<529 534> 400 30<31 45 31 31> 421 20G<179 179 456 456>
VStem: 109 70<-113 2 91 118 118 342 342 369.5> 386 70<199 350 350 350>
LayerCount: 2
Fore
SplineSet
31 -164 m 1xc6
 41 -164 l 2
 107 -164 109 -154 109 -113 c 2
 109 342 l 2
 109 397 92 398 45 400 c 2
 31 400 l 1
 31 430 l 1xd6
 179 441 l 1x8e
 179 118 l 2
 179 64 180 12 266 12 c 0
 314 12 387 48 387 174 c 0
 387 182 386 191 386 199 c 2
 386 350 l 2
 385 393 368 400 314 400 c 2
 309 400 l 1
 309 430 l 1xd6
 456 441 l 1
 456 83 l 2
 456 38 473 31 529 31 c 2
 534 31 l 1
 534 0 l 1xae
 389 -11 l 1
 389 77 l 1
 356 4 303 -11 260 -11 c 0
 219 -11 194 -3 179 2 c 1
 179 -119 l 2
 179 -158 187 -164 251 -164 c 2
 256 -164 l 1
 256 -195 l 1
 217 -193 179 -192 140 -192 c 2
 136 -192 l 2
 122 -192 89 -192 31 -195 c 1
 31 -164 l 1xc6
EndSplineSet
EndChar

StartChar: paragraph
Encoding: 182 182 118
Width: 611
GlyphClass: 2
Flags: MW
TeX: 688 194
HStem: -195 40<286.5 350 305 350 390 459 499 546 546 552> 654 40<390 459 390 390 499 548 548 550 499 499>
VStem: 55 335<393 509.5> 350 40<-155 230 230 230> 459 40<-155 654 -155 654>
LayerCount: 2
Fore
SplineSet
55 463 m 0xe8
 55 556 126 694 318 694 c 2
 548 694 l 2
 562 694 581 693 581 674 c 0
 581 656 564 654 550 654 c 2
 499 654 l 1
 499 -155 l 1
 546 -155 l 2
 562 -155 581 -155 581 -175 c 0
 581 -193 563 -195 552 -195 c 2
 297 -195 l 2
 276 -195 268 -185 268 -175 c 0
 268 -156 285 -154 297 -154 c 0
 300 -154 303 -155 305 -155 c 2
 350 -155 l 1
 350 230 l 1xd8
 190 238 55 323 55 463 c 0xe8
390 -155 m 1
 459 -155 l 1
 459 654 l 1
 390 654 l 1
 390 -155 l 1
EndSplineSet
EndChar

StartChar: periodcentered
Encoding: 183 183 119
Width: 278
GlyphClass: 2
Flags: MW
TeX: 437 0
HStem: 189 105<122.5 151>
VStem: 85 105<228.5 255.5>
LayerCount: 2
Fore
SplineSet
85 242 m 0
 85 269 107 294 138 294 c 0
 166 294 190 273 190 242 c 0
 190 211 164 189 138 189 c 0
 107 189 85 215 85 242 c 0
EndSplineSet
EndChar

StartChar: cedilla
Encoding: 184 184 120
Width: 444
GlyphClass: 2
Flags: MW
TeX: 0 170
HStem: -204 23<103 115 115 147 103 115> -71 71<187 257>
VStem: 187 70<-54 0 -54 0 -54 0> 269 70<-148 -115>
LayerCount: 2
Fore
SplineSet
103 -181 m 1
 115 -181 l 2
 210 -181 269 -170 269 -126 c 0
 269 -104 252 -74 187 -71 c 1
 187 0 l 1
 257 0 l 1
 257 -54 l 1
 270 -57 339 -68 339 -126 c 0
 339 -200 213 -204 147 -204 c 2
 103 -204 l 1
 103 -181 l 1
EndSplineSet
EndChar

StartChar: onesuperior
Encoding: 185 185 121
Width: 444
GlyphClass: 2
Flags: MW
TeX: 749 0
HStem: 347 1<362 362 362 374> 347 31<83 95 83 102 355 374> 666 31<69 69>
VStem: 192 75<425 696 696 696>
LayerCount: 2
Fore
SplineSet
69 666 m 1x70
 69 697 l 1
 203 699 231 771 253 771 c 0
 268 771 267 755 267 740 c 2
 267 424 l 2
 267 385 279 378 355 378 c 2
 374 378 l 1
 374 347 l 1
 323 347 l 1x70
 362 348 l 1xb0
 284 349 l 1
 160 349 l 1
 95 347 l 1
 83 347 l 1
 83 378 l 1
 102 378 l 2
 180 378 192 385 192 425 c 2
 192 696 l 1
 159 679 126 667 69 666 c 1x70
EndSplineSet
EndChar

StartChar: ordmasculine
Encoding: 186 186 122
Width: 444
GlyphClass: 2
Flags: MW
TeX: 749 0
HStem: 312 23<64 66 66 374> 364 26<207 225 207 276> 743 23<217 235>
VStem: 27 84<540 564 564 576 540 619> 332 83<560 582 582 608>
LayerCount: 2
Fore
SplineSet
27 561 m 0
 27 677 117 766 221 766 c 0
 324 766 415 678 415 561 c 0
 415 453 331 364 221 364 c 0
 111 364 27 454 27 561 c 0
46 323 m 0
 46 332 55 335 64 335 c 2
 374 335 l 2
 384 335 397 334 397 324 c 0
 397 313 380 312 374 312 c 2
 66 312 l 2
 49 312 46 319 46 323 c 0
111 564 m 2
 111 516 111 459 147 422 c 0
 166 402 193 390 221 390 c 0
 229 390 268 390 299 425 c 0
 331 462 332 519 332 560 c 2
 332 582 l 2
 332 634 329 679 295 713 c 0
 276 732 249 743 221 743 c 0
 213 743 173 743 142 707 c 0
 111 671 111 621 111 576 c 2
 111 564 l 2
EndSplineSet
EndChar

StartChar: guillemotright
Encoding: 187 187 123
Width: 555
GlyphClass: 2
Flags: W
TeX: 483 0
LayerCount: 2
Fore
SplineSet
57 11 m 0
 57 23 93 130 203 242 c 1
 107 336 57 454 57 472 c 0
 57 476 60 481 66 481 c 0
 73 481 76 477 83 464 c 0
 166 303 275 261 275 242 c 0
 275 224 172 185 83 20 c 0
 76 7 73 2 66 2 c 0
 60 2 57 7 57 11 c 0
223 11 m 0
 223 23 258 129 369 242 c 1
 273 336 223 454 223 472 c 0
 223 476 227 481 233 481 c 0
 240 481 243 477 250 464 c 0
 333 303 441 261 441 242 c 0
 441 224 339 185 250 20 c 0
 243 7 240 2 233 2 c 0
 227 2 223 7 223 11 c 0
EndSplineSet
Substitution2: "'locl' +rW2sAAAA,+ycDF7QAA +rODHINYV in +t3zS9AAA +x5AA lookup 14 subtable" guillemotright.lat
AlternateSubs2: "'salt' +wqTQwMd8ua0A +swDFSNYV in +t3zS9AAA +x5AA lookup 11 subtable" guillemotright.lat
Substitution2: "'locl' +rW2sAAAA,+ycDF7QAA +rODHINYV in +rfi5rQAA +x5AA lookup 6 subtable" guillemotright.gr
AlternateSubs2: "'salt' +wqTQwMd8ua0A +swDFSNYV in +rfi5rQAA +x5AA lookup 5 subtable" guillemotright.gr
EndChar

StartChar: onequarter
Encoding: 188 188 124
Width: 444
GlyphClass: 2
Flags: MW
TeX: 749 194
HStem: -195 31<141 155> -94 31<58 238 316 416> 258 40<25 401 40 401 401 405> 338 31<82 96> 701 31<69 90>
VStem: 192 75<416 716 716 716> 243 73<-63 163 163 163>
LayerCount: 2
Fore
SplineSet
8 278 m 0xf8
 8 296 26 298 40 298 c 2
 401 298 l 2
 415 298 434 298 434 277 c 0
 434 274 433 258 405 258 c 2
 37 258 l 2
 13 258 8 270 8 278 c 0xf8
27 -79 m 2
 27 -63 28 -62 47 -39 c 2
 259 220 l 2
 277 242 283 250 298 250 c 0
 315 250 316 239 316 225 c 2
 316 -63 l 1
 416 -63 l 1
 416 -94 l 1
 316 -94 l 1
 316 -120 l 2xfa
 317 -156 328 -164 398 -164 c 2
 413 -164 l 1
 413 -195 l 1
 374 -194 335 -192 283 -192 c 0
 236 -192 188 -193 141 -195 c 1
 141 -164 l 1
 155 -164 l 2
 225 -164 237 -156 238 -120 c 2
 238 -94 l 1
 27 -94 l 1
 27 -79 l 2
58 -63 m 1
 243 -63 l 1
 243 163 l 1
 58 -63 l 1
69 701 m 1
 69 732 l 1
 212 732 227 772 251 772 c 0
 268 772 267 757 267 740 c 2
 267 415 l 2
 267 374 281 369 362 369 c 2
 374 369 l 1
 374 338 l 1
 324 340 274 341 224 341 c 0
 196 341 167 341 82 338 c 1
 82 369 l 1
 96 369 l 2
 179 369 192 374 192 416 c 2
 192 716 l 1xfc
 152 704 111 701 69 701 c 1
EndSplineSet
EndChar

StartChar: onehalf
Encoding: 189 189 125
Width: 444
GlyphClass: 2
Flags: MW
TeX: 749 194
HStem: -195 78<144 242 242 297 144 366> -40 20G<368 393 393 393> 209 31<173.5 221.5> 258 40<25 401 40 401 401 405> 338 31<82 96> 701 31<69 90>
VStem: 50 104<134 163 132.5 171> 192 75<416 716 716 716> 302 91<92 145> 368 25<-20 -20>
LayerCount: 2
Fore
SplineSet
8 278 m 0xff
 8 296 26 298 40 298 c 2
 401 298 l 2
 415 298 434 298 434 277 c 0
 434 274 433 258 405 258 c 2
 37 258 l 2
 13 258 8 270 8 278 c 0xff
49 -187 m 2
 49 -165 41 -178 222 -17 c 0
 262 18 302 65 302 119 c 0
 302 173 256 209 187 209 c 0
 160 209 140 204 121 197 c 1
 135 191 154 178 154 148 c 0
 154 117 131 96 102 96 c 0
 71 96 50 119 50 149 c 0
 50 193 92 240 207 240 c 0
 356 240 393 170 393 120 c 0xff80
 393 34 305 -1 242 -46 c 2
 144 -117 l 1
 242 -117 l 2
 352 -117 347 -116 356 -82 c 0
 361 -62 365 -41 368 -20 c 1
 393 -20 l 1xff40
 366 -195 l 1
 49 -195 l 1
 49 -187 l 2
69 701 m 1
 69 732 l 1
 212 732 227 772 251 772 c 0
 268 772 267 757 267 740 c 2
 267 415 l 2
 267 374 281 369 362 369 c 2
 374 369 l 1
 374 338 l 1
 324 340 274 341 224 341 c 0
 196 341 167 341 82 338 c 1
 82 369 l 1
 96 369 l 2
 179 369 192 374 192 416 c 2
 192 716 l 1
 152 704 111 701 69 701 c 1
EndSplineSet
EndChar

StartChar: threequarters
Encoding: 190 190 126
Width: 444
GlyphClass: 2
Flags: MW
TeX: 749 194
HStem: -195 31<141 155> -94 31<58 238 316 416> 258 40<25 401 40 401 401 405> 315 29<185.5 222.5 185.5 271> 605 101<114 115 115 134.5> 746 26<183 229>
VStem: 41 112<405.5 431.5 405.5 431.5> 69 102<642 665 642 688> 243 73<-63 163 163 163> 281 93<648 702 648 703> 298 103<408.5 467>
LayerCount: 2
Fore
SplineSet
8 278 m 0xfc20
 8 296 26 298 40 298 c 2
 401 298 l 2
 415 298 434 298 434 277 c 0
 434 274 433 258 405 258 c 2
 37 258 l 2
 13 258 8 270 8 278 c 0xfc20
27 -79 m 2
 27 -63 28 -62 47 -39 c 2
 259 220 l 2
 277 242 283 250 298 250 c 0xfc20
 315 250 316 239 316 225 c 2
 316 -63 l 1
 416 -63 l 1
 416 -94 l 1
 316 -94 l 1
 316 -120 l 2xfc80
 317 -156 328 -164 398 -164 c 2
 413 -164 l 1
 413 -195 l 1
 374 -194 334 -192 282 -192 c 0
 235 -192 188 -193 141 -195 c 1
 141 -164 l 1
 155 -164 l 2
 225 -164 237 -156 238 -120 c 2
 238 -94 l 1
 27 -94 l 1
 27 -79 l 2
41 414 m 0xfe20
 41 449 67 470 97 470 c 0
 127 470 153 448 153 415 c 0
 153 396 144 371 112 360 c 1
 130 353 161 344 210 344 c 0
 235 344 298 348 298 440 c 0xfe20
 298 519 254 539 210 539 c 2
 186 539 l 2
 172 539 167 544 167 550 c 0
 167 567 204 561 225 568 c 0
 258 579 281 619 281 674 c 0
 281 732 245 746 213 746 c 0
 153 746 121 713 114 706 c 1
 115 706 l 2
 160 706 171 674 171 656 c 0
 171 628 149 605 120 605 c 0
 92 605 69 626 69 657 c 0
 69 719 131 772 219 772 c 0
 299 772 374 732 374 672 c 0xfd40
 374 624 341 580 270 553 c 1
 345 540 401 494 401 440 c 0
 401 377 328 315 214 315 c 0
 141 315 41 335 41 414 c 0xfe20
58 -63 m 1
 243 -63 l 1
 243 163 l 1xfc80
 58 -63 l 1
EndSplineSet
EndChar

StartChar: questiondown
Encoding: 191 191 127
Width: 472
GlyphClass: 2
Flags: MW
TeX: 499 194
HStem: -205 22<182 249.5 182 275.5> -115 91<356.5 373 373 377 356.5 378> 395 105<208.5 235>
VStem: 55 84<-95 -45 -101 -32> 169 105<433.5 462.5> 209 26<275 280 280 286 243 290 243 290> 324 92<-79.5 -55.5>
LayerCount: 2
Fore
SplineSet
55 -69 m 0xf6
 55 5 101 28 131 60 c 0
 199 132 209 211 209 275 c 2
 209 290 l 2
 208 306 215 313 222 313 c 0
 232 313 235 302 235 286 c 2
 235 280 l 2
 235 206 230 118 170 28 c 0
 152 3 139 -14 139 -76 c 0
 139 -126 140 -183 224 -183 c 0
 275 -183 340 -168 378 -115 c 1
 373 -115 l 2
 337 -115 324 -90 324 -69 c 0
 324 -42 344 -24 369 -24 c 0
 385 -24 416 -34 416 -73 c 0
 416 -153 326 -205 225 -205 c 0
 81 -205 55 -121 55 -69 c 0xf6
169 447 m 0x28
 169 478 195 500 222 500 c 0
 250 500 274 478 274 447 c 0
 274 416 248 395 222 395 c 0
 191 395 169 420 169 447 c 0x28
EndSplineSet
EndChar

StartChar: Agrave
Encoding: 192 192 128
Width: 750
GlyphClass: 2
Flags: MW
TeX: 856 0
HStem: 0 31<32 32> 228 31<233 458 233 469 222 458> 696 20<351 383 367 398> 787 75
AnchorPoint: "Anchor-5" 375 831 basechar 0
AnchorPoint: "Anchor-4" 374 0 basechar 0
LayerCount: 2
Fore
SplineSet
234 825 m 0
 234 841 247 862 268 862 c 0
 282 862 290 856 436 765 c 1
 425 741 l 1
 410 745 395 750 276 787 c 0
 256 793 234 799 234 825 c 0
32 0 m 1
 32 31 l 1
 86 32 126 47 144 98 c 2
 351 696 l 2
 356 710 359 716 375 716 c 0
 391 716 393 709 398 696 c 2
 614 71 l 2
 625 38 639 31 699 31 c 2
 717 31 l 1
 717 0 l 1
 675 2 629 3 586 3 c 0
 548 3 478 3 442 0 c 1
 442 31 l 1
 469 31 525 31 525 61 c 0
 525 65 523 71 522 75 c 2
 469 228 l 1
 222 228 l 1
 176 97 l 2
 175 95 174 85 174 82 c 0
 174 56 199 31 249 31 c 1
 249 0 l 1
 217 1 165 3 134 3 c 0
 98 3 55 1 32 0 c 1
233 259 m 1
 458 259 l 1
 345 584 l 1
 233 259 l 1
EndSplineSet
Substitution2: "'locl' +rW2sAAAA,+ycDF7QAA +rODHINYV in +t3zS9AAA +x5AA lookup 13 subtable" Agrave.vn
AlternateSubs2: "'ss01' +wqTQwMd8wTjSuAAA-1 lookup 12 subtable" Agrave.vn
AlternateSubs2: "'salt' +wqTQwMd8ua0A +swDFSNYV in +t3zS9AAA +x5AA lookup 11 subtable" Agrave.vn
Substitution2: "'c2sc' +swC7OMeQxdDBHAAA +wYzWFbMAuzjHkLhc lookup 4 subtable" Agrave.sc
EndChar

StartChar: Aacute
Encoding: 193 193 129
Width: 750
GlyphClass: 2
Flags: MW
TeX: 856 0
HStem: 0 31<32 32> 228 31<233 458 233 469 222 458> 696 20<351 383 367 398> 788 74
VStem: 286 202<765 833>
AnchorPoint: "Anchor-5" 375 831 basechar 0
AnchorPoint: "Anchor-4" 374 0 basechar 0
LayerCount: 2
Fore
SplineSet
286 765 m 1
 439 860 440 862 454 862 c 0
 474 862 488 841 488 825 c 0
 488 795 451 789 446 788 c 0
 327 751 311 746 296 742 c 1
 286 765 l 1
32 0 m 1
 32 31 l 1
 86 32 126 47 144 98 c 2
 351 696 l 2
 356 710 359 716 375 716 c 0
 391 716 393 709 398 696 c 2
 614 71 l 2
 625 38 639 31 699 31 c 2
 717 31 l 1
 717 0 l 1
 675 2 629 3 586 3 c 0
 548 3 478 3 442 0 c 1
 442 31 l 1
 469 31 525 31 525 61 c 0
 525 65 523 71 522 75 c 2
 469 228 l 1
 222 228 l 1
 176 97 l 2
 175 95 174 85 174 82 c 0
 174 56 199 31 249 31 c 1
 249 0 l 1
 217 1 165 3 134 3 c 0
 98 3 55 1 32 0 c 1
233 259 m 1
 458 259 l 1
 345 584 l 1
 233 259 l 1
EndSplineSet
Substitution2: "'locl' +rW2sAAAA,+ycDF7QAA +rODHINYV in +t3zS9AAA +x5AA lookup 13 subtable" Aacute.vn
AlternateSubs2: "'ss01' +wqTQwMd8wTjSuAAA-1 lookup 12 subtable" Aacute.vn
AlternateSubs2: "'salt' +wqTQwMd8ua0A +swDFSNYV in +t3zS9AAA +x5AA lookup 11 subtable" Aacute.vn
Substitution2: "'c2sc' +swC7OMeQxdDBHAAA +wYzWFbMAuzjHkLhc lookup 4 subtable" Aacute.sc
EndChar

StartChar: Acircumflex
Encoding: 194 194 130
Width: 750
GlyphClass: 2
Flags: MW
TeX: 891 0
HStem: 0 31<32 32> 228 31<233 458 233 469 222 458> 696 20<351 383 367 398>
AnchorPoint: "Anchor-5" 375 871 basechar 0
AnchorPoint: "Anchor-4" 374 0 basechar 0
LayerCount: 2
Fore
SplineSet
241 761 m 1
 374 902 l 1
 375 902 l 1
 508 761 l 1
 491 744 l 1
 490 744 l 1
 375 849 l 1
 374 849 l 1
 259 744 l 1
 258 744 l 1
 241 761 l 1
32 0 m 1
 32 31 l 1
 86 32 126 47 144 98 c 2
 351 696 l 2
 356 710 359 716 375 716 c 0
 391 716 393 709 398 696 c 2
 614 71 l 2
 625 38 639 31 699 31 c 2
 717 31 l 1
 717 0 l 1
 675 2 629 3 586 3 c 0
 548 3 478 3 442 0 c 1
 442 31 l 1
 469 31 525 31 525 61 c 0
 525 65 523 71 522 75 c 2
 469 228 l 1
 222 228 l 1
 176 97 l 2
 175 95 174 85 174 82 c 0
 174 56 199 31 249 31 c 1
 249 0 l 1
 217 1 165 3 134 3 c 0
 98 3 55 1 32 0 c 1
233 259 m 1
 458 259 l 1
 345 584 l 1
 233 259 l 1
EndSplineSet
Substitution2: "'locl' +rW2sAAAA,+ycDF7QAA +rODHINYV in +t3zS9AAA +x5AA lookup 13 subtable" Acircumflex.vn
AlternateSubs2: "'ss01' +wqTQwMd8wTjSuAAA-1 lookup 12 subtable" Acircumflex.vn
AlternateSubs2: "'salt' +wqTQwMd8ua0A +swDFSNYV in +t3zS9AAA +x5AA lookup 11 subtable" Acircumflex.vn
Substitution2: "'c2sc' +swC7OMeQxdDBHAAA +wYzWFbMAuzjHkLhc lookup 4 subtable" Acircumflex.sc
EndChar

StartChar: Atilde
Encoding: 195 195 131
Width: 750
GlyphClass: 2
Flags: MW
TeX: 891 0
HStem: 0 31<32 32> 228 31<233 458 233 469 222 458> 696 20<351 383 367 398> 807 47<441.5 487> 845 46<262 307.5>
AnchorPoint: "Anchor-5" 375 861 basechar 0
AnchorPoint: "Anchor-4" 374 0 basechar 0
LayerCount: 2
Fore
SplineSet
180 823 m 1x10
 211 858 234 891 290 891 c 0x08
 345 891 414 854 469 854 c 0
 506 854 526 867 552 892 c 1
 569 876 l 1
 538 841 515 807 459 807 c 0x10
 404 807 335 845 280 845 c 0x08
 243 845 223 832 197 807 c 1
 180 823 l 1x10
32 0 m 1xe0
 32 31 l 1
 86 32 126 47 144 98 c 2
 351 696 l 2
 356 710 359 716 375 716 c 0
 391 716 393 709 398 696 c 2
 614 71 l 2
 625 38 639 31 699 31 c 2
 717 31 l 1
 717 0 l 1
 675 2 629 3 586 3 c 0
 548 3 478 3 442 0 c 1
 442 31 l 1
 469 31 525 31 525 61 c 0
 525 65 523 71 522 75 c 2
 469 228 l 1
 222 228 l 1
 176 97 l 2
 175 95 174 85 174 82 c 0
 174 56 199 31 249 31 c 1
 249 0 l 1
 217 1 165 3 134 3 c 0
 98 3 55 1 32 0 c 1xe0
233 259 m 1
 458 259 l 1
 345 584 l 1
 233 259 l 1
EndSplineSet
Substitution2: "'locl' +rW2sAAAA,+ycDF7QAA +rODHINYV in +t3zS9AAA +x5AA lookup 13 subtable" Atilde.vn
AlternateSubs2: "'ss01' +wqTQwMd8wTjSuAAA-1 lookup 12 subtable" Atilde.vn
AlternateSubs2: "'salt' +wqTQwMd8ua0A +swDFSNYV in +t3zS9AAA +x5AA lookup 11 subtable" Atilde.vn
Substitution2: "'c2sc' +swC7OMeQxdDBHAAA +wYzWFbMAuzjHkLhc lookup 4 subtable" Atilde.sc
EndChar

StartChar: Adieresis
Encoding: 196 196 132
Width: 750
GlyphClass: 2
Flags: MW
TeX: 891 0
HStem: 0 31<32 32> 228 31<233 458 233 469 222 458> 696 20<351 383 367 398> 761 105<261.5 290 459 487>
VStem: 225 105<800 826.5> 419 105<800.5 827 800.5 828.5>
AnchorPoint: "Anchor-5" 375 835 basechar 0
AnchorPoint: "Anchor-4" 374 0 basechar 0
LayerCount: 2
Fore
SplineSet
225 813 m 0
 225 840 246 866 277 866 c 0
 303 866 330 844 330 813 c 0
 330 782 303 761 277 761 c 0
 246 761 225 787 225 813 c 0
419 813 m 0
 419 844 444 866 471 866 c 0
 503 866 524 840 524 814 c 0
 524 787 502 761 472 761 c 0
 446 761 419 782 419 813 c 0
32 0 m 1
 32 31 l 1
 86 32 126 47 144 98 c 2
 351 696 l 2
 356 710 359 716 375 716 c 0
 391 716 393 709 398 696 c 2
 614 71 l 2
 625 38 639 31 699 31 c 2
 717 31 l 1
 717 0 l 1
 675 2 629 3 586 3 c 0
 548 3 478 3 442 0 c 1
 442 31 l 1
 469 31 525 31 525 61 c 0
 525 65 523 71 522 75 c 2
 469 228 l 1
 222 228 l 1
 176 97 l 2
 175 95 174 85 174 82 c 0
 174 56 199 31 249 31 c 1
 249 0 l 1
 217 1 165 3 134 3 c 0
 98 3 55 1 32 0 c 1
233 259 m 1
 458 259 l 1
 345 584 l 1
 233 259 l 1
EndSplineSet
Substitution2: "'c2sc' +swC7OMeQxdDBHAAA +wYzWFbMAuzjHkLhc lookup 4 subtable" Adieresis.sc
EndChar

StartChar: Aring
Encoding: 197 197 133
Width: 750
GlyphClass: 2
Flags: MW
TeX: 856 0
HStem: 0 31<32 32> 228 31<232 458 232 469 221 458> 891 22<360 388>
VStem: 279 25<787.5 830> 445 25<787.5 831 787.5 840.5>
LayerCount: 2
Fore
SplineSet
32 0 m 1
 32 31 l 1
 122 33 134 73 151 121 c 2
 329 632 l 2
 336 654 344 675 351 697 c 1
 292 720 279 771 279 804 c 0
 279 856 313 913 374 913 c 0
 433 913 470 858 470 804 c 0
 470 771 457 720 398 697 c 1
 608 90 l 2
 627 36 630 31 713 31 c 2
 717 31 l 1
 717 0 l 1
 653 3 615 3 589 3 c 0
 540 3 491 2 442 0 c 1
 442 31 l 1
 444 31 l 2
 476 31 523 32 523 63 c 0
 523 74 525 65 469 228 c 1
 221 228 l 1
 204 173 174 100 174 81 c 0
 174 63 189 33 248 31 c 1
 248 0 l 1
 209 2 170 3 131 3 c 0
 111 3 82 3 32 0 c 1
232 259 m 1
 458 259 l 1
 345 584 l 1
 232 259 l 1
304 805 m 0
 304 730 347 717 375 717 c 0
 403 717 445 731 445 803 c 0
 445 878 402 891 374 891 c 0
 346 891 304 877 304 805 c 0
EndSplineSet
Substitution2: "'c2sc' +swC7OMeQxdDBHAAA +wYzWFbMAuzjHkLhc lookup 4 subtable" Aring.sc
EndChar

StartChar: AE
Encoding: 198 198 134
Width: 903
GlyphClass: 2
Flags: MW
TeX: 688 0
HStem: 0 31<32 32 339 347 347 374.5 551 641 641 725.5> 313 31<266 416 266 416 255 416 499 574> 652 31<258 819 563 565 565 635>
VStem: 416 83<71 313 68 313 344 599 599 613> 687 25<196 207 207 255 451.5 460>
AnchorPoint: "Anchor-5" 458 705 basechar 0
AnchorPoint: "Anchor-4" 453 0 basechar 0
LayerCount: 2
Fore
SplineSet
32 0 m 1
 32 31 l 1
 122 33 136 73 153 121 c 2
 344 651 l 1
 258 652 l 1
 258 683 l 1
 819 683 l 1
 847 458 l 1
 821 458 l 1
 803 597 789 652 635 652 c 2
 565 652 l 2
 561 652 555 653 548 653 c 0
 502 653 499 639 499 613 c 2
 499 344 l 1
 574 344 l 2
 624 344 675 345 684 408 c 0
 687 425 687 443 687 460 c 1
 712 460 l 1
 712 196 l 1
 687 196 l 1
 687 207 l 2
 687 303 652 313 574 313 c 2
 499 313 l 1
 499 68 l 2
 500 33 516 31 551 31 c 2
 641 31 l 2
 810 31 824 110 849 258 c 1
 874 258 l 1
 832 0 l 1
 339 0 l 1
 339 31 l 1
 347 31 l 2
 402 31 415 36 416 71 c 2
 416 313 l 1
 255 313 l 1
 243 278 175 96 175 81 c 0
 175 61 191 34 248 31 c 1
 248 0 l 1
 209 2 171 3 132 3 c 0
 122 3 92 3 32 0 c 1
266 344 m 1
 416 344 l 1
 416 599 l 2
 416 627 416 643 376 649 c 1
 266 344 l 1
EndSplineSet
Substitution2: "'c2sc' +swC7OMeQxdDBHAAA +wYzWFbMAuzjHkLhc lookup 4 subtable" AE.sc
EndChar

StartChar: Ccedilla
Encoding: 199 199 135
Width: 722
GlyphClass: 2
Flags: MW
TeX: 688 170
HStem: -204 23<287 299 299 301 287 299> -71 80<371 475.5> -20 29<371 475.5 441 441> 674 31<364 448 313.5 457.5>
VStem: 55 103<252.5 371 201 447.5> 371 70<-54 -20 -54 -20 -54 -20> 453 71<-150.5 -116> 640 26
AnchorPoint: "Anchor-5" 403 705 basechar 0
LayerCount: 2
Fore
SplineSet
55 342 m 0xbf
 55 553 223 705 404 705 c 0
 492 705 547 663 588 619 c 1
 635 693 646 704 654 704 c 0
 655 704 656 703 657 703 c 0
 666 700 666 692 666 682 c 2
 666 440 l 2
 666 425 658 420 650 420 c 0
 646 420 642 422 639 424 c 0
 631 431 634 467 612 522 c 0
 574 617 501 674 414 674 c 0
 314 674 228 608 190 522 c 0
 165 465 158 401 158 341 c 0
 158 61 332 9 416 9 c 0xdf
 535 9 630 104 640 225 c 0
 641 237 639 250 654 250 c 0
 660 250 666 244 666 229 c 0
 666 163 617 10 441 -20 c 1xbf
 441 -54 l 1
 453 -56 524 -69 524 -126 c 0
 524 -188 446 -204 301 -204 c 2
 287 -204 l 1
 287 -181 l 1
 299 -181 l 2
 383 -181 453 -174 453 -127 c 0
 453 -105 437 -74 371 -71 c 1xdf
 371 -20 l 1
 181 2 55 163 55 342 c 0xbf
EndSplineSet
Substitution2: "'c2sc' +swC7OMeQxdDBHAAA +wYzWFbMAuzjHkLhc lookup 4 subtable" Ccedilla.sc
EndChar

StartChar: Egrave
Encoding: 200 200 136
Width: 680
GlyphClass: 2
Flags: MW
TeX: 856 0
HStem: 0 31<33 57 33 57 57 95.5 274 407 407 493> 338 31<225 315 225 315> 649 31<33 57 33 596 250.5 274 274 403> 788 74
VStem: 136 89<78 338 369 602 602 609> 234 202<765 833> 423 25<221 263.5 443 486>
AnchorPoint: "Anchor-5" 342 867 basechar 0
AnchorPoint: "Anchor-4" 342 0 basechar 0
LayerCount: 2
Fore
SplineSet
234 825 m 0x14
 234 841 247 862 268 862 c 0
 282 862 280 862 436 765 c 1
 425 742 l 1
 410 746 395 751 276 788 c 0
 256 794 234 799 234 825 c 0x14
33 0 m 1xea
 33 31 l 1
 57 31 l 2
 134 31 136 42 136 78 c 2
 136 602 l 2
 136 638 134 649 57 649 c 2
 33 649 l 1
 33 680 l 1
 596 680 l 1
 624 455 l 1
 599 455 l 1
 583 594 556 649 403 649 c 2
 274 649 l 2
 227 649 225 642 225 609 c 2
 225 369 l 1
 315 369 l 2
 412 369 423 400 423 486 c 1
 448 486 l 1
 448 221 l 1
 423 221 l 1
 423 306 412 338 315 338 c 2
 225 338 l 1
 225 71 l 2
 225 38 227 31 274 31 c 2
 407 31 l 2
 579 31 602 104 627 258 c 1
 652 258 l 1
 610 0 l 1
 33 0 l 1xea
EndSplineSet
Substitution2: "'locl' +rW2sAAAA,+ycDF7QAA +rODHINYV in +t3zS9AAA +x5AA lookup 13 subtable" Egrave.vn
AlternateSubs2: "'ss01' +wqTQwMd8wTjSuAAA-1 lookup 12 subtable" Egrave.vn
AlternateSubs2: "'salt' +wqTQwMd8ua0A +swDFSNYV in +t3zS9AAA +x5AA lookup 11 subtable" Egrave.vn
Substitution2: "'c2sc' +swC7OMeQxdDBHAAA +wYzWFbMAuzjHkLhc lookup 4 subtable" Egrave.sc
EndChar

StartChar: Eacute
Encoding: 201 201 137
Width: 680
GlyphClass: 2
Flags: MW
TeX: 856 0
HStem: 0 31<33 57 33 57 57 95.5 274 407 407 493> 338 31<225 315 225 315> 649 31<33 57 33 596 250.5 274 274 403> 788 74
VStem: 136 89<78 338 369 602 602 609> 300 202<765 833> 423 25<221 263.5 443 486>
AnchorPoint: "Anchor-5" 342 867 basechar 0
AnchorPoint: "Anchor-4" 342 0 basechar 0
LayerCount: 2
Fore
SplineSet
300 765 m 1x14
 453 860 454 862 468 862 c 0
 488 862 502 841 502 825 c 0
 502 795 465 789 460 788 c 0
 341 751 325 746 310 742 c 1
 300 765 l 1x14
33 0 m 1xea
 33 31 l 1
 57 31 l 2
 134 31 136 42 136 78 c 2
 136 602 l 2
 136 638 134 649 57 649 c 2
 33 649 l 1
 33 680 l 1
 596 680 l 1
 624 455 l 1
 599 455 l 1
 583 594 556 649 403 649 c 2
 274 649 l 2
 227 649 225 642 225 609 c 2
 225 369 l 1
 315 369 l 2
 412 369 423 400 423 486 c 1
 448 486 l 1
 448 221 l 1
 423 221 l 1
 423 306 412 338 315 338 c 2
 225 338 l 1
 225 71 l 2
 225 38 227 31 274 31 c 2
 407 31 l 2
 579 31 602 104 627 258 c 1
 652 258 l 1
 610 0 l 1
 33 0 l 1xea
EndSplineSet
Substitution2: "'locl' +rW2sAAAA,+ycDF7QAA +rODHINYV in +t3zS9AAA +x5AA lookup 13 subtable" Eacute.vn
AlternateSubs2: "'ss01' +wqTQwMd8wTjSuAAA-1 lookup 12 subtable" Eacute.vn
AlternateSubs2: "'salt' +wqTQwMd8ua0A +swDFSNYV in +t3zS9AAA +x5AA lookup 11 subtable" Eacute.vn
Substitution2: "'c2sc' +swC7OMeQxdDBHAAA +wYzWFbMAuzjHkLhc lookup 4 subtable" Eacute.sc
EndChar

StartChar: Ecircumflex
Encoding: 202 202 138
Width: 680
GlyphClass: 2
Flags: MW
TeX: 891 0
HStem: 0 31<33 57 33 57 57 95.5 274 407 407 493> 338 31<225 315 225 315> 649 31<33 57 33 596 250.5 274 274 403>
VStem: 136 89<78 338 369 602 602 609> 423 25<221 263.5 443 486>
AnchorPoint: "Anchor-5" 342 907 basechar 0
AnchorPoint: "Anchor-4" 342 0 basechar 0
LayerCount: 2
Fore
SplineSet
213 761 m 1
 347 902 l 1
 348 902 l 1
 481 761 l 1
 463 744 l 1
 348 849 l 1
 347 849 l 1
 232 744 l 1
 231 744 l 1
 213 761 l 1
33 0 m 1
 33 31 l 1
 57 31 l 2
 134 31 136 42 136 78 c 2
 136 602 l 2
 136 638 134 649 57 649 c 2
 33 649 l 1
 33 680 l 1
 596 680 l 1
 624 455 l 1
 599 455 l 1
 583 594 556 649 403 649 c 2
 274 649 l 2
 227 649 225 642 225 609 c 2
 225 369 l 1
 315 369 l 2
 412 369 423 400 423 486 c 1
 448 486 l 1
 448 221 l 1
 423 221 l 1
 423 306 412 338 315 338 c 2
 225 338 l 1
 225 71 l 2
 225 38 227 31 274 31 c 2
 407 31 l 2
 579 31 602 104 627 258 c 1
 652 258 l 1
 610 0 l 1
 33 0 l 1
EndSplineSet
Substitution2: "'locl' +rW2sAAAA,+ycDF7QAA +rODHINYV in +t3zS9AAA +x5AA lookup 13 subtable" Ecircumflex.vn
AlternateSubs2: "'ss01' +wqTQwMd8wTjSuAAA-1 lookup 12 subtable" Ecircumflex.vn
AlternateSubs2: "'salt' +wqTQwMd8ua0A +swDFSNYV in +t3zS9AAA +x5AA lookup 11 subtable" Ecircumflex.vn
Substitution2: "'c2sc' +swC7OMeQxdDBHAAA +wYzWFbMAuzjHkLhc lookup 4 subtable" Ecircumflex.sc
EndChar

StartChar: Edieresis
Encoding: 203 203 139
Width: 680
GlyphClass: 2
Flags: MW
TeX: 891 0
HStem: 0 31<33 57 33 57 57 95.5 274 407 407 493> 338 31<225 315 225 315> 649 31<33 57 33 596 250.5 274 274 403> 761 105<235.5 262 235.5 262 430.5 457>
VStem: 136 89<78 338 369 602 602 609> 197 105<799.5 828.5> 391 105<799.5 828.5> 423 25<221 263.5 443 486>
AnchorPoint: "Anchor-5" 342 871 basechar 0
AnchorPoint: "Anchor-4" 342 0 basechar 0
LayerCount: 2
Fore
SplineSet
197 813 m 0x16
 197 844 222 866 249 866 c 0
 275 866 302 844 302 813 c 0
 302 782 275 761 249 761 c 0
 218 761 197 786 197 813 c 0x16
391 813 m 0
 391 844 417 866 444 866 c 0
 472 866 496 844 496 813 c 0
 496 782 470 761 444 761 c 0
 413 761 391 786 391 813 c 0
33 0 m 1xe9
 33 31 l 1
 57 31 l 2
 134 31 136 42 136 78 c 2
 136 602 l 2
 136 638 134 649 57 649 c 2
 33 649 l 1
 33 680 l 1
 596 680 l 1
 624 455 l 1
 599 455 l 1
 583 594 556 649 403 649 c 2
 274 649 l 2
 227 649 225 642 225 609 c 2
 225 369 l 1
 315 369 l 2
 412 369 423 400 423 486 c 1
 448 486 l 1
 448 221 l 1
 423 221 l 1
 423 306 412 338 315 338 c 2
 225 338 l 1
 225 71 l 2
 225 38 227 31 274 31 c 2
 407 31 l 2
 579 31 602 104 627 258 c 1
 652 258 l 1
 610 0 l 1
 33 0 l 1xe9
EndSplineSet
Substitution2: "'c2sc' +swC7OMeQxdDBHAAA +wYzWFbMAuzjHkLhc lookup 4 subtable" Edieresis.sc
EndChar

StartChar: Igrave
Encoding: 204 204 140
Width: 361
GlyphClass: 2
Flags: MW
TeX: 856 0
HStem: 0 31<28 54> 652 31<28 54 28 28> 787 75
VStem: 136 89<78 605>
AnchorPoint: "Anchor-5" 180 864 basechar 0
AnchorPoint: "Anchor-4" 180 0 basechar 0
LayerCount: 2
Fore
SplineSet
53 825 m 0
 53 841 66 862 87 862 c 2
 89 862 l 2
 100 862 102 860 254 765 c 1
 244 741 l 1
 229 745 214 750 96 787 c 0
 76 793 53 799 53 825 c 0
28 0 m 1
 28 31 l 1
 54 31 l 2
 133 31 136 42 136 78 c 2
 136 605 l 2
 136 641 133 652 54 652 c 2
 28 652 l 1
 28 683 l 1
 63 680 142 680 181 680 c 0
 219 680 298 680 333 683 c 1
 333 652 l 1
 307 652 l 2
 228 652 225 641 225 605 c 2
 225 78 l 2
 225 42 228 31 307 31 c 2
 333 31 l 1
 333 0 l 1
 298 3 219 3 180 3 c 0
 142 3 63 3 28 0 c 1
EndSplineSet
Substitution2: "'locl' +rW2sAAAA,+ycDF7QAA +rODHINYV in +t3zS9AAA +x5AA lookup 13 subtable" Igrave.vn
AlternateSubs2: "'ss01' +wqTQwMd8wTjSuAAA-1 lookup 12 subtable" Igrave.vn
AlternateSubs2: "'salt' +wqTQwMd8ua0A +swDFSNYV in +t3zS9AAA +x5AA lookup 11 subtable" Igrave.vn
Substitution2: "'c2sc' +swC7OMeQxdDBHAAA +wYzWFbMAuzjHkLhc lookup 4 subtable" Igrave.sc
EndChar

StartChar: Iacute
Encoding: 205 205 141
Width: 361
GlyphClass: 2
Flags: MW
TeX: 856 0
HStem: 0 31<28 54> 652 31<28 54 28 28> 787 75
VStem: 136 89<78 605>
AnchorPoint: "Anchor-5" 180 864 basechar 0
AnchorPoint: "Anchor-4" 180 0 basechar 0
LayerCount: 2
Fore
SplineSet
81 765 m 1
 226 855 233 862 248 862 c 0
 269 862 282 841 282 825 c 0
 282 799 259 793 240 787 c 0
 122 750 107 745 92 741 c 1
 81 765 l 1
28 0 m 1
 28 31 l 1
 54 31 l 2
 133 31 136 42 136 78 c 2
 136 605 l 2
 136 641 133 652 54 652 c 2
 28 652 l 1
 28 683 l 1
 63 680 142 680 181 680 c 0
 219 680 298 680 333 683 c 1
 333 652 l 1
 307 652 l 2
 228 652 225 641 225 605 c 2
 225 78 l 2
 225 42 228 31 307 31 c 2
 333 31 l 1
 333 0 l 1
 298 3 219 3 180 3 c 0
 142 3 63 3 28 0 c 1
EndSplineSet
Substitution2: "'locl' +rW2sAAAA,+ycDF7QAA +rODHINYV in +t3zS9AAA +x5AA lookup 13 subtable" Iacute.vn
AlternateSubs2: "'ss01' +wqTQwMd8wTjSuAAA-1 lookup 12 subtable" Iacute.vn
AlternateSubs2: "'salt' +wqTQwMd8ua0A +swDFSNYV in +t3zS9AAA +x5AA lookup 11 subtable" Iacute.vn
Substitution2: "'c2sc' +swC7OMeQxdDBHAAA +wYzWFbMAuzjHkLhc lookup 4 subtable" Iacute.sc
EndChar

StartChar: Icircumflex
Encoding: 206 206 142
Width: 361
GlyphClass: 2
Flags: MW
TeX: 891 0
HStem: 0 31<28 54> 652 31<28 54 28 28>
VStem: 136 89<78 605>
AnchorPoint: "Anchor-5" 180 904 basechar 0
AnchorPoint: "Anchor-4" 180 0 basechar 0
LayerCount: 2
Fore
SplineSet
46 762 m 1
 179 902 l 1
 180 902 l 1
 313 761 l 1
 295 744 l 1
 180 849 l 1
 179 849 l 1
 64 744 l 1
 46 762 l 1
28 0 m 1
 28 31 l 1
 54 31 l 2
 133 31 136 42 136 78 c 2
 136 605 l 2
 136 641 133 652 54 652 c 2
 28 652 l 1
 28 683 l 1
 63 680 142 680 181 680 c 0
 219 680 298 680 333 683 c 1
 333 652 l 1
 307 652 l 2
 228 652 225 641 225 605 c 2
 225 78 l 2
 225 42 228 31 307 31 c 2
 333 31 l 1
 333 0 l 1
 298 3 219 3 180 3 c 0
 142 3 63 3 28 0 c 1
EndSplineSet
Substitution2: "'c2sc' +swC7OMeQxdDBHAAA +wYzWFbMAuzjHkLhc lookup 4 subtable" Icircumflex.sc
EndChar

StartChar: Idieresis
Encoding: 207 207 143
Width: 361
GlyphClass: 2
Flags: MW
TeX: 891 0
HStem: 0 31<28 54> 652 31<28 54 28 28> 761 105<69.5 96 262.5 289>
VStem: 30 105<799.5 828.5> 136 89<78 605> 224 105<799 828.5>
AnchorPoint: "Anchor-5" 180 868 basechar 0
AnchorPoint: "Anchor-4" 180 0 basechar 0
LayerCount: 2
Fore
SplineSet
224 813 m 0xf4
 224 844 249 866 276 866 c 0
 302 866 329 844 329 813 c 0
 329 782 303 761 277 761 c 0
 246 761 224 785 224 813 c 0xf4
30 813 m 0x30
 30 844 56 866 83 866 c 0
 111 866 135 844 135 813 c 0
 135 782 109 761 83 761 c 0
 52 761 30 786 30 813 c 0x30
28 0 m 1xc8
 28 31 l 1
 54 31 l 2
 133 31 136 42 136 78 c 2
 136 605 l 2
 136 641 133 652 54 652 c 2
 28 652 l 1
 28 683 l 1
 63 680 142 680 181 680 c 0
 219 680 298 680 333 683 c 1
 333 652 l 1
 307 652 l 2
 228 652 225 641 225 605 c 2
 225 78 l 2
 225 42 228 31 307 31 c 2
 333 31 l 1
 333 0 l 1
 298 3 219 3 180 3 c 0
 142 3 63 3 28 0 c 1xc8
EndSplineSet
Substitution2: "'c2sc' +swC7OMeQxdDBHAAA +wYzWFbMAuzjHkLhc lookup 4 subtable" Idieresis.sc
EndChar

StartChar: Eth
Encoding: 208 208 144
Width: 764
GlyphClass: 2
Flags: MW
TeX: 688 0
HStem: 0 31<34 45 34 45 45 83.5 294 367 367 386> 320 30<128.5 137 224 389> 652 31<34 45 34 381 340.5 350 350 367>
VStem: 137 87<76 320 350 607 607 616> 607 100<301.5 376>
LayerCount: 2
Fore
SplineSet
34 0 m 1
 34 31 l 1
 45 31 l 2
 122 31 137 36 137 76 c 2
 137 320 l 1
 119 320 102 319 84 319 c 0
 42 319 39 320 35 331 c 1
 35 336 l 2
 35 345 43 350 59 350 c 0
 68 350 76 351 85 351 c 0
 102 351 120 350 137 350 c 1
 137 607 l 2
 137 647 122 652 45 652 c 2
 34 652 l 1
 34 683 l 1
 381 683 l 2
 439 683 489 678 548 641 c 0
 649 579 707 458 707 336 c 0
 707 164 591 21 435 2 c 0
 419 0 402 0 386 0 c 2
 34 0 l 1
224 67 m 2
 225 32 233 31 294 31 c 2
 367 31 l 2
 482 31 536 92 558 125 c 0
 601 187 607 265 607 338 c 0
 607 414 600 496 555 560 c 0
 534 590 480 652 367 652 c 2
 350 652 l 2
 331 652 313 653 294 653 c 2
 284 653 l 2
 240 653 225 651 224 616 c 2
 224 350 l 1
 390 350 l 2
 402 349 412 347 412 335 c 0
 412 323 401 321 389 320 c 2
 224 320 l 1
 224 67 l 2
EndSplineSet
Substitution2: "'c2sc' +swC7OMeQxdDBHAAA +wYzWFbMAuzjHkLhc lookup 4 subtable" Eth.sc
EndChar

StartChar: Ntilde
Encoding: 209 209 145
Width: 750
GlyphClass: 2
Flags: MW
TeX: 891 0
HStem: 0 31<33 84.5> 652 31<33 62 33 203> 807 47<441.5 487> 845 46<262 307.5>
VStem: 136 28<105 625> 585 28<151 578>
LayerCount: 2
Fore
SplineSet
180 823 m 1x20
 211 858 234 891 290 891 c 0x10
 345 891 414 854 469 854 c 0
 506 854 526 867 552 892 c 1
 569 876 l 1
 538 841 515 807 459 807 c 0x20
 404 807 335 845 280 845 c 0x10
 243 845 223 832 197 807 c 1
 180 823 l 1x20
33 0 m 1xcc
 33 31 l 1
 136 31 136 78 136 105 c 2
 136 627 l 2
 136 646 135 647 112 650 c 0
 97 651 77 652 62 652 c 2
 33 652 l 1
 33 683 l 1
 203 683 l 2
 222 683 223 682 232 670 c 2
 585 151 l 1
 585 578 l 2
 585 605 585 652 482 652 c 1
 482 683 l 1
 517 682 566 680 599 680 c 0
 632 680 681 682 716 683 c 1
 716 652 l 1
 613 652 613 605 613 578 c 2
 613 26 l 2
 613 7 613 0 599 0 c 0
 592 0 591 1 582 13 c 2
 174 613 l 2
 170 619 169 620 164 625 c 1
 164 105 l 2
 164 78 164 31 267 31 c 1
 267 0 l 1
 232 1 183 3 150 3 c 0
 117 3 68 1 33 0 c 1xcc
EndSplineSet
Substitution2: "'c2sc' +swC7OMeQxdDBHAAA +wYzWFbMAuzjHkLhc lookup 4 subtable" Ntilde.sc
EndChar

StartChar: Ograve
Encoding: 210 210 146
Width: 777
GlyphClass: 2
Flags: MW
TeX: 856 0
HStem: -22 26<341 435 341 479> 680 25<346.5 431.5> 788 74
VStem: 56 103<236.5 442> 275 202<765 833> 618 103<238 441 238 481>
AnchorPoint: "Anchor-5" 388 842 basechar 0
AnchorPoint: "Anchor-4" 388 0 basechar 0
LayerCount: 2
Fore
SplineSet
275 825 m 0
 275 841 288 862 309 862 c 0
 323 862 321 862 477 765 c 1
 466 742 l 1
 451 746 436 751 317 788 c 0
 297 794 275 799 275 825 c 0
56 339 m 0
 56 545 209 705 388 705 c 0
 570 705 721 543 721 339 c 0
 721 137 570 -22 388 -22 c 0
 210 -22 56 134 56 339 c 0
159 353 m 0
 159 92 293 4 389 4 c 0
 481 4 618 88 618 353 c 0
 618 609 475 680 388 680 c 0
 305 680 159 612 159 353 c 0
EndSplineSet
Substitution2: "'locl' +rW2sAAAA,+ycDF7QAA +rODHINYV in +t3zS9AAA +x5AA lookup 13 subtable" Ograve.vn
AlternateSubs2: "'ss01' +wqTQwMd8wTjSuAAA-1 lookup 12 subtable" Ograve.vn
AlternateSubs2: "'salt' +wqTQwMd8ua0A +swDFSNYV in +t3zS9AAA +x5AA lookup 11 subtable" Ograve.vn
Substitution2: "'c2sc' +swC7OMeQxdDBHAAA +wYzWFbMAuzjHkLhc lookup 4 subtable" Ograve.sc
EndChar

StartChar: Oacute
Encoding: 211 211 147
Width: 777
GlyphClass: 2
Flags: MW
TeX: 856 0
HStem: -22 26<341 435 341 479> 680 25<346.5 431.5> 788 74
VStem: 56 103<236.5 442> 300 202<765 833> 618 103<238 441 238 481>
AnchorPoint: "Anchor-5" 388 842 basechar 0
AnchorPoint: "Anchor-4" 388 0 basechar 0
LayerCount: 2
Fore
SplineSet
300 765 m 1
 453 860 454 862 468 862 c 0
 488 862 502 841 502 825 c 0
 502 795 465 789 460 788 c 0
 341 751 325 746 310 742 c 1
 300 765 l 1
56 339 m 0
 56 545 209 705 388 705 c 0
 570 705 721 543 721 339 c 0
 721 137 570 -22 388 -22 c 0
 210 -22 56 134 56 339 c 0
159 353 m 0
 159 92 293 4 389 4 c 0
 481 4 618 88 618 353 c 0
 618 609 475 680 388 680 c 0
 305 680 159 612 159 353 c 0
EndSplineSet
Substitution2: "'locl' +rW2sAAAA,+ycDF7QAA +rODHINYV in +t3zS9AAA +x5AA lookup 13 subtable" Oacute.vn
AlternateSubs2: "'ss01' +wqTQwMd8wTjSuAAA-1 lookup 12 subtable" Oacute.vn
AlternateSubs2: "'salt' +wqTQwMd8ua0A +swDFSNYV in +t3zS9AAA +x5AA lookup 11 subtable" Oacute.vn
Substitution2: "'c2sc' +swC7OMeQxdDBHAAA +wYzWFbMAuzjHkLhc lookup 4 subtable" Oacute.sc
EndChar

StartChar: Ocircumflex
Encoding: 212 212 148
Width: 777
GlyphClass: 2
Flags: MW
TeX: 891 0
HStem: -22 26<341 435 341 479> 680 25<346.5 431.5>
VStem: 56 103<236.5 442> 618 103<238 441 238 481>
AnchorPoint: "Anchor-5" 388 882 basechar 0
AnchorPoint: "Anchor-4" 388 0 basechar 0
LayerCount: 2
Fore
SplineSet
255 761 m 1
 255 762 l 1
 388 902 l 1
 389 902 l 1
 522 762 l 1
 522 761 l 1
 505 744 l 1
 504 744 l 1
 389 849 l 1
 388 849 l 1
 273 744 l 1
 272 744 l 1
 255 761 l 1
56 339 m 0
 56 545 209 705 388 705 c 0
 570 705 721 543 721 339 c 0
 721 137 570 -22 388 -22 c 0
 210 -22 56 134 56 339 c 0
159 353 m 0
 159 92 293 4 389 4 c 0
 481 4 618 88 618 353 c 0
 618 609 475 680 388 680 c 0
 305 680 159 612 159 353 c 0
EndSplineSet
Substitution2: "'locl' +rW2sAAAA,+ycDF7QAA +rODHINYV in +t3zS9AAA +x5AA lookup 13 subtable" Ocircumflex.vn
AlternateSubs2: "'ss01' +wqTQwMd8wTjSuAAA-1 lookup 12 subtable" Ocircumflex.vn
AlternateSubs2: "'salt' +wqTQwMd8ua0A +swDFSNYV in +t3zS9AAA +x5AA lookup 11 subtable" Ocircumflex.vn
Substitution2: "'c2sc' +swC7OMeQxdDBHAAA +wYzWFbMAuzjHkLhc lookup 4 subtable" Ocircumflex.sc
EndChar

StartChar: Otilde
Encoding: 213 213 149
Width: 777
GlyphClass: 2
Flags: MW
TeX: 891 0
HStem: -22 26<341 435 341 479> 680 25<346.5 431.5> 807 46<452.5 500> 845 46<276 324.5>
VStem: 56 103<236.5 442> 618 103<238 441 238 481>
AnchorPoint: "Anchor-5" 388 871 basechar 0
AnchorPoint: "Anchor-4" 388 0 basechar 0
LayerCount: 2
Fore
SplineSet
194 822 m 1xec
 225 857 248 891 304 891 c 0xdc
 365 891 422 853 483 853 c 0xec
 520 853 539 866 565 891 c 1xdc
 582 876 l 1
 551 841 528 807 472 807 c 0xec
 411 807 355 845 294 845 c 0xdc
 257 845 237 832 211 807 c 1
 194 822 l 1xec
56 339 m 0xcc
 56 545 209 705 388 705 c 0
 570 705 721 543 721 339 c 0
 721 137 570 -22 388 -22 c 0
 210 -22 56 134 56 339 c 0xcc
159 353 m 0
 159 92 293 4 389 4 c 0
 481 4 618 88 618 353 c 0
 618 609 475 680 388 680 c 0
 305 680 159 612 159 353 c 0
EndSplineSet
Substitution2: "'locl' +rW2sAAAA,+ycDF7QAA +rODHINYV in +t3zS9AAA +x5AA lookup 13 subtable" Otilde.vn
AlternateSubs2: "'ss01' +wqTQwMd8wTjSuAAA-1 lookup 12 subtable" Otilde.vn
AlternateSubs2: "'salt' +wqTQwMd8ua0A +swDFSNYV in +t3zS9AAA +x5AA lookup 11 subtable" Otilde.vn
Substitution2: "'c2sc' +swC7OMeQxdDBHAAA +wYzWFbMAuzjHkLhc lookup 4 subtable" Otilde.sc
EndChar

StartChar: Odieresis
Encoding: 214 214 150
Width: 777
GlyphClass: 2
Flags: MW
TeX: 891 0
HStem: -22 26<341 435 341 479> 680 25<346.5 431.5> 761 105<278.5 305 471.5 498>
VStem: 56 103<236.5 442> 239 105<799.5 828.5> 433 105<799 828.5> 618 103<238 441 238 481>
AnchorPoint: "Anchor-5" 388 846 basechar 0
AnchorPoint: "Anchor-4" 388 0 basechar 0
LayerCount: 2
Fore
SplineSet
433 813 m 0
 433 844 458 866 485 866 c 0
 511 866 538 844 538 813 c 0
 538 782 512 761 486 761 c 0
 455 761 433 785 433 813 c 0
239 813 m 0
 239 844 265 866 292 866 c 0
 320 866 344 844 344 813 c 0
 344 782 318 761 292 761 c 0
 261 761 239 786 239 813 c 0
56 339 m 0
 56 545 209 705 388 705 c 0
 570 705 721 543 721 339 c 0
 721 137 570 -22 388 -22 c 0
 210 -22 56 134 56 339 c 0
159 353 m 0
 159 92 293 4 389 4 c 0
 481 4 618 88 618 353 c 0
 618 609 475 680 388 680 c 0
 305 680 159 612 159 353 c 0
EndSplineSet
Substitution2: "'c2sc' +swC7OMeQxdDBHAAA +wYzWFbMAuzjHkLhc lookup 4 subtable" Odieresis.sc
EndChar

StartChar: multiply
Encoding: 215 215 151
Width: 778
GlyphClass: 2
Flags: W
TeX: 583 83
LayerCount: 2
Fore
SplineSet
148 471 m 0
 148 483 160 490 165 490 c 2
 168 490 l 2
 180 490 194 473 197 470 c 2
 389 278 l 1
 581 470 l 2
 589 478 598 490 610 490 c 0
 623 490 628 478 628 472 c 0
 629 459 633 464 417 250 c 1
 606 61 l 2
 620 47 628 41 628 27 c 0
 628 20 621 10 610 10 c 0
 604 10 600 10 580 30 c 2
 388 222 l 1
 201 34 l 2
 191 25 179 10 167 10 c 0
 157 10 149 19 149 29 c 0
 149 43 147 39 360 250 c 1
 172 439 l 2
 163 448 148 459 148 471 c 0
EndSplineSet
EndChar

StartChar: Oslash
Encoding: 216 216 152
Width: 778
GlyphClass: 2
Flags: MW
TeX: 731 48
HStem: -22 23<348.5 438 348.5 476> 683 22<337 426 299 426.5>
VStem: 55 90<265.5 374.5 265.5 443> 632 89<305.5 395 234.5 414>
LayerCount: 2
Fore
SplineSet
55 339 m 0
 55 547 210 705 388 705 c 0
 464 705 527 678 577 641 c 1
 643 739 l 1
 664 725 l 1
 597 626 l 1
 597 625 l 1
 676 554 721 451 721 339 c 0
 721 130 564 -22 388 -22 c 0
 308 -22 248 6 199 41 c 1
 133 -56 l 1
 112 -42 l 1
 180 58 l 1
 157 78 55 170 55 339 c 0
145 338 m 0
 145 193 179 135 205 96 c 1
 553 607 l 1
 517 644 465 683 388 683 c 0
 286 683 220 614 189 558 c 0
 152 491 145 411 145 338 c 0
223 75 m 1
 260 38 309 1 388 1 c 0
 488 1 557 65 591 130 c 0
 625 195 632 271 632 340 c 0
 632 488 596 546 570 586 c 1
 223 76 l 1
 223 75 l 1
EndSplineSet
Substitution2: "'c2sc' +swC7OMeQxdDBHAAA +wYzWFbMAuzjHkLhc lookup 4 subtable" Oslash.sc
EndChar

StartChar: Ugrave
Encoding: 217 217 153
Width: 750
GlyphClass: 2
Flags: MW
TeX: 856 0
HStem: -22 31<366.5 437.5 366.5 445.5> 652 31<33 33 33 57> 788 74
VStem: 136 89<228 605> 261 202<765 833> 582 31<234 254 254 574>
AnchorPoint: "Anchor-5" 374 864 basechar 0
AnchorPoint: "Anchor-4" 388 0 basechar 0
LayerCount: 2
Fore
SplineSet
261 825 m 0
 261 841 274 862 295 862 c 0
 309 862 307 862 463 765 c 1
 452 742 l 1
 437 746 422 751 303 788 c 0
 283 794 261 799 261 825 c 0
33 652 m 1
 33 683 l 1
 68 680 143 680 181 680 c 0
 219 680 293 680 328 683 c 1
 328 652 l 1
 304 652 l 2
 227 652 225 641 225 605 c 2
 225 224 l 2
 225 34 343 9 390 9 c 0
 485 9 582 89 582 231 c 2
 582 578 l 2
 582 605 582 652 479 652 c 1
 479 683 l 1
 515 682 563 680 598 680 c 0
 632 680 680 682 716 683 c 1
 716 652 l 1
 613 652 613 607 613 574 c 2
 613 254 l 2
 613 214 613 205 610 185 c 0
 593 71 503 -22 388 -22 c 0
 252 -22 136 87 136 228 c 2
 136 605 l 2
 136 641 134 652 57 652 c 2
 33 652 l 1
EndSplineSet
Substitution2: "'locl' +rW2sAAAA,+ycDF7QAA +rODHINYV in +t3zS9AAA +x5AA lookup 13 subtable" Ugrave.vn
AlternateSubs2: "'ss01' +wqTQwMd8wTjSuAAA-1 lookup 12 subtable" Ugrave.vn
AlternateSubs2: "'salt' +wqTQwMd8ua0A +swDFSNYV in +t3zS9AAA +x5AA lookup 11 subtable" Ugrave.vn
Substitution2: "'c2sc' +swC7OMeQxdDBHAAA +wYzWFbMAuzjHkLhc lookup 4 subtable" Ugrave.sc
EndChar

StartChar: Uacute
Encoding: 218 218 154
Width: 750
GlyphClass: 2
Flags: MW
TeX: 856 0
HStem: -22 31<366.5 437.5 366.5 445.5> 652 31<33 33 33 57> 788 74
VStem: 136 89<228 605> 328 202<652 833 652 833 765 833> 582 31<234 254 254 574>
AnchorPoint: "Anchor-5" 374 864 basechar 0
AnchorPoint: "Anchor-4" 388 0 basechar 0
LayerCount: 2
Fore
SplineSet
328 765 m 1
 481 860 482 862 496 862 c 0
 516 862 530 841 530 825 c 0
 530 795 493 789 488 788 c 0
 369 751 353 746 338 742 c 1
 328 765 l 1
33 652 m 1
 33 683 l 1
 68 680 143 680 181 680 c 0
 219 680 293 680 328 683 c 1
 328 652 l 1
 304 652 l 2
 227 652 225 641 225 605 c 2
 225 224 l 2
 225 34 343 9 390 9 c 0
 485 9 582 89 582 231 c 2
 582 578 l 2
 582 605 582 652 479 652 c 1
 479 683 l 1
 515 682 563 680 598 680 c 0
 632 680 680 682 716 683 c 1
 716 652 l 1
 613 652 613 607 613 574 c 2
 613 254 l 2
 613 214 613 205 610 185 c 0
 593 71 503 -22 388 -22 c 0
 252 -22 136 87 136 228 c 2
 136 605 l 2
 136 641 134 652 57 652 c 2
 33 652 l 1
EndSplineSet
Substitution2: "'locl' +rW2sAAAA,+ycDF7QAA +rODHINYV in +t3zS9AAA +x5AA lookup 13 subtable" Uacute.vn
AlternateSubs2: "'ss01' +wqTQwMd8wTjSuAAA-1 lookup 12 subtable" Uacute.vn
AlternateSubs2: "'salt' +wqTQwMd8ua0A +swDFSNYV in +t3zS9AAA +x5AA lookup 11 subtable" Uacute.vn
Substitution2: "'c2sc' +swC7OMeQxdDBHAAA +wYzWFbMAuzjHkLhc lookup 4 subtable" Uacute.sc
EndChar

StartChar: Ucircumflex
Encoding: 219 219 155
Width: 750
GlyphClass: 2
Flags: MW
TeX: 891 0
HStem: -22 31<366.5 437.5 366.5 445.5> 652 31<33 33 33 57>
VStem: 136 89<228 605> 582 31<234 254 254 574>
AnchorPoint: "Anchor-5" 374 904 basechar 0
AnchorPoint: "Anchor-4" 388 0 basechar 0
LayerCount: 2
Fore
SplineSet
256 761 m 1
 389 902 l 1
 390 902 l 1
 523 761 l 1
 506 744 l 1
 505 744 l 1
 390 849 l 1
 389 849 l 1
 274 744 l 1
 273 744 l 1
 256 761 l 1
33 652 m 1
 33 683 l 1
 68 680 143 680 181 680 c 0
 219 680 293 680 328 683 c 1
 328 652 l 1
 304 652 l 2
 227 652 225 641 225 605 c 2
 225 224 l 2
 225 34 343 9 390 9 c 0
 485 9 582 89 582 231 c 2
 582 578 l 2
 582 605 582 652 479 652 c 1
 479 683 l 1
 515 682 563 680 598 680 c 0
 632 680 680 682 716 683 c 1
 716 652 l 1
 613 652 613 607 613 574 c 2
 613 254 l 2
 613 214 613 205 610 185 c 0
 593 71 503 -22 388 -22 c 0
 252 -22 136 87 136 228 c 2
 136 605 l 2
 136 641 134 652 57 652 c 2
 33 652 l 1
EndSplineSet
Substitution2: "'c2sc' +swC7OMeQxdDBHAAA +wYzWFbMAuzjHkLhc lookup 4 subtable" Ucircumflex.sc
EndChar

StartChar: Udieresis
Encoding: 220 220 156
Width: 750
GlyphClass: 2
Flags: MW
TeX: 891 0
HStem: -22 31<366.5 437.5 366.5 445.5> 652 31<33 33 33 57> 761 105<261.5 290 459 487>
VStem: 136 89<228 605> 225 105<800 826.5> 419 105<800.5 827 800.5 828.5> 582 31<234 254 254 574>
AnchorPoint: "Anchor-5" 374 868 basechar 0
AnchorPoint: "Anchor-4" 388 0 basechar 0
LayerCount: 2
Fore
SplineSet
225 813 m 0xee
 225 840 246 866 277 866 c 0
 303 866 330 844 330 813 c 0
 330 782 303 761 277 761 c 0
 246 761 225 787 225 813 c 0xee
419 813 m 0
 419 844 445 866 472 866 c 0
 504 866 524 840 524 814 c 0
 524 787 502 761 472 761 c 0
 446 761 419 782 419 813 c 0
33 652 m 1
 33 683 l 1
 68 680 143 680 181 680 c 0
 219 680 293 680 328 683 c 1
 328 652 l 1
 304 652 l 2
 227 652 225 641 225 605 c 2xf6
 225 224 l 2xee
 225 34 343 9 390 9 c 0
 485 9 582 89 582 231 c 2
 582 578 l 2
 582 605 582 652 479 652 c 1
 479 683 l 1
 515 682 563 680 598 680 c 0
 632 680 680 682 716 683 c 1
 716 652 l 1
 613 652 613 607 613 574 c 2
 613 254 l 2
 613 214 613 205 610 185 c 0
 593 71 503 -22 388 -22 c 0
 252 -22 136 87 136 228 c 2
 136 605 l 2xf6
 136 641 134 652 57 652 c 2
 33 652 l 1
EndSplineSet
Substitution2: "'c2sc' +swC7OMeQxdDBHAAA +wYzWFbMAuzjHkLhc lookup 4 subtable" Udieresis.sc
EndChar

StartChar: Yacute
Encoding: 221 221 157
Width: 750
GlyphClass: 2
Flags: MW
TeX: 856 0
ItalicCorrection: 24
HStem: 0 31<228 252> 652 31<11 11 11 29> 788 74
VStem: 327 202<765 833> 331 86<78 80 80 273>
AnchorPoint: "Anchor-5" 374 864 basechar 0
AnchorPoint: "Anchor-4" 374 0 basechar 0
LayerCount: 2
Fore
SplineSet
327 765 m 1x30
 480 860 481 862 495 862 c 0
 515 862 529 841 529 825 c 0
 529 795 492 789 487 788 c 0
 368 751 352 746 337 742 c 1
 327 765 l 1x30
11 652 m 1xc8
 11 683 l 1
 53 681 99 680 141 680 c 0
 180 680 253 680 289 683 c 1
 289 652 l 1
 244 652 219 648 219 627 c 0
 219 622 219 620 226 610 c 2
 407 315 l 1
 572 583 l 2
 576 589 582 602 582 613 c 0
 582 633 566 652 525 652 c 1
 525 683 l 1
 551 682 609 680 640 680 c 0
 667 680 707 681 738 683 c 1
 738 652 l 1
 706 652 647 648 610 587 c 2
 417 273 l 1
 417 80 l 2
 417 41 420 31 497 31 c 2
 520 31 l 1
 520 0 l 1
 484 3 413 3 374 3 c 0
 335 3 264 3 228 0 c 1
 228 31 l 1
 252 31 l 2
 329 31 331 42 331 78 c 2
 331 273 l 1
 121 615 l 2
 105 641 97 652 29 652 c 2
 11 652 l 1xc8
EndSplineSet
Substitution2: "'locl' +rW2sAAAA,+ycDF7QAA +rODHINYV in +t3zS9AAA +x5AA lookup 13 subtable" Yacute.vn
AlternateSubs2: "'ss01' +wqTQwMd8wTjSuAAA-1 lookup 12 subtable" Yacute.vn
AlternateSubs2: "'salt' +wqTQwMd8ua0A +swDFSNYV in +t3zS9AAA +x5AA lookup 11 subtable" Yacute.vn
Substitution2: "'c2sc' +swC7OMeQxdDBHAAA +wYzWFbMAuzjHkLhc lookup 4 subtable" Yacute.sc
EndChar

StartChar: Thorn
Encoding: 222 222 158
Width: 625
GlyphClass: 2
Flags: MW
TeX: 688 0
HStem: 0 31<35 51> 178 31<222 300 300 303.5 222 350 222 300> 521 31<222 342 222 351> 652 31<35 50 35 35>
VStem: 138 84<73 78 78 178 209 521 552 605> 468 100<331 403 327.5 404.5>
LayerCount: 2
Fore
SplineSet
35 0 m 1
 35 31 l 1
 51 31 l 2
 124 31 137 38 138 73 c 2
 138 610 l 2
 137 649 119 652 50 652 c 2
 35 652 l 1
 35 683 l 1
 82 681 127 680 175 680 c 2
 325 683 l 1
 325 652 l 1
 314 652 l 2
 231 652 222 646 222 605 c 2
 222 552 l 1
 351 552 l 2
 506 552 568 441 568 365 c 0
 568 290 509 178 350 178 c 2
 222 178 l 1
 222 78 l 2
 222 36 235 31 315 31 c 2
 325 31 l 1
 325 0 l 1
 275 2 225 3 175 3 c 2
 168 3 l 2
 150 3 109 3 35 0 c 1
222 209 m 1
 300 209 l 2
 307 209 315 208 323 208 c 0
 426 208 468 296 468 366 c 0
 468 443 421 521 342 521 c 2
 222 521 l 1
 222 209 l 1
EndSplineSet
Substitution2: "'c2sc' +swC7OMeQxdDBHAAA +wYzWFbMAuzjHkLhc lookup 4 subtable" Thorn.sc
EndChar

StartChar: germandbls
Encoding: 223 223 159
Width: 500
GlyphClass: 2
Flags: MW
TeX: 688 0
HStem: -11 23<322.5 362.5> 0 21G<27 27 172 172> 2 29 400 30<27 105 27 105> 682 23<219.5 280>
VStem: 105 67<77 400 400 400 430 554 554 561 0 614.5> 227 25 227 50<309 341.5> 363 25<500 609.5> 417 49<85.5 122>
LayerCount: 2
Fore
SplineSet
27 0 m 1x5dc0
 27 31 l 1
 35 31 l 2
 100 31 105 39 105 77 c 2
 105 400 l 1
 27 400 l 1
 27 430 l 1
 105 430 l 1
 105 554 l 2
 105 675 184 705 255 705 c 0
 318 705 388 675 388 556 c 0
 388 426 343 428 328 426 c 0
 318 425 277 417 277 351 c 0x3dc0
 277 267 346 274 377 263 c 0
 414 250 466 207 466 127 c 0
 466 44 417 -11 337 -11 c 0
 308 -11 291 -4 270 16 c 1
 261 6 250 -9 239 -9 c 0
 229 -9 227 2 227 12 c 2
 227 137 l 2
 227 148 227 159 235 163 c 0
 242 167 249 162 252 156 c 0
 262 136 253 12 336 12 c 0x9ec0
 389 12 417 49 417 101 c 0
 417 143 394 173 368 186 c 0
 344 198 311 194 282 213 c 0
 264 225 227 257 227 324 c 0
 227 359 238 437 325 446 c 0
 338 448 363 446 363 554 c 0
 363 665 301 682 259 682 c 0
 180 682 172 615 172 561 c 2
 172 0 l 1x5dc0
 149 2 l 1
 99 2 l 1x3dc0
 27 0 l 1x5dc0
EndSplineSet
Substitution2: "'smcp' +wYy7OMeQxdDBHAAA +wYzWFQAA +swC7OMeQuFwA lookup 3 subtable" Germandbls.sc
EndChar

StartChar: agrave
Encoding: 224 224 160
Width: 500
GlyphClass: 2
Flags: MW
TeX: 641 0
HStem: -11 22<184.5 231.5 184.5 235> -6 31<415.5 421.5> 240 21<326 326> 288 92 426 22<204 244.5> 490 152<179.5 325>
VStem: 42 77<71 117> 71 92<321 340 321 368> 155 185<510 613> 326 69<140 240 240 240 261 275> 468 25<89 145>
AnchorPoint: "Anchor-5" 222 622 basechar 0
AnchorPoint: "Anchor-4" 222 0 basechar 0
LayerCount: 2
Fore
SplineSet
155 605 m 0x0480
 155 621 169 642 190 642 c 0
 209 642 212 635 340 510 c 1
 325 490 l 1
 311 497 298 504 191 565 c 0
 182 570 155 581 155 605 c 0x0480
42 95 m 0xba60
 42 139 67 191 142 225 c 0
 205 255 275 258 326 261 c 1
 326 298 l 2
 326 387 269 426 220 426 c 0
 188 426 139 415 112 380 c 1
 158 379 163 346 163 334 c 0
 163 308 145 288 117 288 c 0
 91 288 71 305 71 335 c 0
 71 401 140 448 222 448 c 0
 270 448 320 432 359 393 c 0
 395 356 395 317 395 275 c 2
 395 75 l 2
 395 70 399 25 432 25 c 0
 443 25 468 31 468 89 c 2
 468 145 l 1
 493 145 l 1
 493 89 l 2
 493 8 432 -6 411 -6 c 0x7960
 364 -6 337 36 333 76 c 1
 314 29 268 -11 202 -11 c 0
 139 -11 42 14 42 95 c 0xba60
119 96 m 0xba60
 119 46 160 11 209 11 c 0
 254 11 326 45 326 140 c 2
 326 240 l 1
 161 234 119 151 119 96 c 0xba60
EndSplineSet
Substitution2: "'locl' +rW2sAAAA,+ycDF7QAA +rODHINYV in +t3zS9AAA +x5AA lookup 13 subtable" agrave.vn
AlternateSubs2: "'ss01' +wqTQwMd8wTjSuAAA-1 lookup 12 subtable" agrave.vn
AlternateSubs2: "'salt' +wqTQwMd8ua0A +swDFSNYV in +t3zS9AAA +x5AA lookup 11 subtable" agrave.vn
Substitution2: "'smcp' +wYy7OMeQxdDBHAAA +wYzWFQAA +swC7OMeQuFwA lookup 3 subtable" Agrave.sc
EndChar

StartChar: aacute
Encoding: 225 225 161
Width: 500
GlyphClass: 2
Flags: MW
TeX: 641 0
HStem: -11 22<184.5 231.5 184.5 235> -6 31<415.5 421.5> 240 21<326 326> 288 92 426 22<204 244.5> 490 152<173 318.5>
VStem: 42 77<71 117> 71 92<321 340 321 368> 158 185<510 613> 326 69<140 240 240 240 261 275> 468 25<89 145>
AnchorPoint: "Anchor-5" 222 622 basechar 0
AnchorPoint: "Anchor-4" 222 0 basechar 0
LayerCount: 2
Fore
SplineSet
158 510 m 1x0480
 283 631 289 642 308 642 c 0
 329 642 343 621 343 605 c 0
 343 582 320 573 308 566 c 0
 200 505 187 497 173 490 c 1
 158 510 l 1x0480
42 95 m 0xba60
 42 139 67 191 142 225 c 0
 205 255 275 258 326 261 c 1
 326 298 l 2
 326 387 269 426 220 426 c 0
 188 426 139 415 112 380 c 1
 158 379 163 346 163 334 c 0
 163 308 145 288 117 288 c 0
 91 288 71 305 71 335 c 0
 71 401 140 448 222 448 c 0
 270 448 320 432 359 393 c 0
 395 356 395 317 395 275 c 2
 395 75 l 2
 395 70 399 25 432 25 c 0
 443 25 468 31 468 89 c 2
 468 145 l 1
 493 145 l 1
 493 89 l 2
 493 8 432 -6 411 -6 c 0x7960
 364 -6 337 36 333 76 c 1
 314 29 268 -11 202 -11 c 0
 139 -11 42 14 42 95 c 0xba60
119 96 m 0xba60
 119 46 160 11 209 11 c 0
 254 11 326 45 326 140 c 2
 326 240 l 1
 161 234 119 151 119 96 c 0xba60
EndSplineSet
Substitution2: "'locl' +rW2sAAAA,+ycDF7QAA +rODHINYV in +t3zS9AAA +x5AA lookup 13 subtable" aacute.vn
AlternateSubs2: "'ss01' +wqTQwMd8wTjSuAAA-1 lookup 12 subtable" aacute.vn
AlternateSubs2: "'salt' +wqTQwMd8ua0A +swDFSNYV in +t3zS9AAA +x5AA lookup 11 subtable" aacute.vn
Substitution2: "'smcp' +wYy7OMeQxdDBHAAA +wYzWFQAA +swC7OMeQuFwA lookup 3 subtable" Aacute.sc
EndChar

StartChar: acircumflex
Encoding: 226 226 162
Width: 500
GlyphClass: 2
Flags: MW
TeX: 641 0
HStem: -11 22<184.5 231.5 184.5 235> -6 31<415.5 421.5> 240 21<326 326> 288 92 426 22<204 244.5> 482 167<105 222 221 337>
VStem: 42 77<71 117> 71 92<321 340 321 368> 87 268<500 500> 326 69<140 240 240 240 261 275> 468 25<89 145>
AnchorPoint: "Anchor-5" 222 629 basechar 0
AnchorPoint: "Anchor-4" 222 0 basechar 0
LayerCount: 2
Fore
SplineSet
87 500 m 1x0480
 221 649 l 1
 222 649 l 1
 355 500 l 1
 337 482 l 1
 222 596 l 1
 221 596 l 1
 105 482 l 1
 87 500 l 1x0480
42 95 m 0xba60
 42 139 67 191 142 225 c 0
 205 255 275 258 326 261 c 1
 326 298 l 2
 326 387 269 426 220 426 c 0
 188 426 139 415 112 380 c 1
 158 379 163 346 163 334 c 0
 163 308 145 288 117 288 c 0
 91 288 71 305 71 335 c 0
 71 401 140 448 222 448 c 0
 270 448 320 432 359 393 c 0
 395 356 395 317 395 275 c 2
 395 75 l 2
 395 70 399 25 432 25 c 0
 443 25 468 31 468 89 c 2
 468 145 l 1
 493 145 l 1
 493 89 l 2
 493 8 432 -6 411 -6 c 0x7960
 364 -6 337 36 333 76 c 1
 314 29 268 -11 202 -11 c 0
 139 -11 42 14 42 95 c 0xba60
119 96 m 0xba60
 119 46 160 11 209 11 c 0
 254 11 326 45 326 140 c 2
 326 240 l 1
 161 234 119 151 119 96 c 0xba60
EndSplineSet
Substitution2: "'locl' +rW2sAAAA,+ycDF7QAA +rODHINYV in +t3zS9AAA +x5AA lookup 13 subtable" acircumflex.vn
AlternateSubs2: "'ss01' +wqTQwMd8wTjSuAAA-1 lookup 12 subtable" acircumflex.vn
AlternateSubs2: "'salt' +wqTQwMd8ua0A +swDFSNYV in +t3zS9AAA +x5AA lookup 11 subtable" acircumflex.vn
Substitution2: "'smcp' +wYy7OMeQxdDBHAAA +wYzWFQAA +swC7OMeQuFwA lookup 3 subtable" Acircumflex.sc
EndChar

StartChar: atilde
Encoding: 227 227 163
Width: 500
GlyphClass: 2
Flags: MW
TeX: 641 0
HStem: -11 22<184.5 231.5 184.5 235> -6 31<415.5 421.5> 240 21<326 326> 288 92 426 22<204 244.5> 519 46<267.5 301.5> 566 46<141.5 175.5>
VStem: 42 77<71 117> 71 92<321 340 321 368> 326 69<140 240 240 240 261 275> 468 25<89 145>
AnchorPoint: "Anchor-5" 222 593 basechar 0
AnchorPoint: "Anchor-4" 222 0 basechar 0
LayerCount: 2
Fore
SplineSet
55 533 m 1x06
 89 573 120 612 163 612 c 0
 210 612 244 565 291 565 c 0
 323 565 345 588 371 613 c 1
 388 598 l 1
 354 559 323 519 280 519 c 0
 233 519 199 566 152 566 c 0
 113 566 82 529 72 519 c 1
 55 533 l 1x06
42 95 m 0xb960
 42 139 67 191 142 225 c 0
 205 255 275 258 326 261 c 1
 326 298 l 2
 326 387 269 426 220 426 c 0
 188 426 139 415 112 380 c 1
 158 379 163 346 163 334 c 0
 163 308 145 288 117 288 c 0
 91 288 71 305 71 335 c 0
 71 401 140 448 222 448 c 0
 270 448 320 432 359 393 c 0
 395 356 395 317 395 275 c 2
 395 75 l 2
 395 70 399 25 432 25 c 0
 443 25 468 31 468 89 c 2
 468 145 l 1
 493 145 l 1
 493 89 l 2
 493 8 432 -6 411 -6 c 0x78e0
 364 -6 337 36 333 76 c 1
 314 29 268 -11 202 -11 c 0
 139 -11 42 14 42 95 c 0xb960
119 96 m 0xb960
 119 46 160 11 209 11 c 0
 254 11 326 45 326 140 c 2
 326 240 l 1
 161 234 119 151 119 96 c 0xb960
EndSplineSet
Substitution2: "'locl' +rW2sAAAA,+ycDF7QAA +rODHINYV in +t3zS9AAA +x5AA lookup 13 subtable" atilde.vn
AlternateSubs2: "'ss01' +wqTQwMd8wTjSuAAA-1 lookup 12 subtable" atilde.vn
AlternateSubs2: "'salt' +wqTQwMd8ua0A +swDFSNYV in +t3zS9AAA +x5AA lookup 11 subtable" atilde.vn
Substitution2: "'smcp' +wYy7OMeQxdDBHAAA +wYzWFQAA +swC7OMeQuFwA lookup 3 subtable" Atilde.sc
EndChar

StartChar: adieresis
Encoding: 228 228 164
Width: 500
GlyphClass: 2
Flags: MW
TeX: 663 0
HStem: -11 22<184.5 231.5 184.5 235> -6 31<415.5 421.5> 240 21<326 326> 288 92 426 22<204 244.5> 554 105<138.5 165 138.5 165 333.5 360>
VStem: 42 77<71 117> 71 92<321 340 321 368> 100 105<592.5 621.5> 294 105<592.5 621.5> 326 69<140 240 240 240 261 275> 468 25<89 145>
AnchorPoint: "Anchor-5" 222 639 basechar 0
AnchorPoint: "Anchor-4" 222 0 basechar 0
LayerCount: 2
Fore
SplineSet
100 606 m 0x04c0
 100 637 125 659 152 659 c 0
 178 659 205 637 205 606 c 0
 205 575 178 554 152 554 c 0
 121 554 100 579 100 606 c 0x04c0
294 606 m 0
 294 637 320 659 347 659 c 0
 375 659 399 637 399 606 c 0
 399 575 373 554 347 554 c 0
 316 554 294 579 294 606 c 0
42 95 m 0xba30
 42 139 67 191 142 225 c 0
 205 255 275 258 326 261 c 1
 326 298 l 2
 326 387 269 426 220 426 c 0
 188 426 139 415 112 380 c 1
 158 379 163 346 163 334 c 0
 163 308 145 288 117 288 c 0
 91 288 71 305 71 335 c 0
 71 401 140 448 222 448 c 0
 270 448 320 432 359 393 c 0
 395 356 395 317 395 275 c 2
 395 75 l 2
 395 70 399 25 432 25 c 0
 443 25 468 31 468 89 c 2
 468 145 l 1
 493 145 l 1
 493 89 l 2
 493 8 432 -6 411 -6 c 0x7930
 364 -6 337 36 333 76 c 1
 314 29 268 -11 202 -11 c 0
 139 -11 42 14 42 95 c 0xba30
119 96 m 0xba30
 119 46 160 11 209 11 c 0
 254 11 326 45 326 140 c 2
 326 240 l 1
 161 234 119 151 119 96 c 0xba30
EndSplineSet
Substitution2: "'smcp' +wYy7OMeQxdDBHAAA +wYzWFQAA +swC7OMeQuFwA lookup 3 subtable" Adieresis.sc
EndChar

StartChar: aring
Encoding: 229 229 165
Width: 500
GlyphClass: 2
Flags: MW
TeX: 641 0
HStem: -11 22<184.5 231.5 184.5 235> -6 31<415.5 421.5> 240 21<326 326> 288 92 426 22<204 244.5> 500 22<199 246 189.5 250.5> 638 23<197 244 192.5 253.5>
VStem: 42 77<71 117> 71 92<321 340 321 368> 126 25<569 597.5 569 600> 292 25<562.5 590.5> 326 69<140 240 240 240 261 275> 468 25<89 145>
LayerCount: 2
Fore
SplineSet
126 580 m 0x3e78
 126 620 164 661 221 661 c 0
 267 661 317 631 317 580 c 0
 317 540 279 500 222 500 c 0
 176 500 126 530 126 580 c 0x3e78
151 580 m 0
 151 558 159 522 220 522 c 0
 272 522 292 545 292 580 c 0
 292 601 284 638 223 638 c 0
 171 638 151 615 151 580 c 0
42 95 m 0xb918
 42 139 67 191 142 225 c 0
 205 255 275 258 326 261 c 1
 326 298 l 2
 326 387 269 426 220 426 c 0
 188 426 139 415 112 380 c 1
 158 379 163 346 163 334 c 0
 163 308 145 288 117 288 c 0
 91 288 71 305 71 335 c 0
 71 401 140 448 222 448 c 0
 270 448 320 432 359 393 c 0
 395 356 395 317 395 275 c 2
 395 75 l 2
 395 70 399 25 432 25 c 0
 443 25 468 31 468 89 c 2
 468 145 l 1
 493 145 l 1
 493 89 l 2
 493 8 432 -6 411 -6 c 0x7898
 364 -6 337 36 333 76 c 1
 314 29 268 -11 202 -11 c 0
 139 -11 42 14 42 95 c 0xb918
119 96 m 0xb918
 119 46 160 11 209 11 c 0
 254 11 326 45 326 140 c 2
 326 240 l 1
 161 234 119 151 119 96 c 0xb918
EndSplineSet
Substitution2: "'smcp' +wYy7OMeQxdDBHAAA +wYzWFQAA +swC7OMeQuFwA lookup 3 subtable" Aring.sc
EndChar

StartChar: ae
Encoding: 230 230 166
Width: 722
GlyphClass: 2
Flags: MW
TeX: 430 0
HStem: -11 26<522.5 574.5 513.5 585> 230 22<397 627 397 672 396 627> 288 92<112 113 113 129> 424 23<185.5 235 512 545.5>
VStem: 44 78<68.5 120 68.5 139.5> 71 91<324 342 320.5 367.5> 326 70<196.5 223 223 229 142 289 142 348> 627 67<252 252> 663 29
AnchorPoint: "Anchor-5" 371 448 basechar 0
AnchorPoint: "Anchor-4" 369 0 basechar 0
LayerCount: 2
Fore
SplineSet
44 92 m 0xfa80
 44 187 158 248 326 250 c 1
 326 289 l 2
 326 407 251 424 219 424 c 0
 152 424 120 388 112 380 c 1
 113 380 l 2
 153 380 162 350 162 334 c 0
 162 307 141 288 117 288 c 0
 87 288 71 310 71 338 c 0
 71 397 137 447 222 447 c 0
 287 447 342 419 376 370 c 1
 377 370 l 1
 415 418 467 447 527 447 c 0
 634 447 694 361 694 253 c 0xf7
 694 231 685 230 672 230 c 2
 396 230 l 1
 396 223 l 2
 396 61 484 15 543 15 c 0
 606 15 648 64 663 106 c 0
 665 111 669 125 676 128 c 0
 687 132 695 124 692 110 c 0
 682 66 632 -11 538 -11 c 0
 507 -11 436 -4 371 77 c 1
 325 -6 231 -11 202 -11 c 0
 136 -11 44 13 44 92 c 0xfa80
122 93 m 0xfa
 122 44 163 12 210 12 c 0
 279 12 337 67 337 131 c 0
 337 158 326 164 326 229 c 1
 163 220 122 147 122 93 c 0xfa
397 252 m 1
 627 252 l 1xf3
 622 399 566 424 525 424 c 0
 499 424 411 409 397 252 c 1
EndSplineSet
Substitution2: "'smcp' +wYy7OMeQxdDBHAAA +wYzWFQAA +swC7OMeQuFwA lookup 3 subtable" AE.sc
EndChar

StartChar: ccedilla
Encoding: 231 231 167
Width: 444
GlyphClass: 2
Flags: MW
TeX: 430 170
HStem: -204 23<131 144 131 163> -71 86<215 274> 294 92<359 359> 421 26<225.5 285>
VStem: 33 84<161 281> 215 70<-54 -8 -54 -8 -54 -8> 297 71<-152 -115> 313 92<329 358.5> 379 36
AnchorPoint: "Anchor-5" 251 448 basechar 0
LayerCount: 2
Fore
SplineSet
33 216 m 0xfe80
 33 346 131 447 251 447 c 0
 334 447 405 405 405 342 c 0
 405 316 387 294 359 294 c 0
 334 294 313 313 313 340 c 0xfd
 313 377 346 384 360 386 c 1
 350 393 317 421 253 421 c 0
 198 421 117 381 117 216 c 0
 117 62 202 15 259 15 c 0
 289 15 347 25 379 91 c 0
 385 103 389 121 396 126 c 0
 403 131 415 128 415 117 c 0
 415 111 394 15 285 -8 c 1
 285 -54 l 1
 298 -56 368 -69 368 -126 c 0
 368 -188 291 -204 144 -204 c 2
 131 -204 l 1
 131 -181 l 1
 163 -181 l 2
 210 -181 297 -178 297 -126 c 0
 297 -104 280 -74 215 -71 c 1
 215 -8 l 1
 108 10 33 106 33 216 c 0xfe80
EndSplineSet
Substitution2: "'smcp' +wYy7OMeQxdDBHAAA +wYzWFQAA +swC7OMeQuFwA lookup 3 subtable" Ccedilla.sc
EndChar

StartChar: egrave
Encoding: 232 232 168
Width: 444
GlyphClass: 2
Flags: MW
TeX: 641 0
HStem: -11 25<229 259 229 309> 231 21<112 349 112 390 111 349> 426 22<219 287.5> 490 152<179.5 325>
VStem: 28 83<213 231 213 282.5> 155 185<510 613> 349 66<252 271.5> 389 26
AnchorPoint: "Anchor-5" 236 622 basechar 0
AnchorPoint: "Anchor-4" 248 0 basechar 0
LayerCount: 2
Fore
SplineSet
155 605 m 0x14
 155 621 169 642 190 642 c 0
 209 642 212 635 340 510 c 1
 325 490 l 1
 311 497 298 504 191 565 c 0
 182 570 155 581 155 605 c 0x14
28 220 m 0xe9
 28 345 120 448 236 448 c 0
 361 448 415 351 415 252 c 0xea
 415 231 412 231 390 231 c 2
 111 231 l 1
 111 195 111 129 141 81 c 0
 164 44 204 14 254 14 c 0
 264 14 354 14 389 117 c 0
 391 125 393 131 402 131 c 0
 407 131 415 129 415 119 c 0
 415 100 370 -11 248 -11 c 0
 133 -11 28 86 28 220 c 0xe9
112 252 m 1
 349 252 l 1
 349 291 339 426 236 426 c 0
 202 426 118 401 112 252 c 1
EndSplineSet
Substitution2: "'locl' +rW2sAAAA,+ycDF7QAA +rODHINYV in +t3zS9AAA +x5AA lookup 13 subtable" egrave.vn
AlternateSubs2: "'ss01' +wqTQwMd8wTjSuAAA-1 lookup 12 subtable" egrave.vn
AlternateSubs2: "'salt' +wqTQwMd8ua0A +swDFSNYV in +t3zS9AAA +x5AA lookup 11 subtable" egrave.vn
Substitution2: "'smcp' +wYy7OMeQxdDBHAAA +wYzWFQAA +swC7OMeQuFwA lookup 3 subtable" Egrave.sc
EndChar

StartChar: eacute
Encoding: 233 233 169
Width: 444
GlyphClass: 2
Flags: MW
TeX: 641 0
HStem: -11 25<229 259 229 309> 231 21<112 349 112 390 111 349> 426 22<219 287.5> 490 152<145 290.5>
VStem: 28 83<213 231 213 282.5> 130 185<510 613> 349 66<252 271.5> 389 26
AnchorPoint: "Anchor-5" 236 622 basechar 0
AnchorPoint: "Anchor-4" 248 0 basechar 0
LayerCount: 2
Fore
SplineSet
130 510 m 1x14
 255 631 261 642 280 642 c 0
 301 642 315 621 315 605 c 0
 315 582 292 573 280 566 c 0
 172 505 159 497 145 490 c 1
 130 510 l 1x14
28 220 m 0xe9
 28 345 120 448 236 448 c 0
 361 448 415 351 415 252 c 0xea
 415 231 412 231 390 231 c 2
 111 231 l 1
 111 195 111 129 141 81 c 0
 164 44 204 14 254 14 c 0
 264 14 354 14 389 117 c 0
 391 125 393 131 402 131 c 0
 407 131 415 129 415 119 c 0
 415 100 370 -11 248 -11 c 0
 133 -11 28 86 28 220 c 0xe9
112 252 m 1
 349 252 l 1
 349 291 339 426 236 426 c 0
 202 426 118 401 112 252 c 1
EndSplineSet
Substitution2: "'locl' +rW2sAAAA,+ycDF7QAA +rODHINYV in +t3zS9AAA +x5AA lookup 13 subtable" eacute.vn
AlternateSubs2: "'ss01' +wqTQwMd8wTjSuAAA-1 lookup 12 subtable" eacute.vn
AlternateSubs2: "'salt' +wqTQwMd8ua0A +swDFSNYV in +t3zS9AAA +x5AA lookup 11 subtable" eacute.vn
Substitution2: "'smcp' +wYy7OMeQxdDBHAAA +wYzWFQAA +swC7OMeQuFwA lookup 3 subtable" Eacute.sc
EndChar

StartChar: ecircumflex
Encoding: 234 234 170
Width: 444
GlyphClass: 2
Flags: MW
TeX: 641 0
HStem: -11 25<229 259 229 309> 231 21<112 349 112 390 111 349> 426 22<219 287.5> 482 167<105 222 221 337>
VStem: 28 83<213 231 213 282.5> 87 268<500 500> 349 66<252 271.5> 389 26
AnchorPoint: "Anchor-5" 236 629 basechar 0
AnchorPoint: "Anchor-4" 248 0 basechar 0
LayerCount: 2
Fore
SplineSet
87 500 m 1x14
 221 649 l 1
 222 649 l 1
 355 500 l 1
 337 482 l 1
 222 596 l 1
 221 596 l 1
 105 482 l 1
 87 500 l 1x14
28 220 m 0xe9
 28 345 120 448 236 448 c 0
 361 448 415 351 415 252 c 0xea
 415 231 412 231 390 231 c 2
 111 231 l 1
 111 195 111 129 141 81 c 0
 164 44 204 14 254 14 c 0
 264 14 354 14 389 117 c 0
 391 125 393 131 402 131 c 0
 407 131 415 129 415 119 c 0
 415 100 370 -11 248 -11 c 0
 133 -11 28 86 28 220 c 0xe9
112 252 m 1
 349 252 l 1
 349 291 339 426 236 426 c 0
 202 426 118 401 112 252 c 1
EndSplineSet
Substitution2: "'locl' +rW2sAAAA,+ycDF7QAA +rODHINYV in +t3zS9AAA +x5AA lookup 13 subtable" ecircumflex.vn
AlternateSubs2: "'ss01' +wqTQwMd8wTjSuAAA-1 lookup 12 subtable" ecircumflex.vn
AlternateSubs2: "'salt' +wqTQwMd8ua0A +swDFSNYV in +t3zS9AAA +x5AA lookup 11 subtable" ecircumflex.vn
Substitution2: "'smcp' +wYy7OMeQxdDBHAAA +wYzWFQAA +swC7OMeQuFwA lookup 3 subtable" Ecircumflex.sc
EndChar

StartChar: edieresis
Encoding: 235 235 171
Width: 444
GlyphClass: 2
Flags: MW
TeX: 663 0
HStem: -11 25<229 259 229 309> 231 21<112 349 112 390 111 349> 426 22<219 287.5> 554 105<110.5 137 110.5 137 305.5 332>
VStem: 28 83<213 231 213 282.5> 72 105<592.5 621.5> 266 105<592.5 621.5> 349 66<252 271.5> 389 26
AnchorPoint: "Anchor-5" 236 639 basechar 0
AnchorPoint: "Anchor-4" 248 0 basechar 0
LayerCount: 2
Fore
SplineSet
72 606 m 0x16
 72 637 97 659 124 659 c 0
 150 659 177 637 177 606 c 0
 177 575 150 554 124 554 c 0
 93 554 72 579 72 606 c 0x16
266 606 m 0
 266 637 292 659 319 659 c 0
 347 659 371 637 371 606 c 0
 371 575 345 554 319 554 c 0
 288 554 266 579 266 606 c 0
28 220 m 0xe880
 28 345 120 448 236 448 c 0
 361 448 415 351 415 252 c 0xe9
 415 231 412 231 390 231 c 2
 111 231 l 1
 111 195 111 129 141 81 c 0
 164 44 204 14 254 14 c 0
 264 14 354 14 389 117 c 0
 391 125 393 131 402 131 c 0
 407 131 415 129 415 119 c 0
 415 100 370 -11 248 -11 c 0
 133 -11 28 86 28 220 c 0xe880
112 252 m 1
 349 252 l 1
 349 291 339 426 236 426 c 0
 202 426 118 401 112 252 c 1
EndSplineSet
Substitution2: "'smcp' +wYy7OMeQxdDBHAAA +wYzWFQAA +swC7OMeQuFwA lookup 3 subtable" Edieresis.sc
EndChar

StartChar: igrave
Encoding: 236 236 172
Width: 277
GlyphClass: 3
Flags: MW
TeX: 641 0
HStem: 0 31<35 68.5> 400 31<39 71.5> 422 20<179 179> 490 152<20.5 166>
VStem: -4 185<510 613> 113 66<76 345 345 369.5>
AnchorPoint: "Anchor-5" 144 628 basechar 0
AnchorPoint: "Anchor-4" 144 0 basechar 0
LayerCount: 2
Fore
SplineSet
-4 605 m 0x18
 -4 621 10 642 31 642 c 0
 50 642 53 635 181 510 c 1
 166 490 l 1
 152 497 139 504 32 565 c 0
 23 570 -4 581 -4 605 c 0x18
35 0 m 1xa4
 35 31 l 1
 102 31 113 31 113 76 c 2
 113 345 l 2
 113 394 104 400 39 400 c 1
 39 431 l 1xc4
 179 442 l 1
 179 75 l 2
 179 36 183 31 249 31 c 1
 249 0 l 1
 215 1 180 3 145 3 c 0
 121 3 67 1 35 0 c 1xa4
EndSplineSet
Substitution2: "'locl' +rW2sAAAA,+ycDF7QAA +rODHINYV in +t3zS9AAA +x5AA lookup 13 subtable" igrave.vn
AlternateSubs2: "'ss01' +wqTQwMd8wTjSuAAA-1 lookup 12 subtable" igrave.vn
AlternateSubs2: "'salt' +wqTQwMd8ua0A +swDFSNYV in +t3zS9AAA +x5AA lookup 11 subtable" igrave.vn
Ligature2: "'liga' +1FzJAAAA +1WnHTMeQ in +t3zS9AAA +x5AA lookup 8 subtable" i gravecomb
Substitution2: "'smcp' +wYy7OMeQxdDBHAAA +wYzWFQAA +swC7OMeQuFwA lookup 3 subtable" Igrave.sc
EndChar

StartChar: iacute
Encoding: 237 237 173
Width: 277
GlyphClass: 3
Flags: MW
TeX: 641 0
ItalicCorrection: 16
HStem: 0 31<33 66.5> 400 31<37 69.5> 422 20<177 177>
VStem: 111 66<76 345 345 369.5>
AnchorPoint: "Anchor-5" 144 628 basechar 0
AnchorPoint: "Anchor-4" 144 0 basechar 0
LayerCount: 2
Fore
SplineSet
33 0 m 1xb0
 33 31 l 1
 100 31 111 31 111 76 c 2
 111 345 l 2
 111 394 102 400 37 400 c 1
 37 431 l 1xd0
 177 442 l 1
 177 75 l 2
 177 36 181 31 247 31 c 1
 247 0 l 1
 213 1 178 3 143 3 c 0
 119 3 65 1 33 0 c 1xb0
80 510 m 1x90
 209 635 211 642 230 642 c 0
 251 642 265 621 265 605 c 0
 265 582 242 572 230 566 c 0
 122 505 109 497 95 490 c 1
 80 510 l 1x90
EndSplineSet
Substitution2: "'locl' +rW2sAAAA,+ycDF7QAA +rODHINYV in +t3zS9AAA +x5AA lookup 13 subtable" iacute.vn
AlternateSubs2: "'ss01' +wqTQwMd8wTjSuAAA-1 lookup 12 subtable" iacute.vn
AlternateSubs2: "'salt' +wqTQwMd8ua0A +swDFSNYV in +t3zS9AAA +x5AA lookup 11 subtable" iacute.vn
Ligature2: "'liga' +1FzJAAAA +1WnHTMeQ in +0KS5tMeQ lookup 10 subtable" afii10103 acutecomb
Ligature2: "'liga' +1FzJAAAA +1WnHTMeQ in +t3zS9AAA +x5AA lookup 8 subtable" i acutecomb
Substitution2: "'smcp' +wYy7OMeQxdDBHAAA +wYzWFQAA +swC7OMeQuFwA lookup 3 subtable" Iacute.sc
EndChar

StartChar: icircumflex
Encoding: 238 238 174
Width: 277
GlyphClass: 3
Flags: MW
TeX: 641 0
HStem: 0 31<34 67.5> 400 31<38 70.5> 422 20<178 178> 482 167<28 145 144 260>
VStem: 10 268<500 500> 112 66<76 345 345 369.5>
AnchorPoint: "Anchor-5" 144 635 basechar 0
AnchorPoint: "Anchor-4" 144 0 basechar 0
LayerCount: 2
Fore
SplineSet
10 500 m 1x18
 144 649 l 1
 145 649 l 1
 278 500 l 1
 260 482 l 1
 145 596 l 1
 144 596 l 1
 28 482 l 1
 10 500 l 1x18
34 0 m 1xa4
 34 31 l 1
 101 31 112 31 112 76 c 2
 112 345 l 2
 112 394 103 400 38 400 c 1
 38 431 l 1xc4
 178 442 l 1
 178 75 l 2
 178 36 182 31 248 31 c 1
 248 0 l 1
 214 1 179 3 144 3 c 0
 120 3 66 1 34 0 c 1xa4
EndSplineSet
Ligature2: "'liga' +1FzJAAAA +1WnHTMeQ in +t3zS9AAA +x5AA lookup 8 subtable" i uni0302
Substitution2: "'smcp' +wYy7OMeQxdDBHAAA +wYzWFQAA +swC7OMeQuFwA lookup 3 subtable" Icircumflex.sc
EndChar

StartChar: idieresis
Encoding: 239 239 175
Width: 333
GlyphClass: 3
Flags: MW
TeX: 663 0
HStem: 0 31<61 94.5> 400 31<65 97.5> 422 20<205 205> 554 105<60.5 87 254.5 281>
VStem: 21 105<592.5 621.5> 139 66<76 345 345 369.5> 215 105<592.5 621.5>
AnchorPoint: "Anchor-5" 172 639 basechar 0
LayerCount: 2
Fore
SplineSet
215 606 m 0x12
 215 637 241 659 268 659 c 0
 296 659 320 637 320 606 c 0
 320 575 294 554 268 554 c 0
 237 554 215 579 215 606 c 0x12
21 606 m 0x18
 21 637 47 659 74 659 c 0
 102 659 126 637 126 606 c 0
 126 575 100 554 74 554 c 0
 43 554 21 579 21 606 c 0x18
61 0 m 1xa4
 61 31 l 1
 128 31 139 31 139 76 c 2
 139 345 l 2
 139 394 130 400 65 400 c 1
 65 431 l 1xc4
 205 442 l 1
 205 75 l 2
 205 36 209 31 275 31 c 1
 275 0 l 1
 241 1 206 3 171 3 c 0
 147 3 93 1 61 0 c 1xa4
EndSplineSet
Ligature2: "'liga' +1FzJAAAA +1WnHTMeQ in +t3zS9AAA +x5AA lookup 8 subtable" i uni0308
Substitution2: "'smcp' +wYy7OMeQxdDBHAAA +wYzWFQAA +swC7OMeQuFwA lookup 3 subtable" Idieresis.sc
EndChar

StartChar: eth
Encoding: 240 240 176
Width: 500
GlyphClass: 2
Flags: MW
TeX: 688 0
HStem: -11 26<218.5 276.5 218.5 300> 424 23<237 284.5 191.5 287> 672 21
VStem: 27 84<199 239 199 281> 387 84<143.5 223 223 253 143.5 273.5>
LayerCount: 2
Fore
SplineSet
27 213 m 0
 27 349 136 447 247 447 c 0
 322 447 363 382 371 370 c 1
 343 462 299 518 237 579 c 1
 130 517 l 1
 116 512 l 2
 109 512 105 515 103 520 c 2
 104 525 l 1
 105 529 l 1
 139 555 180 573 217 596 c 1
 120 665 89 662 70 672 c 0
 65 674 62 678 62 682 c 0
 62 687 67 693 79 693 c 0
 98 693 170 681 250 634 c 0
 257 630 260 627 265 627 c 0
 284 627 373 692 389 692 c 0
 393 692 400 688 400 682 c 0
 400 678 396 672 386 666 c 2
 287 609 l 1
 459 476 471 313 471 253 c 2
 471 223 l 2
 471 64 351 -11 249 -11 c 0
 131 -11 27 84 27 213 c 0
111 222 m 0
 111 176 115 135 130 100 c 0
 147 61 188 15 249 15 c 0
 304 15 387 56 387 214 c 0
 387 333 326 424 248 424 c 0
 226 424 176 416 140 359 c 0
 112 314 111 256 111 222 c 0
EndSplineSet
Substitution2: "'smcp' +wYy7OMeQxdDBHAAA +wYzWFQAA +swC7OMeQuFwA lookup 3 subtable" Eth.sc
EndChar

StartChar: ntilde
Encoding: 241 241 177
Width: 555
GlyphClass: 2
Flags: MW
TeX: 641 0
HStem: 0 31<32 65.5> 400 31<32 67> 420 22<284.5 345.5> 519 46<329.5 363.5> 566 46<203.5 237.5>
VStem: 110 69<76 260> 388 69<76 252 61 309 61 337.5>
AnchorPoint: "Anchor-5" 284 599 basechar 0
AnchorPoint: "Anchor-4" 284 0 basechar 0
LayerCount: 2
Fore
SplineSet
117 533 m 1x18
 151 573 182 612 225 612 c 0
 272 612 306 565 353 565 c 0
 385 565 407 588 433 613 c 1
 450 598 l 1
 416 559 385 519 342 519 c 0
 295 519 261 566 214 566 c 0
 175 566 144 529 134 519 c 1
 117 533 l 1x18
32 0 m 1xa6
 32 31 l 1
 99 31 110 31 110 76 c 2
 110 344 l 2
 110 393 102 400 32 400 c 1
 32 431 l 1xc6
 173 442 l 1
 173 337 l 1
 201 399 248 442 321 442 c 0
 379 442 412 422 426 405 c 0
 457 369 457 338 457 252 c 2
 457 61 l 2
 458 31 483 31 535 31 c 1
 535 0 l 1
 501 1 449 3 423 3 c 0
 396 3 345 1 310 0 c 1
 310 31 l 1
 377 31 388 31 388 76 c 2
 388 309 l 2
 388 366 377 420 314 420 c 0
 250 420 179 364 179 260 c 2
 179 76 l 2
 179 31 190 31 257 31 c 1
 257 0 l 1
 223 1 171 3 145 3 c 0
 118 3 67 1 32 0 c 1xa6
EndSplineSet
Substitution2: "'smcp' +wYy7OMeQxdDBHAAA +wYzWFQAA +swC7OMeQuFwA lookup 3 subtable" Ntilde.sc
EndChar

StartChar: ograve
Encoding: 242 242 178
Width: 500
GlyphClass: 2
Flags: MW
TeX: 641 0
HStem: -11 25<228.5 275 228.5 309.5> 426 22<229 271> 490 152<179.5 325>
VStem: 28 83<204 241.5 204 276.5> 155 185<510 613> 388 83<204 241>
AnchorPoint: "Anchor-5" 250 622 basechar 0
AnchorPoint: "Anchor-4" 249 0 basechar 0
LayerCount: 2
Fore
SplineSet
155 605 m 0
 155 621 169 642 190 642 c 0
 209 642 212 635 340 510 c 1
 325 490 l 1
 311 497 298 504 191 565 c 0
 182 570 155 581 155 605 c 0
28 214 m 0
 28 339 125 448 250 448 c 0
 371 448 471 342 471 214 c 0
 471 87 370 -11 249 -11 c 0
 132 -11 28 85 28 214 c 0
111 222 m 0
 111 186 111 125 136 81 c 0
 163 35 207 14 250 14 c 0
 300 14 344 43 366 88 c 0
 388 132 388 186 388 222 c 0
 388 260 388 318 362 361 c 0
 336 404 293 426 249 426 c 0
 209 426 162 405 135 359 c 0
 111 315 111 261 111 222 c 0
EndSplineSet
Substitution2: "'locl' +rW2sAAAA,+ycDF7QAA +rODHINYV in +t3zS9AAA +x5AA lookup 13 subtable" ograve.vn
AlternateSubs2: "'ss01' +wqTQwMd8wTjSuAAA-1 lookup 12 subtable" ograve.vn
AlternateSubs2: "'salt' +wqTQwMd8ua0A +swDFSNYV in +t3zS9AAA +x5AA lookup 11 subtable" ograve.vn
Substitution2: "'smcp' +wYy7OMeQxdDBHAAA +wYzWFQAA +swC7OMeQuFwA lookup 3 subtable" Ograve.sc
EndChar

StartChar: oacute
Encoding: 243 243 179
Width: 500
GlyphClass: 2
Flags: MW
TeX: 641 0
HStem: -11 25<228.5 275 228.5 309.5> 426 22<229 271> 490 152<173 318.5>
VStem: 28 83<204 241.5 204 276.5> 158 185<510 613> 388 83<204 241>
AnchorPoint: "Anchor-5" 250 622 basechar 0
AnchorPoint: "Anchor-4" 249 0 basechar 0
LayerCount: 2
Fore
SplineSet
158 510 m 1
 283 631 289 642 308 642 c 0
 329 642 343 621 343 605 c 0
 343 582 320 573 308 566 c 0
 200 505 187 497 173 490 c 1
 158 510 l 1
28 214 m 0
 28 339 125 448 250 448 c 0
 371 448 471 342 471 214 c 0
 471 87 370 -11 249 -11 c 0
 132 -11 28 85 28 214 c 0
111 222 m 0
 111 186 111 125 136 81 c 0
 163 35 207 14 250 14 c 0
 300 14 344 43 366 88 c 0
 388 132 388 186 388 222 c 0
 388 260 388 318 362 361 c 0
 336 404 293 426 249 426 c 0
 209 426 162 405 135 359 c 0
 111 315 111 261 111 222 c 0
EndSplineSet
Substitution2: "'locl' +rW2sAAAA,+ycDF7QAA +rODHINYV in +t3zS9AAA +x5AA lookup 13 subtable" oacute.vn
AlternateSubs2: "'ss01' +wqTQwMd8wTjSuAAA-1 lookup 12 subtable" oacute.vn
AlternateSubs2: "'salt' +wqTQwMd8ua0A +swDFSNYV in +t3zS9AAA +x5AA lookup 11 subtable" oacute.vn
Substitution2: "'smcp' +wYy7OMeQxdDBHAAA +wYzWFQAA +swC7OMeQuFwA lookup 3 subtable" Oacute.sc
EndChar

StartChar: ocircumflex
Encoding: 244 244 180
Width: 500
GlyphClass: 2
Flags: MW
TeX: 641 0
HStem: -11 25<228.5 275 228.5 309.5> 426 22<229 271> 482 167<133 250 249 365>
VStem: 28 83<204 241.5 204 276.5> 115 268<500 500> 388 83<204 241>
AnchorPoint: "Anchor-5" 250 629 basechar 0
AnchorPoint: "Anchor-4" 249 0 basechar 0
LayerCount: 2
Fore
SplineSet
115 500 m 1
 249 649 l 1
 250 649 l 1
 383 500 l 1
 365 482 l 1
 250 596 l 1
 249 596 l 1
 133 482 l 1
 115 500 l 1
28 214 m 0
 28 339 125 448 250 448 c 0
 371 448 471 342 471 214 c 0
 471 87 370 -11 249 -11 c 0
 132 -11 28 85 28 214 c 0
111 222 m 0
 111 186 111 125 136 81 c 0
 163 35 207 14 250 14 c 0
 300 14 344 43 366 88 c 0
 388 132 388 186 388 222 c 0
 388 260 388 318 362 361 c 0
 336 404 293 426 249 426 c 0
 209 426 162 405 135 359 c 0
 111 315 111 261 111 222 c 0
EndSplineSet
Substitution2: "'locl' +rW2sAAAA,+ycDF7QAA +rODHINYV in +t3zS9AAA +x5AA lookup 13 subtable" ocircumflex.vn
AlternateSubs2: "'ss01' +wqTQwMd8wTjSuAAA-1 lookup 12 subtable" ocircumflex.vn
AlternateSubs2: "'salt' +wqTQwMd8ua0A +swDFSNYV in +t3zS9AAA +x5AA lookup 11 subtable" ocircumflex.vn
Substitution2: "'smcp' +wYy7OMeQxdDBHAAA +wYzWFQAA +swC7OMeQuFwA lookup 3 subtable" Ocircumflex.sc
EndChar

StartChar: otilde
Encoding: 245 245 181
Width: 500
GlyphClass: 2
Flags: MW
TeX: 641 0
HStem: -11 25<228.5 275 228.5 309.5> 426 22<229 271> 519 46<295.5 329.5> 566 46<169.5 203.5>
VStem: 28 83<204 241.5 204 276.5> 388 83<204 241>
AnchorPoint: "Anchor-5" 250 593 basechar 0
AnchorPoint: "Anchor-4" 249 0 basechar 0
LayerCount: 2
Fore
SplineSet
83 533 m 1
 117 573 148 612 191 612 c 0
 238 612 272 565 319 565 c 0
 351 565 373 588 399 613 c 1
 416 598 l 1
 382 559 351 519 308 519 c 0
 261 519 227 566 180 566 c 0
 141 566 110 529 100 519 c 1
 83 533 l 1
28 214 m 0
 28 339 125 448 250 448 c 0
 371 448 471 342 471 214 c 0
 471 87 370 -11 249 -11 c 0
 132 -11 28 85 28 214 c 0
111 222 m 0
 111 186 111 125 136 81 c 0
 163 35 207 14 250 14 c 0
 300 14 344 43 366 88 c 0
 388 132 388 186 388 222 c 0
 388 260 388 318 362 361 c 0
 336 404 293 426 249 426 c 0
 209 426 162 405 135 359 c 0
 111 315 111 261 111 222 c 0
EndSplineSet
Substitution2: "'locl' +rW2sAAAA,+ycDF7QAA +rODHINYV in +t3zS9AAA +x5AA lookup 13 subtable" otilde.vn
AlternateSubs2: "'ss01' +wqTQwMd8wTjSuAAA-1 lookup 12 subtable" otilde.vn
AlternateSubs2: "'salt' +wqTQwMd8ua0A +swDFSNYV in +t3zS9AAA +x5AA lookup 11 subtable" otilde.vn
Substitution2: "'smcp' +wYy7OMeQxdDBHAAA +wYzWFQAA +swC7OMeQuFwA lookup 3 subtable" Otilde.sc
EndChar

StartChar: odieresis
Encoding: 246 246 182
Width: 500
GlyphClass: 2
Flags: MW
TeX: 663 0
HStem: -11 25<228.5 275 228.5 309.5> 426 22<229 271> 554 105<137.5 164 137.5 164 332.5 359>
VStem: 28 83<204 241.5 204 276.5> 99 105<592.5 621.5> 293 105<592.5 621.5> 388 83<204 241>
AnchorPoint: "Anchor-5" 250 639 basechar 0
AnchorPoint: "Anchor-4" 249 0 basechar 0
LayerCount: 2
Fore
SplineSet
99 606 m 0x2c
 99 637 124 659 151 659 c 0
 177 659 204 637 204 606 c 0
 204 575 177 554 151 554 c 0
 120 554 99 579 99 606 c 0x2c
293 606 m 0
 293 637 319 659 346 659 c 0
 374 659 398 637 398 606 c 0
 398 575 372 554 346 554 c 0
 315 554 293 579 293 606 c 0
28 214 m 0xd2
 28 339 125 448 250 448 c 0
 371 448 471 342 471 214 c 0
 471 87 370 -11 249 -11 c 0
 132 -11 28 85 28 214 c 0xd2
111 222 m 0
 111 186 111 125 136 81 c 0
 163 35 207 14 250 14 c 0
 300 14 344 43 366 88 c 0
 388 132 388 186 388 222 c 0
 388 260 388 318 362 361 c 0
 336 404 293 426 249 426 c 0
 209 426 162 405 135 359 c 0
 111 315 111 261 111 222 c 0
EndSplineSet
Substitution2: "'smcp' +wYy7OMeQxdDBHAAA +wYzWFQAA +swC7OMeQuFwA lookup 3 subtable" Odieresis.sc
EndChar

StartChar: divide
Encoding: 247 247 183
Width: 778
GlyphClass: 2
Flags: MW
TeX: 583 83
HStem: -28 125<372 404.5 372 404.5> 230 40<73 689 88 689 689 692> 403 125<372 404.5 372 404.5>
VStem: 325 126<19 53.5 449 483.5>
CounterMasks: 1 e0
LayerCount: 2
Fore
SplineSet
56 250 m 0
 56 267 70 270 88 270 c 2
 689 270 l 2
 703 270 720 268 720 250 c 0
 720 233 704 230 692 230 c 2
 85 230 l 2
 61 230 56 242 56 250 c 0
325 35 m 0
 325 72 356 97 388 97 c 0
 421 97 451 72 451 35 c 0
 451 -2 421 -28 388 -28 c 0
 350 -28 325 3 325 35 c 0
325 465 m 0
 325 502 356 528 388 528 c 0
 421 528 451 502 451 465 c 0
 451 428 421 403 388 403 c 0
 350 403 325 433 325 465 c 0
EndSplineSet
EndChar

StartChar: oslash
Encoding: 248 248 184
Width: 500
GlyphClass: 2
Flags: MW
TeX: 533 97
HStem: -11 23<239 273.5 230.5 305.5> 424 23<223.5 269>
VStem: 34 70<176 226.5 163 274.5> 395 69<180 252.5>
LayerCount: 2
Fore
SplineSet
34 213 m 0
 34 336 126 447 249 447 c 0
 292 447 324 434 353 418 c 1
 419 533 l 1
 439 522 l 1
 372 405 l 1
 393 389 464 328 464 213 c 0
 464 83 362 -11 249 -11 c 0
 229 -11 192 -8 147 16 c 1
 79 -103 l 1
 59 -92 l 1
 128 28 l 1
 68 70 34 139 34 213 c 0
104 213 m 0
 104 113 128 82 146 59 c 1
 337 391 l 1
 313 410 288 424 250 424 c 0
 197 424 152 393 128 348 c 0
 104 301 104 240 104 213 c 0
163 42 m 1
 187 25 212 12 249 12 c 0
 298 12 349 38 375 93 c 0
 385 114 395 147 395 213 c 0
 395 292 383 334 354 373 c 1
 353 373 l 1
 163 42 l 1
EndSplineSet
Substitution2: "'smcp' +wYy7OMeQxdDBHAAA +wYzWFQAA +swC7OMeQuFwA lookup 3 subtable" Oslash.sc
EndChar

StartChar: ugrave
Encoding: 249 249 185
Width: 555
GlyphClass: 2
Flags: MW
TeX: 641 0
HStem: -11 22<225 290> 0 31<500 535> 400 31<32 71> 422 20<179 179 457 457> 490 152<198.5 344>
VStem: 110 69<158 308 308 352.5> 174 185<510 613> 388 69<166 344 344 368.5>
AnchorPoint: "Anchor-5" 284 628 basechar 0
AnchorPoint: "Anchor-4" 284 0 basechar 0
LayerCount: 2
Fore
SplineSet
174 605 m 0x0a
 174 621 188 642 209 642 c 0
 228 642 231 635 359 510 c 1
 344 490 l 1
 330 497 317 504 210 565 c 0
 201 570 174 581 174 605 c 0x0a
32 400 m 1xa5
 32 431 l 1xa5
 179 442 l 1x15
 179 110 l 2
 179 58 183 11 267 11 c 0
 340 11 388 79 388 166 c 2
 388 344 l 2
 388 393 380 400 310 400 c 1
 310 431 l 1xa5
 457 442 l 1
 457 87 l 2
 457 38 465 31 535 31 c 1
 535 0 l 1x55
 391 -11 l 1
 391 79 l 1
 362 17 318 -11 262 -11 c 0
 110 -11 110 80 110 158 c 2
 110 308 l 2
 110 397 110 400 32 400 c 1xa5
EndSplineSet
Substitution2: "'locl' +rW2sAAAA,+ycDF7QAA +rODHINYV in +t3zS9AAA +x5AA lookup 13 subtable" ugrave.vn
AlternateSubs2: "'ss01' +wqTQwMd8wTjSuAAA-1 lookup 12 subtable" ugrave.vn
AlternateSubs2: "'salt' +wqTQwMd8ua0A +swDFSNYV in +t3zS9AAA +x5AA lookup 11 subtable" ugrave.vn
Substitution2: "'smcp' +wYy7OMeQxdDBHAAA +wYzWFQAA +swC7OMeQuFwA lookup 3 subtable" Ugrave.sc
EndChar

StartChar: uacute
Encoding: 250 250 186
Width: 555
GlyphClass: 2
Flags: MW
TeX: 641 0
HStem: -11 22<225 290> 0 31<500 535> 400 31<32 71> 422 20<179 179 457 457> 490 152<206 351.5>
VStem: 110 69<158 308 308 352.5> 191 185<510 613> 388 69<166 344 344 368.5>
CounterMasks: 1 07
AnchorPoint: "Anchor-5" 284 628 basechar 0
AnchorPoint: "Anchor-4" 284 0 basechar 0
LayerCount: 2
Fore
SplineSet
191 510 m 1x0a
 316 631 322 642 341 642 c 0
 362 642 376 621 376 605 c 0
 376 582 353 573 341 566 c 0
 233 505 220 497 206 490 c 1
 191 510 l 1x0a
32 400 m 1xa5
 32 431 l 1xa5
 179 442 l 1x15
 179 110 l 2
 179 58 183 11 267 11 c 0
 340 11 388 79 388 166 c 2
 388 344 l 2
 388 393 380 400 310 400 c 1
 310 431 l 1xa5
 457 442 l 1
 457 87 l 2
 457 38 465 31 535 31 c 1
 535 0 l 1x55
 391 -11 l 1
 391 79 l 1
 362 17 318 -11 262 -11 c 0
 110 -11 110 80 110 158 c 2
 110 308 l 2
 110 397 110 400 32 400 c 1xa5
EndSplineSet
Substitution2: "'locl' +rW2sAAAA,+ycDF7QAA +rODHINYV in +t3zS9AAA +x5AA lookup 13 subtable" uacute.vn
AlternateSubs2: "'ss01' +wqTQwMd8wTjSuAAA-1 lookup 12 subtable" uacute.vn
AlternateSubs2: "'salt' +wqTQwMd8ua0A +swDFSNYV in +t3zS9AAA +x5AA lookup 11 subtable" uacute.vn
Substitution2: "'smcp' +wYy7OMeQxdDBHAAA +wYzWFQAA +swC7OMeQuFwA lookup 3 subtable" Uacute.sc
EndChar

StartChar: ucircumflex
Encoding: 251 251 187
Width: 555
GlyphClass: 2
Flags: MW
TeX: 641 0
HStem: -11 22<225 290> 0 31<500 535> 400 31<32 71> 422 20<179 179 457 457> 482 167<166 283 282 398>
VStem: 110 69<158 308 308 352.5> 148 268<500 500> 388 69<166 344 344 368.5>
AnchorPoint: "Anchor-5" 284 635 basechar 0
AnchorPoint: "Anchor-4" 284 0 basechar 0
LayerCount: 2
Fore
SplineSet
148 500 m 1x0a
 282 649 l 1
 283 649 l 1
 416 500 l 1
 398 482 l 1
 283 596 l 1
 282 596 l 1
 166 482 l 1
 148 500 l 1x0a
32 400 m 1xa5
 32 431 l 1xa5
 179 442 l 1x15
 179 110 l 2
 179 58 183 11 267 11 c 0
 340 11 388 79 388 166 c 2
 388 344 l 2
 388 393 380 400 310 400 c 1
 310 431 l 1xa5
 457 442 l 1
 457 87 l 2
 457 38 465 31 535 31 c 1
 535 0 l 1x55
 391 -11 l 1
 391 79 l 1
 362 17 318 -11 262 -11 c 0
 110 -11 110 80 110 158 c 2
 110 308 l 2
 110 397 110 400 32 400 c 1xa5
EndSplineSet
Substitution2: "'smcp' +wYy7OMeQxdDBHAAA +wYzWFQAA +swC7OMeQuFwA lookup 3 subtable" Ucircumflex.sc
EndChar

StartChar: udieresis
Encoding: 252 252 188
Width: 555
GlyphClass: 2
Flags: MW
TeX: 663 0
HStem: -11 22<225 290> 0 31<500 535> 400 31<32 71> 422 20<179 179 457 457> 554 105<171.5 198 171.5 198 367 393>
VStem: 110 69<158 308 308 352.5> 133 105<592.5 621.5> 327 105<590.5 621.5> 388 69<166 344 344 368.5>
AnchorPoint: "Anchor-5" 284 645 basechar 0
AnchorPoint: "Anchor-4" 284 0 basechar 0
LayerCount: 2
Fore
SplineSet
133 606 m 0x0a
 133 637 158 659 185 659 c 0
 211 659 238 637 238 606 c 0
 238 575 211 554 185 554 c 0
 154 554 133 579 133 606 c 0x0a
327 606 m 0x09
 327 637 353 659 380 659 c 0
 408 659 432 637 432 606 c 0
 432 575 406 554 380 554 c 0
 354 554 327 575 327 606 c 0x09
32 400 m 1xa480
 32 431 l 1xa480
 179 442 l 1x1480
 179 110 l 2
 179 58 183 11 267 11 c 0
 340 11 388 79 388 166 c 2
 388 344 l 2
 388 393 380 400 310 400 c 1
 310 431 l 1xa480
 457 442 l 1
 457 87 l 2
 457 38 465 31 535 31 c 1
 535 0 l 1x5480
 391 -11 l 1
 391 79 l 1
 362 17 318 -11 262 -11 c 0
 110 -11 110 80 110 158 c 2
 110 308 l 2
 110 397 110 400 32 400 c 1xa480
EndSplineSet
Substitution2: "'smcp' +wYy7OMeQxdDBHAAA +wYzWFQAA +swC7OMeQuFwA lookup 3 subtable" Udieresis.sc
EndChar

StartChar: yacute
Encoding: 253 253 189
Width: 527
GlyphClass: 2
Flags: MW
TeX: 641 194
ItalicCorrection: 13
HStem: -205 22<108.5 142.5> 400 31<19 43> 490 152<243 388.5>
VStem: 19 84<-131 -110 -131 -109> 228 185<510 613>
AnchorPoint: "Anchor-5" 263 639 basechar 0
AnchorPoint: "Anchor-4" 264 -194 basechar 0
LayerCount: 2
Fore
SplineSet
228 510 m 1
 353 631 359 642 378 642 c 0
 399 642 413 621 413 605 c 0
 413 582 390 573 378 566 c 0
 270 505 257 497 243 490 c 1
 228 510 l 1
19 -124 m 0
 19 -94 41 -81 61 -81 c 0
 84 -81 103 -97 103 -123 c 0
 103 -139 95 -161 64 -165 c 1
 83 -183 106 -183 111 -183 c 0
 175 -183 203 -114 225 -59 c 0
 231 -46 245 -13 250 0 c 1
 100 365 l 2
 86 400 67 400 19 400 c 1
 19 431 l 1
 49 429 89 428 116 428 c 0
 133 428 199 430 225 431 c 1
 225 400 l 1
 206 400 169 400 169 374 c 0
 169 370 171 366 175 356 c 2
 286 87 l 1
 387 333 l 2
 392 345 393 347 393 357 c 0
 393 382 377 399 346 400 c 1
 346 431 l 1
 368 430 415 428 433 428 c 0
 456 428 485 429 508 431 c 1
 508 400 l 1
 492 400 441 399 415 336 c 2
 239 -91 l 2
 215 -148 174 -205 111 -205 c 0
 61 -205 19 -169 19 -124 c 0
EndSplineSet
Substitution2: "'locl' +rW2sAAAA,+ycDF7QAA +rODHINYV in +t3zS9AAA +x5AA lookup 13 subtable" yacute.vn
AlternateSubs2: "'ss01' +wqTQwMd8wTjSuAAA-1 lookup 12 subtable" yacute.vn
AlternateSubs2: "'salt' +wqTQwMd8ua0A +swDFSNYV in +t3zS9AAA +x5AA lookup 11 subtable" yacute.vn
Substitution2: "'smcp' +wYy7OMeQxdDBHAAA +wYzWFQAA +swC7OMeQuFwA lookup 3 subtable" Yacute.sc
EndChar

StartChar: thorn
Encoding: 254 254 190
Width: 555
GlyphClass: 2
Flags: MW
TeX: 688 194
HStem: -195 31<27 32> -11 23<263 334 263 354> 416 25<302.5 341.5> 663 31<27 54> 685 20G<172 172>
VStem: 105 70<-119 -118 -118 50 89.5 115 115 315> 438 83<160 269>
LayerCount: 2
Fore
SplineSet
27 -164 m 1xee
 32 -164 l 2
 94 -164 105 -158 105 -119 c 2
 105 610 l 2
 105 662 81 663 27 663 c 1
 27 694 l 1xf6
 172 705 l 1
 172 376 l 1
 225 440 294 441 311 441 c 0
 423 441 521 344 521 216 c 0
 521 81 409 -11 299 -11 c 0
 224 -11 188 35 175 50 c 1
 175 -118 l 2
 175 -159 186 -164 246 -164 c 2
 252 -164 l 1
 252 -195 l 1
 213 -193 175 -192 136 -192 c 2
 132 -192 l 2
 118 -192 85 -192 27 -195 c 1
 27 -164 l 1xee
175 115 m 2
 175 64 234 12 292 12 c 0
 376 12 438 105 438 215 c 0
 438 323 381 416 302 416 c 0
 232 416 183 359 176 335 c 0
 174 329 175 322 175 315 c 2
 175 115 l 2
EndSplineSet
Substitution2: "'smcp' +wYy7OMeQxdDBHAAA +wYzWFQAA +swC7OMeQuFwA lookup 3 subtable" Thorn.sc
EndChar

StartChar: ydieresis
Encoding: 255 255 191
Width: 527
GlyphClass: 2
Flags: MW
TeX: 663 194
ItalicCorrection: 13
HStem: -205 22<108.5 142.5> 400 31<19 43> 554 105<152.5 179 346.5 373>
VStem: 19 84<-131 -110 -131 -109> 113 105<592.5 621.5> 308 105<592 621.5>
AnchorPoint: "Anchor-5" 263 656 basechar 0
AnchorPoint: "Anchor-4" 264 -194 basechar 0
LayerCount: 2
Fore
SplineSet
308 606 m 0
 308 637 333 659 360 659 c 0
 386 659 413 637 413 606 c 0
 413 575 387 554 361 554 c 0
 330 554 308 578 308 606 c 0
113 606 m 0
 113 637 139 659 166 659 c 0
 194 659 218 637 218 606 c 0
 218 575 192 554 166 554 c 0
 135 554 113 579 113 606 c 0
19 -124 m 0
 19 -94 41 -81 61 -81 c 0
 84 -81 103 -97 103 -123 c 0
 103 -139 95 -161 64 -165 c 1
 83 -183 106 -183 111 -183 c 0
 175 -183 203 -114 225 -59 c 0
 231 -46 245 -13 250 0 c 1
 100 365 l 2
 86 400 67 400 19 400 c 1
 19 431 l 1
 49 429 89 428 116 428 c 0
 133 428 199 430 225 431 c 1
 225 400 l 1
 206 400 169 400 169 374 c 0
 169 370 171 366 175 356 c 2
 286 87 l 1
 387 333 l 2
 392 345 393 347 393 357 c 0
 393 382 377 399 346 400 c 1
 346 431 l 1
 368 430 415 428 433 428 c 0
 456 428 485 429 508 431 c 1
 508 400 l 1
 492 400 441 399 415 336 c 2
 239 -91 l 2
 215 -148 174 -205 111 -205 c 0
 61 -205 19 -169 19 -124 c 0
EndSplineSet
Substitution2: "'smcp' +wYy7OMeQxdDBHAAA +wYzWFQAA +swC7OMeQuFwA lookup 3 subtable" Ydieresis.sc
EndChar

StartChar: Amacron
Encoding: 256 256 192
Width: 750
GlyphClass: 2
Flags: MW
TeX: 829 0
HStem: 0 31<32 32> 228 31<233 458 233 469 222 458> 696 20<351 383 367 398> 796 33<181 569 181 569>
AnchorPoint: "Anchor-5" 375 798 basechar 0
AnchorPoint: "Anchor-4" 374 0 basechar 0
LayerCount: 2
Fore
SplineSet
181 796 m 1
 181 829 l 1
 569 829 l 1
 569 796 l 1
 181 796 l 1
32 0 m 1
 32 31 l 1
 86 32 126 47 144 98 c 2
 351 696 l 2
 356 710 359 716 375 716 c 0
 391 716 393 709 398 696 c 2
 614 71 l 2
 625 38 639 31 699 31 c 2
 717 31 l 1
 717 0 l 1
 675 2 629 3 586 3 c 0
 548 3 478 3 442 0 c 1
 442 31 l 1
 469 31 525 31 525 61 c 0
 525 65 523 71 522 75 c 2
 469 228 l 1
 222 228 l 1
 176 97 l 2
 175 95 174 85 174 82 c 0
 174 56 199 31 249 31 c 1
 249 0 l 1
 217 1 165 3 134 3 c 0
 98 3 55 1 32 0 c 1
233 259 m 1
 458 259 l 1
 345 584 l 1
 233 259 l 1
EndSplineSet
EndChar

StartChar: amacron
Encoding: 257 257 193
Width: 500
GlyphClass: 2
Flags: MW
TeX: 582 11
HStem: -11 22<184.5 231.5 184.5 235> -6 31<415.5 421.5> 240 21<326 326> 288 92 426 22<204 244.5> 550 32<42 402 42 402>
VStem: 42 77<71 117> 71 92<321 340 321 368> 326 69<140 240 240 240 261 275> 468 25<89 145>
AnchorPoint: "Anchor-5" 222 562 basechar 0
AnchorPoint: "Anchor-4" 222 0 basechar 0
LayerCount: 2
Fore
SplineSet
42 550 m 1x04
 42 582 l 1
 402 582 l 1
 402 550 l 1
 42 550 l 1x04
42 95 m 0xbac0
 42 139 67 191 142 225 c 0
 205 255 275 258 326 261 c 1
 326 298 l 2
 326 387 269 426 220 426 c 0
 188 426 139 415 112 380 c 1
 158 379 163 346 163 334 c 0
 163 308 145 288 117 288 c 0
 91 288 71 305 71 335 c 0
 71 401 140 448 222 448 c 0
 270 448 320 432 359 393 c 0
 395 356 395 317 395 275 c 2
 395 75 l 2
 395 70 399 25 432 25 c 0
 443 25 468 31 468 89 c 2
 468 145 l 1
 493 145 l 1
 493 89 l 2
 493 8 432 -6 411 -6 c 0x79c0
 364 -6 337 36 333 76 c 1
 314 29 268 -11 202 -11 c 0
 139 -11 42 14 42 95 c 0xbac0
119 96 m 0xbac0
 119 46 160 11 209 11 c 0
 254 11 326 45 326 140 c 2
 326 240 l 1
 161 234 119 151 119 96 c 0xbac0
EndSplineSet
EndChar

StartChar: Abreve
Encoding: 258 258 194
Width: 750
GlyphClass: 2
Flags: MW
TeX: 891 0
HStem: 0 31<32 32> 228 31<233 458 233 469 222 458> 696 20<351 383 367 398> 753 38<354.5 401.5 354.5 412>
VStem: 225 22<891 891> 502 23<891 891>
AnchorPoint: "Anchor-5" 375 860 basechar 0
AnchorPoint: "Anchor-4" 374 0 basechar 0
LayerCount: 2
Fore
SplineSet
225 891 m 1
 247 891 l 1
 253 810 334 791 375 791 c 0
 428 791 497 819 502 891 c 1
 525 891 l 1
 523 804 449 753 375 753 c 0
 300 753 227 804 225 891 c 1
32 0 m 1
 32 31 l 1
 86 32 126 47 144 98 c 2
 351 696 l 2
 356 710 359 716 375 716 c 0
 391 716 393 709 398 696 c 2
 614 71 l 2
 625 38 639 31 699 31 c 2
 717 31 l 1
 717 0 l 1
 675 2 629 3 586 3 c 0
 548 3 478 3 442 0 c 1
 442 31 l 1
 469 31 525 31 525 61 c 0
 525 65 523 71 522 75 c 2
 469 228 l 1
 222 228 l 1
 176 97 l 2
 175 95 174 85 174 82 c 0
 174 56 199 31 249 31 c 1
 249 0 l 1
 217 1 165 3 134 3 c 0
 98 3 55 1 32 0 c 1
233 259 m 1
 458 259 l 1
 345 584 l 1
 233 259 l 1
EndSplineSet
Substitution2: "'locl' +rW2sAAAA,+ycDF7QAA +rODHINYV in +t3zS9AAA +x5AA lookup 13 subtable" Abreve.vn
AlternateSubs2: "'ss01' +wqTQwMd8wTjSuAAA-1 lookup 12 subtable" Abreve.vn
AlternateSubs2: "'salt' +wqTQwMd8ua0A +swDFSNYV in +t3zS9AAA +x5AA lookup 11 subtable" Abreve.vn
Substitution2: "'c2sc' +swC7OMeQxdDBHAAA +wYzWFbMAuzjHkLhc lookup 4 subtable" Abreve.sc
EndChar

StartChar: abreve
Encoding: 259 259 195
Width: 500
GlyphClass: 2
Flags: MW
TeX: 641 0
HStem: -11 22<184.5 231.5 184.5 235> -6 31<415.5 421.5> 240 21<326 326> 288 92 426 22<204 244.5> 503 38<224 267 224 284>
VStem: 42 77<71 117> 71 92<321 340 321 368> 99 23<639 639> 326 69<140 240 240 240 261 275> 377 23<639 639> 468 25<89 145>
AnchorPoint: "Anchor-5" 222 619 basechar 0
AnchorPoint: "Anchor-4" 222 0 basechar 0
LayerCount: 2
Fore
SplineSet
99 639 m 1x3cb0
 122 639 l 1
 127 565 199 541 249 541 c 0
 285 541 371 557 377 639 c 1
 400 639 l 1
 396 549 319 503 249 503 c 0
 180 503 103 548 99 639 c 1x3cb0
42 95 m 0xba50
 42 139 67 191 142 225 c 0
 205 255 275 258 326 261 c 1
 326 298 l 2
 326 387 269 426 220 426 c 0
 188 426 139 415 112 380 c 1
 158 379 163 346 163 334 c 0
 163 308 145 288 117 288 c 0
 91 288 71 305 71 335 c 0
 71 401 140 448 222 448 c 0
 270 448 320 432 359 393 c 0
 395 356 395 317 395 275 c 2
 395 75 l 2
 395 70 399 25 432 25 c 0
 443 25 468 31 468 89 c 2
 468 145 l 1
 493 145 l 1
 493 89 l 2
 493 8 432 -6 411 -6 c 0x7950
 364 -6 337 36 333 76 c 1
 314 29 268 -11 202 -11 c 0
 139 -11 42 14 42 95 c 0xba50
119 96 m 0xba50
 119 46 160 11 209 11 c 0
 254 11 326 45 326 140 c 2
 326 240 l 1
 161 234 119 151 119 96 c 0xba50
EndSplineSet
Substitution2: "'locl' +rW2sAAAA,+ycDF7QAA +rODHINYV in +t3zS9AAA +x5AA lookup 13 subtable" abreve.vn
AlternateSubs2: "'ss01' +wqTQwMd8wTjSuAAA-1 lookup 12 subtable" abreve.vn
AlternateSubs2: "'salt' +wqTQwMd8ua0A +swDFSNYV in +t3zS9AAA +x5AA lookup 11 subtable" abreve.vn
Substitution2: "'smcp' +wYy7OMeQxdDBHAAA +wYzWFQAA +swC7OMeQuFwA lookup 3 subtable" Abreve.sc
EndChar

StartChar: Aogonek
Encoding: 260 260 196
Width: 750
GlyphClass: 3
Flags: MW
TeX: 688 194
HStem: -217 46<609.5 642> 0 31<32 32> 228 31<232 458 232 469 221 458> 696 20G<366.5 384>
VStem: 500 45<-117 -91>
AnchorPoint: "Anchor-5" 374 705 basechar 0
LayerCount: 2
Fore
SplineSet
32 0 m 1
 32 31 l 1
 119 33 135 73 150 116 c 2
 349 690 l 2
 354 705 359 716 374 716 c 0
 394 716 395 701 405 675 c 2
 614 74 l 2
 629 33 647 31 711 31 c 2
 717 31 l 1
 717 0 l 1
 693 1 668 2 644 2 c 2
 642 2 l 2
 637 2 633 3 628 3 c 2
 627 3 l 2
 595 3 545 -51 545 -94 c 0
 545 -140 591 -171 628 -171 c 0
 675 -171 689 -128 696 -121 c 0
 700 -117 705 -115 710 -119 c 0
 712 -121 713 -123 713 -127 c 0
 713 -152 676 -217 608 -217 c 0
 556 -217 500 -180 500 -118 c 0
 500 -64 544 -23 574 3 c 1
 442 0 l 1
 442 31 l 1
 444 31 l 2
 476 31 523 32 523 63 c 0
 523 74 525 65 469 228 c 1
 221 228 l 1
 204 173 174 100 174 81 c 0
 174 63 189 33 248 31 c 1
 248 0 l 1
 209 2 170 3 131 3 c 0
 111 3 82 3 32 0 c 1
232 259 m 1
 458 259 l 1
 345 584 l 1
 232 259 l 1
EndSplineSet
Ligature2: "'liga' +1FzJAAAA +1WnHTMeQ in +t3zS9AAA +x5AA lookup 9 subtable" A uni0328
Substitution2: "'c2sc' +swC7OMeQxdDBHAAA +wYzWFbMAuzjHkLhc lookup 4 subtable" Aogonek.sc
EndChar

StartChar: aogonek
Encoding: 261 261 197
Width: 500
GlyphClass: 2
Flags: MW
TeX: 430 194
HStem: -217 45<394 432> -11 23<185.5 222> 240 21<326 326> 288 92<112 129.5> 424 23<186.5 240.5>
VStem: 41 78<71.5 125.5 71.5 129> 70 92<320.5 342 320.5 367.5> 286 45<-116 -94.5> 326 70<144 240 240 240 261 291> 468 26<98 145 98 145 98 145>
AnchorPoint: "Anchor-5" 222 448 basechar 0
LayerCount: 2
Fore
SplineSet
41 96 m 0xfd40
 41 162 97 254 326 261 c 1
 326 291 l 2
 326 395 262 424 219 424 c 0
 154 424 121 390 112 380 c 1
 152 380 162 350 162 334 c 0
 162 307 142 288 117 288 c 0
 95 288 70 304 70 336 c 0
 70 399 138 447 222 447 c 0
 283 447 396 415 396 291 c 2
 396 94 l 2xfac0
 396 86 394 28 432 28 c 0
 444 28 455 36 462 51 c 0
 468 65 468 80 468 95 c 2
 468 145 l 1
 494 145 l 1
 494 98 l 2
 493 81 499 44 463 14 c 0
 433 -11 406 -2 393 -6 c 0
 381 -10 331 -51 331 -95 c 0
 331 -137 373 -172 415 -172 c 0
 466 -172 474 -126 486 -120 c 0
 493 -117 500 -122 500 -130 c 0
 500 -147 469 -217 395 -217 c 0
 343 -217 286 -180 286 -120 c 0
 286 -69 324 -28 370 7 c 1
 359 16 339 33 334 75 c 1
 297 3 241 -11 203 -11 c 0
 138 -11 41 14 41 96 c 0xfd40
119 97 m 0xfcc0
 119 46 162 12 209 12 c 0
 260 12 326 49 326 144 c 2
 326 240 l 1
 164 233 119 154 119 97 c 0xfcc0
EndSplineSet
Substitution2: "'smcp' +wYy7OMeQxdDBHAAA +wYzWFQAA +swC7OMeQuFwA lookup 3 subtable" Aogonek.sc
EndChar

StartChar: Cacute
Encoding: 262 262 198
Width: 722
GlyphClass: 2
Flags: MW
TeX: 856 0
HStem: -22 31<385.5 470.5 385.5 485.5> 674 31<384.5 452 310.5 469.5> 788 74
VStem: 56 103<238.5 444> 313 202<765 833> 633 32 640 25<234 234>
AnchorPoint: "Anchor-5" 404 842 basechar 0
AnchorPoint: "Anchor-4" 404 0 basechar 0
LayerCount: 2
Fore
SplineSet
313 765 m 1x28
 466 860 467 862 481 862 c 0
 501 862 515 841 515 825 c 0
 515 795 478 789 473 788 c 0
 354 751 338 746 323 742 c 1
 313 765 l 1x28
56 342 m 0xd2
 56 546 217 705 404 705 c 0
 500 705 551 655 588 619 c 1
 638 693 l 2
 646 705 650 705 654 705 c 0
 665 705 665 698 665 681 c 2xd2
 665 444 l 2
 665 423 665 420 649 420 c 0
 635 420 635 423 633 437 c 0xd4
 613 583 524 674 415 674 c 0
 354 674 159 640 159 341 c 0
 159 43 355 9 416 9 c 0
 525 9 632 91 640 234 c 0
 641 244 641 250 652 250 c 0
 665 250 665 243 665 233 c 0
 665 117 567 -22 404 -22 c 0
 218 -22 56 135 56 342 c 0xd2
EndSplineSet
Substitution2: "'c2sc' +swC7OMeQxdDBHAAA +wYzWFbMAuzjHkLhc lookup 4 subtable" Cacute.sc
EndChar

StartChar: cacute
Encoding: 263 263 199
Width: 444
GlyphClass: 2
Flags: MW
TeX: 641 0
HStem: -11 25<231.5 276.5 231.5 316> 294 92<358 358> 423 25<225.5 256.5> 490 152<188 333.5>
VStem: 34 83<152 278> 173 185<510 613> 312 92<327 346.5> 389 26<119 119>
AnchorPoint: "Anchor-5" 251 622 basechar 0
AnchorPoint: "Anchor-4" 249 0 basechar 0
LayerCount: 2
Fore
SplineSet
173 510 m 1x14
 298 631 304 642 323 642 c 0
 344 642 358 621 358 605 c 0
 358 582 335 573 323 566 c 0
 215 505 202 497 188 490 c 1
 173 510 l 1x14
34 216 m 0xe9
 34 340 126 448 251 448 c 0
 328 448 404 409 404 341 c 0
 404 311 384 294 358 294 c 0
 330 294 312 314 312 340 c 0xea
 312 353 318 383 359 386 c 1
 324 422 261 423 252 423 c 0
 199 423 117 381 117 218 c 0
 117 57 205 14 258 14 c 0
 295 14 360 26 389 119 c 0
 391 125 393 129 402 129 c 0
 405 129 415 129 415 119 c 0
 415 109 383 -11 249 -11 c 0
 133 -11 34 88 34 216 c 0xe9
EndSplineSet
Substitution2: "'smcp' +wYy7OMeQxdDBHAAA +wYzWFQAA +swC7OMeQuFwA lookup 3 subtable" Cacute.sc
EndChar

StartChar: Ccircumflex
Encoding: 264 264 200
Width: 722
GlyphClass: 2
Flags: MW
TeX: 902 22
HStem: -22 31<385.5 470.5 385.5 485.5> 674 31<384.5 452 310.5 469.5> 744 158<288 404 404 520>
VStem: 56 103<238.5 444> 270 268<761 761> 633 32 640 25<234 234>
AnchorPoint: "Anchor-5" 404 882 basechar 0
AnchorPoint: "Anchor-4" 404 0 basechar 0
LayerCount: 2
Fore
SplineSet
270 761 m 1x28
 404 902 l 1
 538 761 l 1
 520 744 l 1
 404 849 l 1
 288 744 l 1
 270 761 l 1x28
56 342 m 0xd2
 56 546 217 705 404 705 c 0
 500 705 551 655 588 619 c 1
 638 693 l 2
 646 705 650 705 654 705 c 0
 665 705 665 698 665 681 c 2xd2
 665 444 l 2
 665 423 665 420 649 420 c 0
 635 420 635 423 633 437 c 0xd4
 613 583 524 674 415 674 c 0
 354 674 159 640 159 341 c 0
 159 43 355 9 416 9 c 0
 525 9 632 91 640 234 c 0
 641 244 641 250 652 250 c 0
 665 250 665 243 665 233 c 0
 665 117 567 -22 404 -22 c 0
 218 -22 56 135 56 342 c 0xd2
EndSplineSet
EndChar

StartChar: ccircumflex
Encoding: 265 265 201
Width: 444
GlyphClass: 2
Flags: MW
TeX: 649 11
HStem: -11 25<231.5 276.5 231.5 316> 294 92<358 358> 423 25<225.5 256.5> 482 167<135 252 251 367>
VStem: 34 83<152 278> 117 268<137.5 500 500 500> 312 92<327 346.5> 389 26<119 119>
AnchorPoint: "Anchor-5" 251 629 basechar 0
AnchorPoint: "Anchor-4" 249 0 basechar 0
LayerCount: 2
Fore
SplineSet
117 500 m 1x14
 251 649 l 1
 252 649 l 1
 385 500 l 1
 367 482 l 1
 252 596 l 1
 251 596 l 1
 135 482 l 1
 117 500 l 1x14
34 216 m 0xe9
 34 340 126 448 251 448 c 0
 328 448 404 409 404 341 c 0
 404 311 384 294 358 294 c 0
 330 294 312 314 312 340 c 0xea
 312 353 318 383 359 386 c 1
 324 422 261 423 252 423 c 0
 199 423 117 381 117 218 c 0
 117 57 205 14 258 14 c 0
 295 14 360 26 389 119 c 0
 391 125 393 129 402 129 c 0
 405 129 415 129 415 119 c 0
 415 109 383 -11 249 -11 c 0
 133 -11 34 88 34 216 c 0xe9
EndSplineSet
EndChar

StartChar: Cdotaccent
Encoding: 266 266 202
Width: 722
GlyphClass: 2
Flags: MW
TeX: 872 22
HStem: -22 31<385.5 470.5 385.5 485.5> 674 31<384.5 452 310.5 469.5> 766 106<389.5 418.5>
VStem: 56 103<238.5 444> 351 106<804.5 833.5> 633 32 640 25<234 234>
AnchorPoint: "Anchor-5" 404 852 basechar 0
AnchorPoint: "Anchor-4" 404 0 basechar 0
LayerCount: 2
Fore
SplineSet
351 819 m 0x28
 351 848 375 872 404 872 c 0
 433 872 457 848 457 819 c 0
 457 790 433 766 404 766 c 0
 375 766 351 790 351 819 c 0x28
56 342 m 0xd2
 56 546 217 705 404 705 c 0
 500 705 551 655 588 619 c 1
 638 693 l 2
 646 705 650 705 654 705 c 0
 665 705 665 698 665 681 c 2xd2
 665 444 l 2
 665 423 665 420 649 420 c 0
 635 420 635 423 633 437 c 0xd4
 613 583 524 674 415 674 c 0
 354 674 159 640 159 341 c 0
 159 43 355 9 416 9 c 0
 525 9 632 91 640 234 c 0
 641 244 641 250 652 250 c 0
 665 250 665 243 665 233 c 0
 665 117 567 -22 404 -22 c 0
 218 -22 56 135 56 342 c 0xd2
EndSplineSet
EndChar

StartChar: cdotaccent
Encoding: 267 267 203
Width: 444
GlyphClass: 2
Flags: MW
TeX: 668 11
HStem: -11 25<231.5 276.5 231.5 316> 294 92<358 358> 423 25<225.5 256.5> 563 105<237.5 264>
VStem: 34 83<152 278> 198 105<601.5 630.5> 312 92<327 346.5> 389 26<119 119>
AnchorPoint: "Anchor-5" 251 648 basechar 0
AnchorPoint: "Anchor-4" 249 0 basechar 0
LayerCount: 2
Fore
SplineSet
198 615 m 0x14
 198 646 224 668 251 668 c 0
 279 668 303 646 303 615 c 0
 303 584 277 563 251 563 c 0
 220 563 198 588 198 615 c 0x14
34 216 m 0xe9
 34 340 126 448 251 448 c 0
 328 448 404 409 404 341 c 0
 404 311 384 294 358 294 c 0
 330 294 312 314 312 340 c 0xea
 312 353 318 383 359 386 c 1
 324 422 261 423 252 423 c 0
 199 423 117 381 117 218 c 0
 117 57 205 14 258 14 c 0
 295 14 360 26 389 119 c 0
 391 125 393 129 402 129 c 0
 405 129 415 129 415 119 c 0
 415 109 383 -11 249 -11 c 0
 133 -11 34 88 34 216 c 0xe9
EndSplineSet
EndChar

StartChar: Ccaron
Encoding: 268 268 204
Width: 722
GlyphClass: 2
Flags: MW
TeX: 891 0
HStem: -22 31<385.5 470.5 385.5 485.5> 674 31<384.5 452 310.5 469.5> 794 62<412 419.5>
VStem: 56 103<238.5 444> 633 32 640 25<234 234>
AnchorPoint: "Anchor-5" 404 915 basechar 0
AnchorPoint: "Anchor-4" 404 0 basechar 0
LayerCount: 2
Fore
SplineSet
263 919 m 1xf0
 275 935 l 1
 381 873 405 856 418 856 c 0
 427 856 514 912 557 935 c 1
 569 919 l 1
 426 797 423 794 416 794 c 0
 408 794 406 797 263 919 c 1xf0
56 342 m 0xd4
 56 546 217 705 404 705 c 0
 500 705 551 655 588 619 c 1
 638 693 l 2
 646 705 650 705 654 705 c 0
 665 705 665 698 665 681 c 2xd4
 665 444 l 2
 665 423 665 420 649 420 c 0
 635 420 635 423 633 437 c 0xd8
 613 583 524 674 415 674 c 0
 354 674 159 640 159 341 c 0
 159 43 355 9 416 9 c 0
 525 9 632 91 640 234 c 0
 641 244 641 250 652 250 c 0
 665 250 665 243 665 233 c 0
 665 117 567 -22 404 -22 c 0
 218 -22 56 135 56 342 c 0xd4
EndSplineSet
Substitution2: "'c2sc' +swC7OMeQxdDBHAAA +wYzWFbMAuzjHkLhc lookup 4 subtable" Ccaron.sc
EndChar

